# Blender 5.0.1
# www.blender.org
mtllib F15Active.mtl
o Cube.006
v 1.885609 0.594784 1.721732
v 1.897951 0.896721 1.721732
v 1.662783 0.594783 -5.170775
v 1.675125 0.896720 -5.170775
v 7.407259 0.476604 -6.164846
v 7.411223 0.573548 -6.164846
v 5.106962 0.526777 -5.261399
v 5.114496 0.711250 -5.261399
v 8.436676 0.446147 -4.646727
v 8.439692 0.519894 -4.646727
v 1.891776 0.745752 2.739217
v 1.668958 0.745752 -5.985510
v 7.409237 0.525072 -6.608753
v 5.110733 0.619017 -6.051120
v 8.438180 0.483020 -4.990668
v 8.438180 0.483020 -4.178497
v -1.885609 0.594784 1.721732
v -1.897951 0.896721 1.721732
v -1.662783 0.594783 -5.170775
v -1.675125 0.896720 -5.170775
v -7.407259 0.476604 -6.164846
v -7.411223 0.573548 -6.164846
v -5.106962 0.526777 -5.261399
v -5.114496 0.711250 -5.261399
v -8.436676 0.446147 -4.646727
v -8.439692 0.519894 -4.646727
v -1.891776 0.745752 2.739217
v -1.668958 0.745752 -5.985510
v -7.409237 0.525072 -6.608753
v -5.110733 0.619017 -6.051120
v -8.438180 0.483020 -4.990668
v -8.438180 0.483020 -4.178497
vn -0.9777 0.2083 0.0250
vn 0.0142 0.9938 -0.1105
vn 0.0140 0.9933 -0.1144
vn 0.0143 0.9940 -0.1086
vn 0.0548 0.9985 -0.0012
vn 0.0538 0.9986 -0.0017
vn 0.0587 0.9983 -0.0001
vn -0.0197 -0.9998 0.0006
vn -0.0201 -0.9998 0.0004
vn -0.0240 -0.9997 -0.0018
vn 0.0343 0.9926 -0.1161
vn 0.9992 -0.0409 -0.0000
vn 0.9992 -0.0410 -0.0000
vn 0.2066 0.9727 -0.1058
vn 0.2075 0.9724 -0.1066
vn 0.2082 0.9722 -0.1071
vn 0.1139 -0.9828 0.1451
vn 0.1331 0.9880 0.0782
vn 0.1266 -0.9863 -0.1057
vn 0.1275 -0.9861 -0.1066
vn 0.1260 -0.9864 -0.1052
vn 0.9992 -0.0408 -0.0000
vn -0.0242 -0.9829 -0.1823
vn -0.0670 -0.9916 -0.1105
vn -0.0671 -0.9912 -0.1143
vn -0.0672 -0.9910 -0.1161
vn -0.9771 0.2104 0.0316
vn -0.9907 -0.1324 0.0320
vn 0.0139 0.9931 -0.1161
vn 0.0482 0.9821 -0.1823
vn 0.2060 0.9729 -0.1052
vn 0.0535 -0.9955 0.0782
vn 0.1924 0.9705 0.1452
vn 0.1281 -0.9860 -0.1071
vn -0.0388 -0.9925 -0.1161
vn -0.0669 -0.9918 -0.1086
vn -0.9912 -0.1301 0.0253
vn 0.9777 0.2083 0.0250
vn -0.0142 0.9938 -0.1105
vn -0.0143 0.9940 -0.1086
vn -0.0140 0.9933 -0.1144
vn -0.0548 0.9985 -0.0012
vn -0.0587 0.9983 -0.0001
vn -0.0538 0.9986 -0.0017
vn 0.0197 -0.9998 0.0006
vn 0.0240 -0.9997 -0.0018
vn 0.0201 -0.9998 0.0004
vn -0.0343 0.9926 -0.1161
vn -0.9992 -0.0409 -0.0000
vn -0.9992 -0.0410 -0.0000
vn -0.2066 0.9727 -0.1058
vn -0.2082 0.9722 -0.1071
vn -0.2075 0.9724 -0.1066
vn -0.1139 -0.9828 0.1451
vn -0.1331 0.9880 0.0782
vn -0.1266 -0.9863 -0.1057
vn -0.1260 -0.9864 -0.1052
vn -0.1275 -0.9861 -0.1066
vn -0.9992 -0.0408 -0.0000
vn 0.0242 -0.9829 -0.1823
vn 0.0670 -0.9916 -0.1105
vn 0.0672 -0.9910 -0.1161
vn 0.0671 -0.9912 -0.1143
vn 0.9771 0.2104 0.0316
vn 0.9907 -0.1324 0.0320
vn -0.0139 0.9931 -0.1161
vn -0.0482 0.9821 -0.1823
vn -0.2060 0.9729 -0.1052
vn -0.0535 -0.9955 0.0782
vn -0.1924 0.9705 0.1452
vn -0.1281 -0.9860 -0.1071
vn 0.0388 -0.9925 -0.1161
vn 0.0669 -0.9918 -0.1086
vn 0.9912 -0.1301 0.0253
vn -0.0225 -0.9997 -0.0007
vn -0.0254 -0.9997 -0.0028
vn 0.0597 0.9982 0.0008
vn 0.0554 0.9985 -0.0022
vn 0.0254 -0.9997 -0.0028
vn 0.0225 -0.9997 -0.0007
vn -0.0597 0.9982 0.0008
vn -0.0554 0.9985 -0.0022
vt 0.625000 0.000000
vt 0.500000 0.250000
vt 0.500000 0.000000
vt 0.500000 0.375000
vt 0.625000 0.500000
vt 0.500000 0.500000
vt 0.750000 0.500000
vt 0.875000 0.500000
vt 0.750000 0.750000
vt 0.125000 0.500000
vt 0.250000 0.500000
vt 0.125000 0.750000
vt 0.625000 0.375000
vt 0.625000 0.750000
vt 0.500000 0.750000
vt 0.375000 0.750000
vt 0.375000 0.500000
vt 0.375000 0.375000
vt 0.375000 0.250000
vt 0.375000 0.000000
vt 0.625000 0.250000
vt 0.250000 0.750000
s 1
usemtl Material.015
f 2/1/1 12/2/1 11/3/1
f 8/7/5 4/8/6 2/9/7
f 3/10/8 7/11/9 1/12/10
f 12/2/11 8/13/11 14/4/11
f 15/6/12 10/14/13 16/15/12
f 6/5/14 15/6/15 13/6/16
f 5/17/19 15/6/20 9/17/21
f 9/17/22 15/6/12 16/15/12
f 12/2/23 7/18/23 3/19/23
f 1/20/27 12/2/27 3/19/27
f 2/1/28 4/21/28 12/2/28
f 12/2/30 4/21/30 8/13/30
f 6/5/14 10/5/31 15/6/15
f 5/17/19 13/6/34 15/6/20
f 12/2/35 14/4/35 7/18/35
f 1/20/37 11/3/37 12/2/37
f 18/1/38 27/3/38 28/2/38
f 24/7/42 18/9/43 20/8/44
f 19/10/45 17/12/46 23/11/47
f 28/2/48 30/4/48 24/13/48
f 31/6/49 32/15/49 26/14/50
f 22/5/51 29/6/52 31/6/53
f 21/17/56 25/17/57 31/6/58
f 25/17/59 32/15/49 31/6/49
f 28/2/60 19/19/60 23/18/60
f 17/20/64 19/19/64 28/2/64
f 18/1/65 28/2/65 20/21/65
f 28/2/67 24/13/67 20/21/67
f 22/5/51 31/6/53 26/5/68
f 21/17/56 31/6/58 29/6/71
f 28/2/72 23/18/72 30/4/72
f 17/20/74 28/2/74 27/3/74
f 1/16/10 5/17/75 9/17/76
f 6/5/77 2/14/7 10/5/78
f 17/16/46 25/17/79 21/17/80
f 22/5/81 26/5/82 18/14/43
usemtl Material.023
f 14/4/2 6/5/3 13/6/4
f 1/16/17 16/15/17 11/15/17
f 2/14/18 16/15/18 10/14/18
f 14/4/24 5/17/25 7/18/26
f 14/4/2 8/13/29 6/5/3
f 1/16/32 9/16/32 16/15/32
f 2/14/33 11/15/33 16/15/33
f 14/4/24 13/6/36 5/17/25
f 30/4/39 29/6/40 22/5/41
f 17/16/54 27/15/54 32/15/54
f 18/14/55 26/14/55 32/15/55
f 30/4/61 23/18/62 21/17/63
f 30/4/39 22/5/41 24/13/66
f 17/16/69 32/15/69 25/16/69
f 18/14/70 32/15/70 27/15/70
f 30/4/61 21/17/63 29/6/73
f 7/11/9 5/17/75 1/22/10
f 6/5/77 8/7/5 2/14/7
f 23/11/47 17/22/46 21/17/80
f 22/5/81 18/14/43 24/7/42
o Cube.008
v 1.628546 -0.065254 -6.865077
v 1.629350 0.030910 -6.865077
v 1.628546 -0.065254 -9.835630
v 1.629350 0.030910 -9.835630
v 2.203394 -0.070047 -11.246496
v 2.204198 0.026118 -11.246496
v 3.545972 0.014925 -8.928043
v 3.545176 -0.081231 -8.928043
v 4.961115 -0.022109 -10.224283
v 4.960737 -0.067787 -10.224283
v 4.961244 -0.008272 -11.954107
v 4.960633 -0.081625 -11.954107
v 3.545811 -0.003214 -8.442091
v 3.545312 -0.063091 -8.442091
v 5.654720 -0.029957 -11.233318
v 5.654222 -0.071502 -11.233318
v 1.628948 -0.017171 -6.616625
v 1.628948 -0.017172 -10.014240
v 2.203796 -0.021965 -11.425108
v 3.545570 -0.033149 -8.679583
v 4.960938 -0.044952 -12.132721
v 3.545562 -0.033149 -8.193632
v 4.960922 -0.044952 -9.975824
v 5.654480 -0.050733 -11.457109
v 5.654463 -0.050733 -10.939686
v -1.628546 -0.065254 -6.865077
v -1.629350 0.030910 -6.865077
v -1.628546 -0.065254 -9.835630
v -1.629350 0.030910 -9.835630
v -2.203394 -0.070047 -11.246496
v -2.204198 0.026118 -11.246496
v -3.545972 0.014925 -8.928043
v -3.545176 -0.081231 -8.928043
v -4.961115 -0.022109 -10.224283
v -4.960737 -0.067787 -10.224283
v -4.961244 -0.008272 -11.954107
v -4.960633 -0.081625 -11.954107
v -3.545811 -0.003214 -8.442091
v -3.545312 -0.063091 -8.442091
v -5.654720 -0.029957 -11.233318
v -5.654222 -0.071502 -11.233318
v -1.628948 -0.017171 -6.616625
v -1.628948 -0.017172 -10.014240
v -2.203796 -0.021965 -11.425108
v -3.545570 -0.033149 -8.679583
v -4.960938 -0.044952 -12.132721
v -3.545562 -0.033149 -8.193632
v -4.960922 -0.044952 -9.975824
v -5.654480 -0.050733 -11.457109
v -5.654463 -0.050733 -10.939686
vn -1.0000 0.0084 -0.0000
vn 0.0078 1.0000 0.0003
vn 0.0083 1.0000 -0.0000
vn -0.0083 -1.0000 -0.0000
vn -0.0088 -1.0000 0.0004
vn 0.0192 0.9998 -0.0062
vn -0.5310 0.8185 -0.2192
vn 0.0145 0.9999 0.0080
vn 0.0217 0.9997 0.0080
vn 0.0219 0.9997 0.0080
vn 0.1923 -0.9635 0.1862
vn 0.0025 -1.0000 -0.0061
vn 0.2003 0.9596 -0.1974
vn -0.0434 0.9786 -0.2009
vn 0.0436 -0.9984 0.0373
vn 0.0033 -1.0000 -0.0067
vn 0.1408 -0.9829 0.1183
vn 0.0229 0.9997 0.0080
vn -1.0000 0.0083 -0.0000
vn -1.0000 0.0085 -0.0000
vn 0.0602 0.9975 0.0373
vn 0.9999 -0.0120 -0.0000
vn 0.1125 -0.9895 0.0909
vn 0.1179 -0.9889 0.0908
vn 0.1165 -0.9890 0.0908
vn 0.0051 -1.0000 0.0080
vn 0.0053 -1.0000 0.0080
vn 0.0063 -0.9999 0.0080
vn 0.1134 0.9911 0.0702
vn 0.9999 -0.0119 -0.0000
vn -1.0000 0.0082 -0.0000
vn 0.1277 0.9876 0.0909
vn 0.1330 0.9870 0.0908
vn 0.1290 0.9875 0.0908
vn -0.0706 -0.9632 -0.2594
vn 0.1098 -0.9897 -0.0917
vn 0.2084 0.9602 0.1862
vn 0.2083 0.9602 0.1861
vn -0.5446 -0.8095 -0.2192
vn 0.0200 0.9998 -0.0067
vn 0.1263 0.9877 -0.0918
vn -0.0546 0.9642 -0.2594
vn -0.0021 -1.0000 0.0080
vn 0.1111 -0.9896 0.0909
vn 0.0967 -0.9928 0.0701
vn 0.1344 0.9867 0.0908
vn 0.1571 0.9805 0.1183
vn -0.0597 -0.9778 -0.2009
vn 0.1843 -0.9629 -0.1974
vn 1.0000 0.0084 -0.0000
vn -0.0078 1.0000 0.0003
vn -0.0083 1.0000 -0.0000
vn 0.0083 -1.0000 -0.0000
vn 0.0088 -1.0000 0.0004
vn -0.0192 0.9998 -0.0062
vn 0.5310 0.8185 -0.2192
vn -0.0145 0.9999 0.0080
vn -0.0219 0.9997 0.0080
vn -0.0217 0.9997 0.0080
vn -0.1923 -0.9635 0.1862
vn -0.0025 -1.0000 -0.0061
vn -0.2003 0.9596 -0.1974
vn 0.0434 0.9786 -0.2009
vn -0.0436 -0.9984 0.0373
vn -0.0033 -1.0000 -0.0067
vn -0.1408 -0.9829 0.1183
vn -0.0229 0.9997 0.0080
vn 1.0000 0.0083 -0.0000
vn 1.0000 0.0085 -0.0000
vn -0.0602 0.9975 0.0373
vn -0.9999 -0.0120 -0.0000
vn -0.1125 -0.9895 0.0909
vn -0.1165 -0.9890 0.0908
vn -0.1179 -0.9889 0.0908
vn -0.0051 -1.0000 0.0080
vn -0.0063 -0.9999 0.0080
vn -0.0053 -1.0000 0.0080
vn -0.1134 0.9911 0.0702
vn -0.9999 -0.0119 -0.0000
vn 1.0000 0.0082 -0.0000
vn -0.1277 0.9876 0.0909
vn -0.1290 0.9875 0.0908
vn -0.1330 0.9870 0.0908
vn 0.0706 -0.9632 -0.2594
vn -0.1098 -0.9897 -0.0917
vn -0.2084 0.9602 0.1862
vn -0.2083 0.9602 0.1861
vn 0.5446 -0.8095 -0.2192
vn -0.0200 0.9998 -0.0067
vn -0.1263 0.9877 -0.0918
vn 0.0546 0.9642 -0.2594
vn 0.0021 -1.0000 0.0080
vn -0.1111 -0.9896 0.0909
vn -0.0967 -0.9928 0.0701
vn -0.1344 0.9867 0.0908
vn -0.1571 0.9805 0.1183
vn 0.0597 -0.9778 -0.2009
vn -0.1843 -0.9629 -0.1974
vt 0.625000 0.000000
vt 0.500000 0.250000
vt 0.500000 0.000000
vt 0.830189 0.500000
vt 0.875000 0.500000
vt 0.830189 0.750000
vt 0.125000 0.500000
vt 0.169811 0.500000
vt 0.125000 0.750000
vt 0.625000 0.294811
vt 0.500000 0.294811
vt 0.375000 0.955189
vt 0.500000 0.955189
vt 0.169811 0.750000
vt 0.397406 0.397406
vt 0.625000 0.955189
vt 0.375000 0.294811
vt 0.375000 0.250000
vt 0.375000 0.000000
vt 0.625000 0.250000
s 1
usemtl Material.018
f 34/23/83 50/24/83 49/25/83
f 38/26/84 36/27/85 34/28/85
f 35/29/86 37/30/87 33/31/86
f 38/26/84 34/28/85 39/28/88
f 50/24/89 38/32/89 51/33/89
f 38/26/90 41/28/91 43/26/92
f 33/34/93 52/35/93 49/35/93
f 33/36/86 37/30/87 40/36/94
f 43/32/95 56/33/95 53/33/95
f 51/33/96 43/32/96 53/33/96
f 40/36/97 42/36/97 46/36/97
f 37/30/87 42/36/98 40/36/94
f 46/34/99 55/35/99 54/35/99
f 43/26/92 41/28/91 47/26/100
f 52/35/101 46/34/102 54/35/101
f 41/28/103 39/28/103 45/28/103
f 57/35/104 48/30/104 56/37/104
f 42/34/105 57/35/106 55/35/107
f 42/36/108 44/30/109 48/36/110
f 41/38/111 57/35/111 47/38/111
f 47/38/112 57/35/104 56/37/104
f 52/35/101 45/38/113 39/38/113
f 45/38/114 55/35/115 41/38/116
f 51/33/117 44/39/117 37/39/117
f 44/39/118 56/33/118 48/39/118
f 34/38/119 52/35/120 39/38/120
f 50/24/121 37/39/121 35/40/121
f 33/41/83 50/24/83 35/40/83
f 34/23/83 36/42/83 50/24/83
f 50/24/89 36/42/89 38/32/89
f 38/26/84 39/28/88 41/28/122
f 33/34/93 40/34/93 52/35/93
f 43/32/123 47/32/123 56/33/123
f 51/33/124 38/32/124 43/32/124
f 37/30/125 44/30/109 42/36/108
f 46/34/126 42/34/105 55/35/107
f 52/35/101 40/34/83 46/34/102
f 42/34/127 48/34/127 57/35/127
f 41/38/116 55/35/115 57/35/128
f 52/35/101 54/35/101 45/38/113
f 45/38/129 54/35/129 55/35/129
f 51/33/130 53/33/130 44/39/130
f 44/39/131 53/33/131 56/33/131
f 34/38/119 49/35/119 52/35/120
f 50/24/121 51/33/121 37/39/121
f 33/41/83 49/25/83 50/24/83
f 59/23/132 74/25/132 75/24/132
f 63/26/133 59/28/134 61/27/134
f 60/29/135 58/31/135 62/30/136
f 63/26/133 64/28/137 59/28/134
f 75/24/138 76/33/138 63/32/138
f 63/26/139 68/26/140 66/28/141
f 58/34/142 74/35/142 77/35/142
f 58/36/135 65/36/143 62/30/136
f 68/32/144 78/33/144 81/33/144
f 76/33/145 78/33/145 68/32/145
f 65/36/146 71/36/146 67/36/146
f 62/30/136 65/36/143 67/36/147
f 71/34/148 79/35/148 80/35/148
f 68/26/140 72/26/149 66/28/141
f 77/35/150 79/35/150 71/34/151
f 66/28/152 70/28/152 64/28/152
f 82/35/153 81/37/153 73/30/153
f 67/34/154 80/35/155 82/35/156
f 67/36/157 73/36/158 69/30/159
f 66/38/160 72/38/160 82/35/160
f 72/38/161 81/37/153 82/35/153
f 77/35/150 64/38/162 70/38/162
f 70/38/163 66/38/164 80/35/165
f 76/33/166 62/39/166 69/39/166
f 69/39/167 73/39/167 81/33/167
f 59/38/168 64/38/169 77/35/169
f 75/24/170 60/40/170 62/39/170
f 58/41/132 60/40/132 75/24/132
f 59/23/132 75/24/132 61/42/132
f 75/24/138 63/32/138 61/42/138
f 63/26/133 66/28/171 64/28/137
f 58/34/142 77/35/142 65/34/142
f 68/32/172 81/33/172 72/32/172
f 76/33/173 68/32/173 63/32/173
f 62/30/174 67/36/157 69/30/159
f 71/34/175 80/35/155 67/34/154
f 77/35/150 71/34/151 65/34/132
f 67/34/176 82/35/176 73/34/176
f 66/38/164 82/35/177 80/35/165
f 77/35/150 70/38/162 79/35/150
f 70/38/178 80/35/178 79/35/178
f 76/33/179 69/39/179 78/33/179
f 69/39/180 81/33/180 78/33/180
f 59/38/168 77/35/169 74/35/168
f 75/24/170 62/39/170 76/33/170
f 58/41/132 75/24/132 74/25/132
o Cube.010
v 1.515881 0.626874 -6.176649
v 2.997746 4.579855 -9.350298
v 1.515881 0.626873 -9.689108
v 2.997746 4.579855 -9.783480
v 1.649981 0.578092 -6.176649
v 3.054327 4.559272 -9.350298
v 1.649981 0.578092 -9.689108
v 3.054327 4.559271 -9.783480
v 1.582931 0.602486 -9.982136
v 3.026031 4.569563 -10.076508
v 1.582931 0.602487 -5.792185
v 3.026031 4.569563 -8.965832
v -1.515881 0.626874 -6.176649
v -2.997746 4.579855 -9.350298
v -1.515881 0.626873 -9.689108
v -2.997746 4.579855 -9.783480
v -1.649981 0.578092 -6.176649
v -3.054327 4.559272 -9.350298
v -1.649981 0.578092 -9.689108
v -3.054327 4.559271 -9.783480
v -1.582931 0.602486 -9.982136
v -3.026031 4.569563 -10.076508
v -1.582931 0.602487 -5.792185
v -3.026031 4.569563 -8.965832
vn -0.9364 0.3510 -0.0000
vn 0.9145 -0.3282 -0.2366
vn 0.9430 -0.3327 -0.0000
vn -0.8689 0.4607 0.1808
vn -0.3419 -0.9398 -0.0000
vn -0.3419 -0.9397 -0.0000
vn 0.3419 0.9397 -0.0000
vn 0.3418 0.9398 -0.0000
vn -0.3418 -0.9398 -0.0000
vn 0.9619 -0.2053 0.1808
vn -0.9116 0.3361 -0.2366
vn 0.9340 -0.3422 -0.1022
vn -0.9114 0.4042 0.0779
vn 0.9580 -0.2759 0.0779
vn -0.9356 0.3379 -0.1022
vn 0.9364 0.3510 -0.0000
vn -0.9145 -0.3282 -0.2366
vn -0.9430 -0.3327 -0.0000
vn 0.8689 0.4607 0.1808
vn 0.3419 -0.9398 -0.0000
vn 0.3419 -0.9397 -0.0000
vn -0.3419 0.9397 -0.0000
vn -0.3418 0.9398 -0.0000
vn 0.3418 -0.9398 -0.0000
vn -0.9619 -0.2053 0.1808
vn 0.9116 0.3361 -0.2366
vn -0.9340 -0.3422 -0.1022
vn 0.9114 0.4042 0.0779
vn -0.9580 -0.2759 0.0779
vn 0.9356 0.3379 -0.1022
vt 0.625000 0.000000
vt 0.375000 0.250000
vt 0.375000 0.000000
vt 0.375000 0.375000
vt 0.625000 0.500000
vt 0.375000 0.500000
vt 0.625000 0.750000
vt 0.375000 0.750000
vt 0.625000 0.875000
vt 0.375000 1.000000
vt 0.375000 0.875000
vt 0.250000 0.500000
vt 0.250000 0.750000
vt 0.750000 0.500000
vt 0.875000 0.750000
vt 0.750000 0.750000
vt 0.125000 0.750000
vt 0.125000 0.500000
vt 0.625000 0.250000
vt 0.625000 0.375000
vt 0.625000 1.000000
vt 0.875000 0.500000
s 1
usemtl Material.017
f 84/43/181 85/44/181 83/45/181
f 91/46/182 90/47/182 89/48/182
f 89/48/183 88/49/183 87/50/183
f 94/51/184 83/52/184 93/53/184
f 91/54/185 87/50/186 93/55/185
f 92/56/187 84/57/187 94/58/187
f 92/56/187 88/49/188 90/47/188
f 91/54/185 83/59/189 85/60/189
f 87/50/190 94/51/190 93/53/190
f 86/61/191 91/46/191 85/44/191
f 84/43/181 86/61/181 85/44/181
f 91/46/192 92/62/192 90/47/192
f 89/48/183 90/47/183 88/49/183
f 94/51/193 84/63/193 83/52/193
f 91/54/185 89/48/186 87/50/186
f 92/56/187 86/64/187 84/57/187
f 92/56/187 94/58/187 88/49/188
f 91/54/185 93/55/185 83/59/189
f 87/50/194 88/49/194 94/51/194
f 86/61/195 92/62/195 91/46/195
f 96/43/196 95/45/196 97/44/196
f 103/46/197 101/48/197 102/47/197
f 101/48/198 99/50/198 100/49/198
f 106/51/199 105/53/199 95/52/199
f 103/54/200 105/55/200 99/50/201
f 104/56/202 106/58/202 96/57/202
f 104/56/202 102/47/203 100/49/203
f 103/54/200 97/60/204 95/59/204
f 99/50/205 105/53/205 106/51/205
f 98/61/206 97/44/206 103/46/206
f 96/43/196 97/44/196 98/61/196
f 103/46/207 102/47/207 104/62/207
f 101/48/198 100/49/198 102/47/198
f 106/51/208 95/52/208 96/63/208
f 103/54/200 99/50/201 101/48/201
f 104/56/202 96/57/202 98/64/202
f 104/56/202 100/49/203 106/58/202
f 103/54/200 95/59/204 105/55/200
f 99/50/209 106/51/209 100/49/209
f 98/61/210 103/46/210 104/62/210
o Cube.012
v -2.326168 -0.443840 1.614166
v 2.326168 -0.443840 1.614166
v -2.326168 1.010566 1.614166
v 2.326168 1.010566 1.614166
v 0.000000 -0.498458 2.865477
v 0.000000 -0.443840 -2.775326
v 0.000000 1.010566 -2.775326
v 0.305386 -0.443840 -2.775326
v 0.305386 1.010566 -2.775326
v 1.018080 -0.139515 2.865477
v -1.018080 -0.139515 2.865477
v -0.305386 1.010566 -2.775326
v -0.305386 -0.443840 -2.775326
v -2.326168 -0.894405 1.614166
v 2.326168 -0.894405 1.614166
v 0.305386 -0.894405 -2.775326
v -0.305386 -0.894405 -2.775326
v -2.036167 -0.974504 3.534872
v 2.036159 -0.974504 3.534872
v -2.036167 0.955948 7.094851
v 2.036159 0.955948 7.094851
v 1.018080 0.955948 7.094851
v 1.018080 -0.974504 3.534872
v -1.018080 -0.974504 3.534872
v -1.018080 0.955948 7.094851
v 0.000000 -0.498458 6.120953
v 1.018080 0.955947 6.120953
v 1.018080 -0.095677 6.120953
v -1.018080 -0.095677 6.120953
v -1.018080 0.955947 6.120953
v 0.000000 1.695512 3.247778
v 1.018080 0.993874 3.247778
v -1.018080 0.993874 3.247778
v 0.000000 1.695513 6.120953
v 1.018080 0.993874 6.120953
v -1.018080 0.993874 6.120953
v 0.000000 -0.553068 7.796030
v 0.000000 -0.187924 14.971699
v 0.969636 0.955948 7.796030
v 0.969636 -0.150295 7.796030
v -0.969636 -0.150295 7.796030
v -0.969636 0.955948 7.796030
v 0.000000 1.695513 7.796030
v 0.000000 -0.534864 11.555292
v 0.818008 0.370367 11.555292
v 0.818008 -0.132091 11.555292
v -0.818008 -0.132091 11.555292
v -0.818008 0.370367 11.555292
v 0.000000 1.078325 11.555292
v -0.596106 0.106398 13.120897
v -0.596106 -0.095676 13.120897
v 0.596106 0.106398 13.120897
v 0.000000 0.632311 13.120897
v 0.596106 -0.095676 13.120897
v 0.000000 -0.498457 13.120897
v -2.202494 -0.443840 -2.221466
v 2.202494 -0.443840 -2.221466
v -2.202494 1.010565 -2.221466
v 2.202494 1.010565 -2.221466
v 0.000000 -0.443840 -4.924928
v 0.000000 1.010565 -4.924928
v 0.289152 -0.443840 -4.924928
v 0.289152 1.010565 -4.924928
v -0.289152 1.010565 -4.924928
v -0.289152 -0.443840 -4.924928
v -2.202494 -0.894405 -2.221466
v 2.202494 -0.894405 -2.221466
v 0.289152 -0.894405 -4.924928
v -0.289152 -0.894405 -4.924928
v -1.700694 -0.820973 -7.897653
v 1.700694 -0.820973 -7.897653
v -1.700694 0.905837 -7.897653
v 1.700694 0.905837 -7.897653
v 0.289152 -0.820973 -7.897653
v 0.289152 0.905837 -7.897653
v -0.289152 0.905837 -7.897653
v -0.289152 -0.820973 -7.897653
v 0.509044 -0.498458 2.865477
v 0.509044 -0.498458 6.120953
v 0.000000 -0.148473 -7.460314
v 0.000000 0.715197 -7.460314
v 0.289152 -0.148473 -7.460314
v 0.289152 0.715197 -7.460314
v -0.289152 0.715197 -7.460314
v -0.289152 -0.148473 -7.460314
v -1.700694 -0.793949 -9.610062
v 1.700694 -0.793949 -9.610062
v -1.700694 0.744785 -9.610062
v 1.700694 0.744785 -9.610062
v 0.289152 -0.793949 -9.610062
v 0.289152 0.744785 -9.610062
v -0.289152 0.744785 -9.610062
v -0.289152 -0.793949 -9.610062
v 0.360536 1.695512 3.247778
v 0.343377 1.695513 7.796030
v 0.484818 -0.553068 7.796030
v 0.360536 1.695513 6.120953
v 0.000000 0.066369 -9.520981
v 0.000000 0.424782 -9.520981
v 0.289152 0.066369 -9.520981
v 0.289152 0.424782 -9.520981
v -0.289152 0.424782 -9.520981
v -0.289152 0.066369 -9.520981
v 0.409004 -0.534864 11.555292
v 0.262337 1.078325 11.555292
v 0.191171 0.632311 13.120897
v 0.298053 -0.498457 13.120897
v -0.509044 -0.498458 2.865477
v -0.509044 -0.498458 6.120953
v -0.360536 1.695512 3.247778
v -0.360536 1.695513 6.120953
v -0.484818 -0.553068 7.796030
v -0.343377 1.695513 7.796030
v -0.409004 -0.534864 11.555292
v -0.262337 1.078325 11.555292
v -0.298053 -0.498457 13.120897
v -0.191171 0.632311 13.120897
v 1.700694 -0.024586 -9.610062
v 0.289152 -0.024586 -9.610062
v 0.289152 0.542607 -9.610062
v 1.700694 0.542607 -9.610062
v 1.700694 -0.591770 -9.610062
v 0.289152 -0.591770 -9.610062
v -0.289152 -0.024586 -9.610062
v -0.289152 -0.591770 -9.610062
v -0.289152 0.542607 -9.610062
v -1.700694 -0.024586 -9.610062
v -1.700694 -0.591770 -9.610062
v -1.700694 0.542607 -9.610062
v -1.700694 -0.740447 -10.559122
v 1.700694 -0.740447 -10.559122
v -1.700694 0.691284 -10.559122
v 1.700694 0.691284 -10.559122
v 0.289152 -0.740447 -10.559122
v 0.289152 0.691284 -10.559122
v -0.289152 0.691284 -10.559122
v -0.289152 -0.740447 -10.559122
v 0.289152 0.542607 -10.559122
v 1.700694 0.542607 -10.559122
v 1.700694 -0.591770 -10.559122
v 0.289152 -0.591770 -10.559122
v -0.289152 -0.591770 -10.559122
v -0.289152 0.542607 -10.559122
v -1.700694 -0.591770 -10.559122
v -1.700694 0.542607 -10.559122
v 0.994923 0.744785 -9.610062
v 0.994923 0.595176 -11.211456
v 0.994923 0.542607 -9.610062
v 0.994923 -0.591770 -9.610062
v 0.994923 0.561856 -11.211456
v 0.994923 -0.611019 -11.211456
v 0.994923 -0.644339 -11.211456
v 0.994923 -0.793949 -9.610062
v -0.994923 -0.591770 -9.610062
v -0.994923 0.561856 -11.211456
v -0.994923 0.542607 -9.610062
v -0.994923 0.744785 -9.610062
v -0.994923 -0.793949 -9.610062
v -0.994923 -0.644339 -11.211456
v -0.994923 -0.611019 -11.211456
v -0.994923 0.595176 -11.211456
v 0.994923 0.690986 -10.560192
v 0.994923 -0.591770 -10.559122
v -0.994923 -0.591770 -10.559122
v -0.994923 0.690986 -10.560192
v -0.994923 0.542607 -10.559122
v 0.994923 0.542607 -10.559122
v 0.994923 -0.740150 -10.560192
v -0.994923 -0.740150 -10.560192
vn -0.0262 -0.9994 -0.0245
vn -0.0154 -0.9994 -0.0312
vn -0.0000 -0.9991 -0.0417
vn -0.9895 0.0905 0.1129
vn -0.0000 -1.0000 -0.0000
vn -0.0000 -1.0000 -0.0096
vn 0.9984 -0.0000 0.0566
vn 0.9995 -0.0000 -0.0322
vn 0.9985 -0.0000 0.0555
vn 1.0000 -0.0000 -0.0000
vn -0.0000 -1.0000 -0.0095
vn -0.0000 -1.0000 -0.0048
vn 0.9895 0.0905 0.1129
vn -0.0000 1.0000 -0.0000
vn 0.0011 1.0000 -0.0018
vn 0.5760 -0.8169 -0.0287
vn 1.0000 -0.0000 0.0076
vn 1.0000 -0.0000 0.0064
vn -1.0000 -0.0000 0.0076
vn -0.9625 -0.2627 0.0680
vn -0.9921 -0.0000 0.1253
vn 0.9921 -0.0000 0.1253
vn 0.0262 -0.9994 -0.0245
vn 0.0154 -0.9994 -0.0312
vn 0.0038 -1.0000 0.0045
vn 0.9888 -0.0000 0.1493
vn -0.9941 -0.0953 0.0517
vn -0.0118 0.9999 0.0086
vn -0.0027 1.0000 0.0093
vn -0.0000 1.0000 0.0100
vn -0.9985 -0.0000 0.0555
vn -0.9982 -0.0000 0.0600
vn -0.9888 -0.0000 0.1493
vn 0.0118 0.9999 0.0086
vn 0.0027 1.0000 0.0093
vn 0.9995 -0.0014 0.0308
vn -0.9996 -0.0000 0.0289
vn -0.9996 -0.0000 0.0287
vn 0.9996 -0.0000 0.0289
vn 0.9996 -0.0000 0.0287
vn 0.9992 -0.0000 0.0403
vn -0.9709 0.2270 -0.0764
vn 0.5762 -0.8172 0.0110
vn -0.7271 0.6814 -0.0841
vn -0.7297 0.6838 -0.0000
vn -0.0000 0.9936 -0.1130
vn -0.0878 -0.9961 -0.0131
vn -0.7631 0.6462 0.0078
vn -0.0000 -1.0000 0.0048
vn -0.7575 0.6414 0.1216
vn 0.7015 -0.7124 0.0176
vn 0.6389 -0.7691 -0.0158
vn -0.0000 -0.9995 -0.0326
vn -0.9992 -0.0000 0.0403
vn -0.9995 -0.0000 -0.0322
vn -0.0011 1.0000 -0.0018
vn -0.0038 -1.0000 0.0045
vn -0.9997 -0.0000 0.0247
vn -1.0000 -0.0000 -0.0008
vn -1.0000 -0.0000 -0.0000
vn 0.9961 -0.0000 -0.0881
vn 0.9990 -0.0000 -0.0457
vn 0.0172 -0.9997 -0.0165
vn 0.0034 -0.9998 -0.0187
vn 0.0209 -0.9997 -0.0148
vn -0.0000 0.9933 -0.1157
vn -0.0000 -0.9933 -0.1157
vn -0.0000 0.9902 -0.1396
vn 0.0274 0.9992 -0.0277
vn 0.0103 0.9997 -0.0219
vn 0.0497 0.9981 -0.0352
vn 0.9990 -0.0000 -0.0445
vn -0.0245 0.9994 -0.0236
vn -0.0095 0.9995 -0.0307
vn -0.0298 0.9993 -0.0211
vn -0.9961 -0.0000 -0.0881
vn -0.9990 -0.0000 -0.0457
vn -0.9990 -0.0000 -0.0445
vn -0.0192 -0.9996 -0.0194
vn -0.0036 -0.9999 -0.0156
vn -0.0349 -0.9991 -0.0247
vn 1.0000 -0.0000 0.0038
vn -0.0000 -0.0000 -1.0000
vn -0.0000 -0.9999 -0.0159
vn -0.0000 -0.9999 -0.0158
vn -0.0000 0.9956 -0.0936
vn -0.0000 -0.9940 -0.1097
vn -0.0000 -0.9946 -0.1037
vn -0.0004 -0.9999 -0.0100
vn 0.7803 0.6124 0.1269
vn 0.7292 0.6834 0.0366
vn 0.7271 0.6814 -0.0841
vn 0.7297 0.6838 -0.0000
vn -0.6205 -0.7842 -0.0072
vn -0.6205 -0.7842 -0.0076
vn -0.6204 -0.7843 -0.0002
vn -0.6387 -0.7689 0.0295
vn -0.6205 -0.7842 -0.0000
vn -0.5760 -0.8169 -0.0287
vn 0.6205 -0.7842 -0.0071
vn 0.6205 -0.7842 -0.0000
vn 0.6204 -0.7843 -0.0003
vn -0.5762 -0.8172 0.0110
vn 0.9709 0.2270 -0.0764
vn 0.0878 -0.9961 -0.0131
vn 0.9625 -0.2627 0.0680
vn 0.9941 -0.0953 0.0517
vn -0.7292 0.6834 0.0366
vn -0.7803 0.6124 0.1269
vn 0.6387 -0.7689 0.0295
vn 0.6205 -0.7842 -0.0076
vn -0.0000 0.9998 -0.0184
vn -0.0000 0.9994 -0.0352
vn 0.7575 0.6414 0.1216
vn 0.7631 0.6462 0.0078
vn -0.6389 -0.7691 -0.0158
vn -0.7015 -0.7124 0.0176
vn -0.0000 0.9868 0.1620
vn 0.7835 -0.5798 0.2235
vn 0.9518 -0.0000 0.3066
vn -0.9518 -0.0000 0.3066
vn -0.0000 0.9142 0.4052
vn -0.7473 0.5754 0.3322
vn -0.0000 -0.9862 0.1655
vn -0.0000 -0.9997 0.0232
vn -0.7736 0.5979 0.2098
vn -0.7703 0.6029 0.2077
vn -0.7696 0.6040 0.2071
vn -0.0000 0.9617 0.2740
vn -0.9901 -0.0000 0.1403
vn 0.9901 -0.0000 0.1403
vn 0.8018 -0.5934 0.0706
vn 0.7736 0.5979 0.2098
vn 0.7703 0.6029 0.2077
vn 0.7746 0.5964 0.2104
vn -0.6970 -0.7078 0.1152
vn 0.7473 0.5754 0.3322
vn -0.7835 -0.5798 0.2235
vn -0.7746 0.5964 0.2104
vn 0.6970 -0.7078 0.1152
vn 0.7696 0.6040 0.2071
vn -0.8018 -0.5934 0.0706
vn -0.0000 -0.8791 0.4767
vn -0.0000 0.9996 -0.0295
vn -0.0000 -0.9996 -0.0295
vn 0.0002 0.9894 -0.1455
vn -0.0000 0.9894 -0.1455
vn 0.6788 -0.0000 -0.7344
vn -0.6788 -0.0000 -0.7344
vn -0.0000 -0.9984 -0.0564
vn 0.0002 -0.9984 -0.0564
vn -0.0000 -0.9984 -0.0565
vn -0.0002 -0.9894 -0.1455
vn -0.0000 -0.9894 -0.1455
vn -0.0000 0.9984 -0.0564
vn -0.0002 0.9984 -0.0564
vn -0.0000 0.9984 -0.0565
vn 0.0002 0.9984 -0.0564
vn -0.0000 0.9984 -0.0563
vn -0.0002 0.9894 -0.1455
vn 0.0002 -0.9894 -0.1455
vn -0.0002 -0.9984 -0.0564
vn -0.0000 -0.9984 -0.0563
vt 0.375000 0.000000
vt 0.375000 0.062500
vt 0.375000 0.187500
vt 0.625000 0.125000
vt 0.625000 0.156250
vt 0.375000 0.250000
vt 0.125000 0.562500
vt 0.375000 0.562500
vt 0.625000 0.093750
vt 0.375000 0.125000
vt 0.375000 0.093750
vt 0.375000 0.625000
vt 0.375000 0.656250
vt 0.375000 0.156250
vt 0.625000 0.187500
vt 0.625000 0.062500
vt 0.375000 0.750000
vt 0.375000 1.000000
vt 0.125000 0.687500
vt 0.375000 0.687500
vt 0.375000 0.500000
vt 0.375000 0.593750
vt 0.000000 0.000000
vt 0.281250 0.421875
vt 0.187500 0.281250
vt 0.562500 0.218750
vt 0.500000 0.375000
vt 0.312500 0.062500
vt 0.375000 0.218750
vt 0.375000 0.312500
vt 0.375000 0.375000
vt 0.375000 0.718750
vt 0.375000 0.531250
vt 0.375000 0.812500
vt 0.375000 0.875000
vt 0.375000 0.031250
vt 0.093750 0.140625
vt 0.437500 0.531250
vt 0.375000 0.437500
vt 0.375000 0.937500
vt 0.125000 0.750000
vt 0.125000 0.500000
vt 0.234375 0.226562
vt 0.328125 0.429688
vt 0.187500 0.125000
vt 0.406250 0.671875
vt 0.500000 0.531250
vt 0.468750 0.578125
s 1
usemtl Material.014
f 120/65/211 130/66/212 124/65/213
f 116/67/214 122/67/214 129/67/214
f 112/68/215 168/69/215 114/69/216
f 121/70/217 163/70/218 108/70/219
f 116/71/220 133/72/220 134/71/220
f 119/73/216 111/74/221 214/75/222
f 123/66/223 117/66/223 130/66/223
f 113/76/224 170/77/224 118/77/225
f 184/78/226 114/79/226 116/67/226
f 123/80/227 171/80/228 119/80/227
f 114/79/229 174/67/229 122/67/229
f 133/72/220 138/72/220 141/72/220
f 116/71/230 128/72/230 115/72/230
f 116/67/231 114/79/231 122/67/231
f 119/80/232 117/66/232 123/80/232
f 121/70/233 129/67/234 122/67/235
f 121/70/217 108/70/219 125/70/236
f 109/81/237 124/82/237 126/81/237
f 117/83/220 131/84/220 130/83/220
f 110/85/238 128/72/239 127/85/240
f 107/82/241 120/82/242 124/82/243
f 109/81/244 131/84/245 118/84/225
f 110/85/246 125/70/236 108/70/219
f 142/84/247 136/84/247 148/84/248
f 134/71/249 145/72/250 146/71/251
f 117/83/252 136/84/252 118/84/252
f 184/78/253 116/67/253 134/67/253
f 118/84/254 139/84/254 216/77/254
f 111/74/221 215/75/215 214/75/222
f 139/84/255 217/77/255 216/77/255
f 137/76/224 203/86/224 200/86/224
f 115/86/256 137/76/256 200/86/256
f 136/84/257 139/84/257 118/84/257
f 135/83/247 148/84/248 136/84/247
f 217/77/258 148/84/258 219/77/258
f 143/74/259 220/75/259 218/75/259
f 148/84/260 221/77/260 219/77/260
f 202/78/261 152/67/261 210/78/261
f 185/78/262 146/67/262 202/78/262
f 140/76/224 201/86/224 203/86/224
f 132/74/263 218/75/263 215/75/263
f 133/72/249 141/72/249 145/72/250
f 147/83/264 154/84/264 148/84/248
f 146/71/251 151/72/251 152/71/251
f 107/82/241 172/82/265 120/82/242
f 108/70/219 165/85/218 110/85/246
f 118/84/225 164/81/224 109/81/244
f 115/72/266 165/85/224 169/72/224
f 123/66/267 172/65/215 175/66/215
f 109/81/268 162/82/265 107/82/241
f 122/67/235 173/70/215 121/70/233
f 174/67/229 168/79/269 180/67/270
f 163/70/271 179/85/272 165/85/271
f 174/67/273 177/70/274 173/70/275
f 168/87/269 181/72/270 180/87/270
f 167/76/276 190/77/276 170/77/276
f 166/68/277 188/69/277 168/69/277
f 189/86/278 205/76/278 187/76/278
f 191/80/270 208/84/270 209/80/270
f 181/72/270 226/88/270 225/89/270
f 165/85/279 181/72/280 169/72/281
f 171/80/228 182/84/220 170/84/220
f 163/70/271 173/70/271 177/70/282
f 170/84/283 178/81/284 164/81/285
f 162/82/286 178/81/287 176/82/288
f 172/82/286 162/82/286 176/82/288
f 172/65/289 183/66/290 175/66/291
f 171/80/228 175/80/292 183/80/220
f 187/76/278 208/77/278 190/77/278
f 183/80/220 231/90/220 230/91/220
f 168/87/220 189/72/220 169/72/220
f 171/80/270 190/84/270 191/80/270
f 113/76/224 169/86/224 167/76/224
f 209/73/293 205/76/293 204/68/293
f 204/68/293 207/86/293 206/92/293
f 180/67/294 196/67/295 259/93/295
f 177/70/282 228/94/220 224/95/220
f 188/87/220 207/72/220 189/72/220
f 182/84/296 198/84/296 263/96/296
f 179/85/296 195/85/296 252/97/296
f 178/81/287 235/98/270 233/99/270
f 186/68/297 206/69/298 188/69/277
f 176/65/299 192/65/295 264/100/295
f 169/86/276 187/76/276 167/76/276
f 145/72/300 211/86/300 151/72/300
f 203/86/301 145/72/301 141/72/301
f 132/74/263 202/78/263 143/74/263
f 143/74/259 210/78/259 150/74/259
f 115/86/302 200/86/302 138/72/302
f 200/86/303 141/72/303 138/72/303
f 184/78/215 132/74/215 111/74/221
f 111/74/221 114/69/216 184/78/215
f 191/73/298 204/68/298 186/68/297
f 171/73/277 186/68/297 166/68/277
f 215/75/304 147/66/305 135/66/306
f 218/75/307 153/66/307 147/66/307
f 216/77/224 140/76/224 137/76/224
f 214/75/308 215/75/304 135/66/306
f 118/77/256 137/76/256 113/76/256
f 112/68/215 171/73/215 166/68/215
f 117/66/309 119/73/309 214/75/309
f 185/78/310 184/78/311 134/67/312
f 117/66/313 214/75/313 135/66/313
f 120/65/211 123/66/267 130/66/212
f 112/68/215 166/68/215 168/69/215
f 121/70/217 173/70/218 163/70/218
f 116/71/314 115/72/314 133/72/314
f 119/73/216 112/68/215 111/74/221
f 113/76/224 167/76/224 170/77/224
f 123/80/227 175/80/292 171/80/228
f 114/79/229 168/79/269 174/67/229
f 133/72/315 115/72/315 138/72/315
f 116/71/270 129/71/270 128/72/270
f 121/70/233 125/70/213 129/67/234
f 109/81/268 107/82/241 124/82/243
f 117/83/316 118/84/316 131/84/316
f 110/85/238 115/72/266 128/72/239
f 109/81/244 126/81/240 131/84/245
f 110/85/317 127/85/317 125/70/317
f 134/71/249 133/72/249 145/72/250
f 117/83/270 135/83/270 136/84/270
f 111/74/221 132/74/215 215/75/215
f 139/84/255 142/84/255 217/77/255
f 137/76/224 140/76/224 203/86/224
f 115/86/256 113/76/256 137/76/256
f 136/84/270 142/84/270 139/84/270
f 135/83/247 147/83/264 148/84/248
f 217/77/318 142/84/318 148/84/318
f 143/74/259 150/74/259 220/75/259
f 148/84/319 154/84/319 221/77/319
f 202/78/320 146/67/320 152/67/320
f 185/78/310 134/67/312 146/67/321
f 132/74/263 143/74/263 218/75/263
f 147/83/264 153/83/264 154/84/264
f 146/71/251 145/72/250 151/72/251
f 107/82/241 162/82/265 172/82/265
f 108/70/219 163/70/218 165/85/218
f 118/84/225 170/84/224 164/81/224
f 115/72/266 110/85/238 165/85/224
f 123/66/267 120/65/211 172/65/215
f 109/81/268 164/81/265 162/82/265
f 122/67/235 174/67/215 173/70/215
f 163/70/271 177/70/282 179/85/272
f 174/67/273 180/67/294 177/70/274
f 168/87/269 169/72/270 181/72/270
f 167/76/276 187/76/276 190/77/276
f 166/68/277 186/68/297 188/69/277
f 189/86/278 207/86/278 205/76/278
f 191/80/270 190/84/270 208/84/270
f 196/87/270 180/87/270 229/101/270
f 180/87/270 181/72/270 225/89/270
f 229/101/270 180/87/270 225/89/270
f 181/72/270 197/72/270 226/88/270
f 165/85/279 179/85/322 181/72/280
f 171/80/228 183/80/220 182/84/220
f 170/84/283 182/84/323 178/81/284
f 162/82/286 164/81/286 178/81/287
f 172/65/289 176/65/299 183/66/290
f 187/76/278 205/76/278 208/77/278
f 198/84/220 182/84/220 232/102/220
f 182/84/220 183/80/220 230/91/220
f 232/102/220 182/84/220 230/91/220
f 183/80/220 199/80/220 231/90/220
f 168/87/220 188/87/220 189/72/220
f 171/80/270 170/84/270 190/84/270
f 113/76/224 115/86/266 169/86/224
f 209/73/293 208/77/293 205/76/293
f 204/68/293 205/76/293 207/86/293
f 193/70/295 177/70/274 259/93/295
f 177/70/274 180/67/294 259/93/295
f 195/85/220 179/85/272 227/103/220
f 179/85/272 177/70/282 224/95/220
f 227/103/220 179/85/272 224/95/220
f 177/70/282 193/70/220 228/94/220
f 188/87/220 206/87/220 207/72/220
f 194/81/296 178/81/296 263/96/296
f 178/81/296 182/84/296 263/96/296
f 197/72/296 181/72/296 252/97/296
f 181/72/296 179/85/296 252/97/296
f 192/82/270 176/82/288 234/104/270
f 176/82/288 178/81/287 233/99/270
f 234/104/270 176/82/288 233/99/270
f 178/81/287 194/81/270 235/98/270
f 186/68/297 204/68/298 206/69/298
f 199/66/295 183/66/290 264/100/295
f 183/66/290 176/65/299 264/100/295
f 169/86/276 189/86/276 187/76/276
f 145/72/324 201/86/324 211/86/324
f 203/86/325 201/86/325 145/72/325
f 132/74/263 185/78/263 202/78/263
f 143/74/259 202/78/259 210/78/259
f 200/86/303 203/86/303 141/72/303
f 184/78/215 185/78/215 132/74/215
f 111/74/221 112/68/215 114/69/216
f 191/73/298 209/73/298 204/68/298
f 171/73/277 191/73/298 186/68/297
f 215/75/326 218/75/326 147/66/326
f 218/75/327 220/75/327 153/66/327
f 140/76/224 217/77/224 219/77/224
f 216/77/224 217/77/224 140/76/224
f 118/77/256 216/77/256 137/76/256
f 112/68/215 119/73/216 171/73/215
f 213/78/329 160/67/329 144/74/329
f 160/71/330 158/72/330 144/71/330
f 156/84/331 157/83/331 144/84/331
f 212/86/332 159/76/332 144/72/332
f 223/77/333 156/84/333 144/76/333
f 222/75/334 161/74/334 144/66/334
f 150/74/335 222/75/335 220/75/335
f 154/84/336 223/77/337 221/77/338
f 155/76/339 212/86/339 211/86/339
f 153/83/340 156/84/340 154/84/340
f 152/71/341 158/72/341 160/71/341
f 210/78/342 160/67/342 213/78/342
f 150/74/335 213/78/335 161/74/335
f 151/72/343 212/86/344 158/72/345
f 155/76/339 223/77/339 159/76/339
f 220/75/346 157/66/346 153/66/346
f 159/76/332 223/77/332 144/76/332
f 158/72/347 212/86/347 144/72/347
f 157/66/348 222/75/348 144/66/348
f 161/74/334 213/78/334 144/74/334
f 150/74/335 161/74/335 222/75/335
f 154/84/336 156/84/349 223/77/337
f 155/76/339 159/76/339 212/86/339
f 153/83/340 157/83/340 156/84/340
f 152/71/341 151/72/341 158/72/341
f 210/78/350 152/67/350 160/67/350
f 150/74/335 210/78/335 213/78/335
f 151/72/343 211/86/351 212/86/344
f 155/76/339 221/77/339 223/77/339
f 220/75/352 222/75/352 157/66/352
f 246/94/358 258/109/358 257/107/358
f 251/98/359 267/96/359 261/110/359
f 265/111/358 266/112/358 248/90/358
f 247/101/359 257/107/359 258/109/359
f 250/104/359 266/112/359 265/111/359
usemtl Material.019
f 149/76/328 211/86/328 201/86/328
f 149/76/328 221/77/328 155/76/328
f 140/76/224 219/77/224 149/76/224
f 140/76/224 149/76/224 201/86/224
f 149/76/328 155/76/328 211/86/328
f 149/76/328 219/77/328 221/77/328
usemtl Material.020
f 131/84/353 124/105/353 130/83/353
f 127/85/353 129/71/353 125/106/353
f 131/84/353 126/81/353 124/105/353
f 127/85/353 128/72/353 129/71/353
usemtl Material.021
f 247/101/354 269/107/354 257/107/354
f 229/101/270 240/87/270 196/87/270
f 245/103/355 273/108/355 256/108/355
f 238/81/356 271/96/357 267/96/357
f 253/97/359 244/88/359 241/72/359
f 265/111/358 248/90/358 243/80/358
f 250/104/354 270/112/354 266/112/354
f 249/102/355 272/110/355 261/110/355
f 254/108/215 244/88/215 273/108/215
f 228/94/220 237/70/220 246/94/220
f 232/102/220 242/84/220 198/84/220
f 231/90/220 243/80/220 248/90/220
f 241/72/356 268/97/357 253/97/357
f 226/88/270 241/72/270 244/88/270
f 235/98/270 238/81/270 251/98/270
f 234/104/270 236/82/270 192/82/270
f 227/103/220 239/85/220 195/85/220
f 245/103/358 253/97/358 239/85/358
f 260/112/224 248/90/224 270/112/224
f 259/93/360 240/67/361 274/93/362
f 247/101/359 258/109/359 240/87/359
f 243/66/363 275/100/364 265/100/364
f 264/100/360 236/65/361 275/100/362
f 250/104/359 265/111/359 236/82/359
f 263/96/365 242/84/366 271/96/367
f 262/110/215 251/98/215 272/110/215
f 249/102/358 267/96/358 242/84/358
f 255/107/224 247/101/224 229/101/224
f 263/96/365 238/81/368 194/81/369
f 261/110/355 272/110/355 251/98/355
f 260/112/224 250/104/224 234/104/224
f 257/107/354 269/107/354 246/94/354
f 232/102/215 272/110/215 249/102/215
f 254/108/215 245/103/215 227/103/215
f 267/96/357 271/96/357 242/84/370
f 266/112/354 270/112/354 248/90/354
f 256/108/355 273/108/355 244/88/355
f 252/97/365 239/85/366 268/97/367
f 252/97/365 241/72/368 197/72/369
f 253/97/357 268/97/357 239/85/370
f 255/107/224 246/94/224 269/107/224
f 237/70/363 274/93/364 258/93/364
f 258/93/364 274/93/364 240/67/371
f 259/93/360 237/70/372 193/70/373
f 264/100/360 243/66/372 199/66/373
f 265/100/364 275/100/364 236/65/371
f 229/101/270 247/101/270 240/87/270
f 246/94/358 237/70/358 258/109/358
f 251/98/359 238/81/359 267/96/359
f 253/97/359 256/108/359 244/88/359
f 254/108/215 226/88/215 244/88/215
f 228/94/220 193/70/220 237/70/220
f 232/102/220 249/102/220 242/84/220
f 231/90/220 199/80/220 243/80/220
f 226/88/270 197/72/270 241/72/270
f 235/98/270 194/81/270 238/81/270
f 234/104/270 250/104/270 236/82/270
f 227/103/220 245/103/220 239/85/220
f 245/103/358 256/108/358 253/97/358
f 260/112/224 231/90/224 248/90/224
f 259/93/360 196/67/373 240/67/361
f 264/100/360 192/65/373 236/65/361
f 263/96/365 198/84/369 242/84/366
f 262/110/215 235/98/215 251/98/215
f 249/102/358 261/110/358 267/96/358
f 255/107/224 269/107/224 247/101/224
f 263/96/365 271/96/367 238/81/368
f 260/112/224 270/112/224 250/104/224
f 232/102/215 262/110/215 272/110/215
f 254/108/215 273/108/215 245/103/215
f 252/97/365 195/85/369 239/85/366
f 252/97/365 268/97/367 241/72/368
f 255/107/224 228/94/224 246/94/224
f 259/93/360 274/93/362 237/70/372
f 264/100/360 275/100/362 243/66/372
usemtl Material.022
f 255/107/293 229/101/293 225/89/293
f 262/110/293 232/102/293 230/91/293
f 224/95/293 255/107/293 254/108/293
f 233/99/293 262/110/293 260/112/293
f 226/88/293 254/108/293 225/89/293
f 254/108/293 255/107/293 225/89/293
f 231/90/293 260/112/293 230/91/293
f 260/112/293 262/110/293 230/91/293
f 254/108/293 227/103/293 224/95/293
f 224/95/293 228/94/293 255/107/293
f 260/112/293 234/104/293 233/99/293
f 233/99/293 235/98/293 262/110/293
o Cube.015
v 2.248195 0.771876 5.895530
v 2.248107 0.876571 5.895530
v 2.248195 0.771876 4.010838
v 2.248107 0.876571 4.010838
v 5.602763 2.119592 1.885259
v 5.592310 2.149084 1.885259
v 2.801068 0.995434 2.881807
v 2.772388 1.076370 2.881807
v 5.296645 2.031605 1.571568
v 5.307097 2.002104 1.571568
v 2.248147 0.825908 6.536912
v 2.248147 0.825908 3.323375
v 5.597368 2.134812 1.427047
v 5.597368 2.134812 2.571315
v 2.786265 1.037204 2.278625
v 5.301702 2.017333 1.158029
v 1.920304 0.771578 5.895530
v 1.919323 0.876274 5.895530
v 1.920304 0.771578 4.010838
v 1.919323 0.876274 4.010838
v 1.919797 0.825611 6.536912
v 1.919797 0.825610 3.323375
v -2.248195 0.771876 5.895530
v -2.248107 0.876571 5.895530
v -2.248195 0.771876 4.010838
v -2.248107 0.876571 4.010838
v -5.602763 2.119592 1.885259
v -5.592310 2.149084 1.885259
v -2.801068 0.995434 2.881807
v -2.772388 1.076370 2.881807
v -5.296645 2.031605 1.571568
v -5.307097 2.002104 1.571568
v -2.248147 0.825908 6.536912
v -2.248147 0.825908 3.323375
v -5.597368 2.134812 1.427047
v -5.597368 2.134812 2.571315
v -2.786265 1.037204 2.278625
v -5.301702 2.017333 1.158029
v -1.920304 0.771578 5.895530
v -1.919323 0.876274 5.895530
v -1.920304 0.771578 4.010838
v -1.919323 0.876274 4.010838
v -1.919797 0.825611 6.536912
v -1.919797 0.825610 3.323375
vn -0.0009 1.0000 -0.0000
vn -0.3393 0.9400 -0.0348
vn -0.3401 0.9397 -0.0366
vn 0.9426 0.3341 -0.0000
vn 0.9426 0.3340 -0.0000
vn 0.3721 -0.9282 -0.0008
vn 0.3709 -0.9287 -0.0018
vn 0.3719 -0.9283 -0.0018
vn -0.3555 0.9347 0.0001
vn -0.3561 0.9344 -0.0000
vn -0.3600 0.9329 -0.0040
vn -0.3555 0.9347 -0.0009
vn 0.3749 -0.9271 -0.0000
vn 0.3743 -0.9273 -0.0001
vn -0.4756 0.8771 -0.0671
vn -0.4745 0.8778 -0.0655
vn -0.4761 0.8768 -0.0679
vn -0.2841 0.9558 0.0755
vn -0.3629 0.9318 -0.0069
vn -0.3769 0.9255 -0.0366
vn 0.3385 -0.9381 -0.0733
vn 0.3967 -0.9176 0.0235
vn 0.2381 -0.9684 -0.0737
vn 0.2368 -0.9686 -0.0754
vn 0.2362 -0.9687 -0.0762
vn 0.9425 0.3341 -0.0000
vn 0.4002 -0.9157 -0.0370
vn 0.4010 -0.9154 -0.0351
vn -0.0009 0.9973 -0.0735
vn -1.0000 -0.0094 -0.0000
vn 0.0009 -1.0000 -0.0000
vn 0.0009 -0.9965 0.0839
vn 0.0009 -0.9969 -0.0784
vn -0.0009 0.9969 0.0787
vn -0.3386 0.9404 -0.0330
vn -0.4741 0.8781 -0.0647
vn -0.3323 0.9429 0.0221
vn -0.3841 0.9208 -0.0686
vn 0.3476 -0.9368 -0.0390
vn 0.4392 -0.8952 0.0754
vn 0.2387 -0.9684 -0.0729
vn 0.3994 -0.9160 -0.0389
vn 0.0009 1.0000 -0.0000
vn 0.3393 0.9400 -0.0348
vn 0.3401 0.9397 -0.0366
vn -0.9426 0.3341 -0.0000
vn -0.9426 0.3340 -0.0000
vn -0.3721 -0.9282 -0.0007
vn -0.3719 -0.9283 -0.0018
vn -0.3709 -0.9287 -0.0018
vn 0.3555 0.9347 0.0001
vn 0.3600 0.9329 -0.0040
vn 0.3561 0.9344 -0.0000
vn 0.3555 0.9347 -0.0009
vn -0.3749 -0.9271 -0.0000
vn -0.3740 -0.9274 -0.0001
vn 0.4755 0.8772 -0.0669
vn 0.4761 0.8768 -0.0679
vn 0.4745 0.8778 -0.0655
vn 0.2841 0.9558 0.0755
vn 0.3629 0.9318 -0.0069
vn 0.3769 0.9255 -0.0366
vn -0.3385 -0.9381 -0.0733
vn -0.3967 -0.9176 0.0235
vn -0.2381 -0.9684 -0.0738
vn -0.2362 -0.9687 -0.0762
vn -0.2368 -0.9686 -0.0754
vn -0.9425 0.3341 -0.0000
vn -0.4002 -0.9157 -0.0370
vn -0.4010 -0.9154 -0.0351
vn 0.0009 0.9973 -0.0735
vn 1.0000 -0.0094 -0.0000
vn -0.0009 -1.0000 -0.0000
vn -0.0009 -0.9965 0.0839
vn -0.0009 -0.9969 -0.0784
vn 0.0009 0.9969 0.0787
vn 0.3386 0.9404 -0.0330
vn 0.4741 0.8781 -0.0647
vn 0.3323 0.9429 0.0221
vn 0.3841 0.9208 -0.0686
vn -0.3476 -0.9368 -0.0390
vn -0.4392 -0.8952 0.0754
vn -0.2387 -0.9684 -0.0729
vn -0.3994 -0.9160 -0.0389
vt 0.875000 0.500000
vt 0.838178 0.750000
vt 0.625000 0.395349
vt 0.504028 0.500000
vt 0.504028 0.395349
vt 0.625000 0.750000
vt 0.504028 0.750000
vt 0.270349 0.500000
vt 0.375000 0.750000
vt 0.270349 0.750000
vt 0.838178 0.500000
vt 0.729651 0.500000
vt 0.729651 0.750000
vt 0.125000 0.500000
vt 0.161822 0.500000
vt 0.125000 0.750000
vt 0.504028 0.250000
vt 0.625000 0.286822
vt 0.504028 0.286822
vt 0.625000 0.854651
vt 0.504028 0.854651
vt 0.625000 0.500000
vt 0.161822 0.750000
vt 0.375000 0.395349
vt 0.375000 0.286822
vt 0.375000 0.854651
vt 0.375000 0.250000
vt 0.375000 0.500000
vt 0.625000 0.250000
vt 0.504028 0.000000
vt 0.375000 0.000000
vt 0.625000 0.000000
s 1
usemtl Material.016
f 279/113/374 293/114/374 277/114/374
f 284/115/375 288/116/375 291/117/376
f 288/116/377 281/118/378 289/119/377
f 283/123/382 279/113/383 277/114/384
f 284/124/385 283/123/382 277/125/384
f 278/126/386 282/127/387 276/128/381
f 287/129/388 283/130/389 290/131/390
f 282/127/387 285/120/379 276/135/381
f 290/131/393 284/115/393 291/117/393
f 290/131/394 285/136/394 282/137/394
f 289/119/395 276/138/395 280/121/395
f 287/129/396 282/137/397 278/139/398
f 280/140/399 288/116/377 289/119/377
f 279/141/402 297/129/402 295/141/402
f 296/142/403 295/141/403 297/129/403
f 296/142/403 294/139/403 292/143/403
f 276/128/404 294/126/404 278/126/404
f 286/133/405 292/138/405 276/138/405
f 287/129/406 294/139/406 297/129/406
f 277/132/407 296/133/407 286/133/407
f 279/113/374 295/113/374 293/114/374
f 287/129/388 279/141/409 283/130/389
f 289/119/410 281/118/410 277/132/410
f 290/131/411 283/130/411 284/115/411
f 290/131/412 291/117/412 285/136/412
f 287/129/396 290/131/414 282/137/397
f 285/136/400 291/117/415 288/116/400
f 279/141/402 287/129/402 297/129/402
f 296/142/403 293/144/403 295/141/403
f 296/142/403 297/129/403 294/139/403
f 276/128/404 292/128/404 294/126/404
f 286/133/405 296/133/405 292/138/405
f 287/129/406 278/139/406 294/139/406
f 277/132/407 293/132/407 296/133/407
f 301/113/416 299/114/416 315/114/416
f 306/115/417 313/117/418 310/116/417
f 310/116/419 311/119/419 303/118/420
f 305/123/424 299/114/425 301/113/426
f 306/124/427 299/125/425 305/123/424
f 300/126/428 298/128/422 304/127/429
f 309/129/430 312/131/431 305/130/432
f 304/127/429 298/135/422 307/120/421
f 312/131/435 313/117/435 306/115/435
f 312/131/436 304/137/436 307/136/436
f 311/119/437 302/121/437 298/138/437
f 309/129/438 300/139/439 304/137/440
f 302/140/441 311/119/419 310/116/419
f 301/141/444 317/141/444 319/129/444
f 318/142/445 319/129/445 317/141/445
f 318/142/445 314/143/445 316/139/445
f 298/128/446 300/126/446 316/126/446
f 308/133/447 298/138/447 314/138/447
f 309/129/448 319/129/448 316/139/448
f 299/132/449 308/133/449 318/133/449
f 301/113/416 315/114/416 317/113/416
f 309/129/430 305/130/432 301/141/451
f 311/119/452 299/132/452 303/118/452
f 312/131/453 306/115/453 305/130/453
f 312/131/454 307/136/454 313/117/454
f 309/129/438 304/137/440 312/131/456
f 307/136/442 310/116/442 313/117/457
f 301/141/444 319/129/444 309/129/444
f 318/142/445 317/141/445 315/144/445
f 318/142/445 316/139/445 319/129/445
f 298/128/446 316/126/446 314/128/446
f 308/133/447 314/138/447 318/133/447
f 309/129/448 316/139/448 300/139/448
f 299/132/449 318/133/449 315/132/449
usemtl Material.025
f 285/120/379 280/121/380 276/122/381
f 289/119/391 277/132/391 286/133/391
f 281/134/392 284/124/385 277/125/384
f 285/136/400 288/116/400 280/140/401
f 284/115/375 281/134/408 288/116/375
f 289/119/413 286/133/413 276/138/413
f 307/120/421 298/122/422 302/121/423
f 311/119/433 308/133/433 299/132/433
f 303/134/434 299/125/425 306/124/427
f 307/136/442 302/140/443 310/116/442
f 306/115/417 310/116/417 303/134/450
f 311/119/455 298/138/455 308/133/455
