# Blender 5.0.1
# www.blender.org
mtllib Gf-1V.mtl
o Cube
v 4.393929 0.901536 -4.581009
v 4.393929 -0.901523 -4.581009
v 4.393929 0.901536 -2.069724
v 4.393929 -1.417797 -2.069724
v 1.882644 0.901536 -4.581009
v 1.882644 -0.901523 -4.581009
v 1.882644 0.901536 -2.069724
v 1.882644 -1.417797 -2.069724
v 4.393929 0.787899 4.013656
v 4.393929 -1.781165 5.374088
v 1.882644 0.787899 4.013656
v 1.882644 -1.781165 5.374088
v 4.393929 0.000007 -4.581009
v 1.882644 0.000007 -2.069724
v 4.393929 0.000007 -2.069724
v 1.882644 0.000007 -4.581009
v 1.882644 0.000007 5.383240
v 4.393929 0.000007 5.383240
v 1.882644 0.787899 -2.069724
v 4.393929 0.787899 -4.581009
v 4.393929 0.787899 -2.069724
v 1.882644 0.787899 -4.581009
v 4.393929 -0.787792 -4.581009
v 4.393929 -1.304066 -2.069724
v 1.882644 -0.787792 -4.581009
v 4.393929 -1.667434 5.374088
v 1.882644 -1.304066 -2.069724
v 1.882644 -1.667434 5.374088
v 3.138286 -0.901523 -4.581009
v 3.138286 0.901536 -2.069724
v 3.138286 -1.417797 -2.069724
v 3.138286 0.901536 -4.581009
v 3.138286 0.787899 4.013656
v 3.138286 -1.781165 5.374088
v 3.138286 0.000007 5.383240
v 3.138286 0.000007 -4.581009
v 3.138286 0.787899 -4.581009
v 3.138286 -0.787792 -4.581009
v 4.234882 -1.417797 -2.069724
v 4.234882 0.901536 -4.581009
v 4.234882 -1.781165 5.374088
v 4.234882 0.000007 -4.581009
v 4.234882 0.787899 -4.581009
v 4.234882 -0.787792 -4.581009
v 4.234882 -0.901523 -4.581009
v 4.234882 0.901536 -2.069724
v 4.234882 0.787899 4.013656
v 4.234882 0.000007 5.383240
v 2.041690 -0.901523 -4.581009
v 2.041690 0.901536 -2.069724
v 2.041690 0.787899 4.013656
v 2.041690 0.000007 5.383240
v 2.041690 -1.417797 -2.069724
v 2.041690 0.901536 -4.581009
v 2.041690 -1.781165 5.374088
v 2.041690 0.000007 -4.581009
v 2.041690 0.787899 -4.581009
v 2.041690 -0.787792 -4.581009
v 4.066866 0.901536 -2.069724
v 4.066866 0.787899 4.013656
v 4.066866 0.000007 5.383240
v 4.066866 -1.417797 -2.069724
v 4.066866 -1.781165 5.374088
v 2.209306 -1.417797 -2.069724
v 2.209306 -1.781165 5.374088
v 2.209306 0.901536 -2.069724
v 2.209306 0.787899 4.013656
v 2.209306 0.000007 5.383240
v 4.393929 0.603725 -7.777191
v 4.393929 -0.603632 -7.777191
v 1.882644 0.603725 -7.777191
v 1.882644 -0.603632 -7.777191
v 4.393929 0.000012 -8.766174
v 1.882644 0.000012 -8.766174
v 4.234882 0.603725 -7.777191
v 4.234882 0.000012 -8.766174
v 4.234882 -0.603632 -7.777191
v 2.041690 -0.603632 -7.777191
v 2.041690 0.603725 -7.777191
v 2.041690 0.000012 -8.766174
v 3.138305 -0.725121 -6.421055
v 3.138305 0.725148 -6.421055
v 3.138305 0.633746 -6.033832
v 3.138305 -0.633642 -6.033832
v 4.197960 -0.597437 -7.674021
v 4.197960 0.597462 -7.674021
v 4.197960 0.522155 -7.286798
v 4.197960 -0.522066 -7.286798
v 2.078193 0.597462 -7.674021
v 2.078193 0.522155 -7.286798
v 2.078193 -0.522066 -7.286798
v 2.078193 -0.597437 -7.674021
v 4.393929 -1.667433 7.028690
v 1.882644 -1.667433 7.028690
v 1.882644 0.000009 9.974668
v 4.393929 0.000009 9.974668
v 3.138286 -1.667433 7.028690
v 3.138286 0.000009 9.974668
v 4.234882 -1.667433 7.028690
v 4.234882 0.000009 9.974668
v 2.041690 0.000009 9.974668
v 2.041690 -1.667433 7.028690
v 4.066866 0.000009 9.974668
v 4.066866 -1.667433 7.028690
v 2.209306 -1.667433 7.028690
v 2.209306 0.000009 9.974668
v -4.393929 0.901536 -4.581009
v -4.393929 -0.901523 -4.581009
v -4.393929 0.901536 -2.069724
v -4.393929 -1.417797 -2.069724
v -1.882644 0.901536 -4.581009
v -1.882644 -0.901523 -4.581009
v -1.882644 0.901536 -2.069724
v -1.882644 -1.417797 -2.069724
v -4.393929 0.787899 4.013656
v -4.393929 -1.781165 5.374088
v -1.882644 0.787899 4.013656
v -1.882644 -1.781165 5.374088
v -4.393929 0.000007 -4.581009
v -1.882644 0.000007 -2.069724
v -4.393929 0.000007 -2.069724
v -1.882644 0.000007 -4.581009
v -1.882644 0.000007 5.383240
v -4.393929 0.000007 5.383240
v -1.882644 0.787899 -2.069724
v -4.393929 0.787899 -4.581009
v -4.393929 0.787899 -2.069724
v -1.882644 0.787899 -4.581009
v -4.393929 -0.787792 -4.581009
v -4.393929 -1.304066 -2.069724
v -1.882644 -0.787792 -4.581009
v -4.393929 -1.667434 5.374088
v -1.882644 -1.304066 -2.069724
v -1.882644 -1.667434 5.374088
v -3.138286 -0.901523 -4.581009
v -3.138286 0.901536 -2.069724
v -3.138286 -1.417797 -2.069724
v -3.138286 0.901536 -4.581009
v -3.138286 0.787899 4.013656
v -3.138286 -1.781165 5.374088
v -3.138286 0.000007 5.383240
v -3.138286 0.000007 -4.581009
v -3.138286 0.787899 -4.581009
v -3.138286 -0.787792 -4.581009
v -4.234882 -1.417797 -2.069724
v -4.234882 0.901536 -4.581009
v -4.234882 -1.781165 5.374088
v -4.234882 0.000007 -4.581009
v -4.234882 0.787899 -4.581009
v -4.234882 -0.787792 -4.581009
v -4.234882 -0.901523 -4.581009
v -4.234882 0.901536 -2.069724
v -4.234882 0.787899 4.013656
v -4.234882 0.000007 5.383240
v -2.041690 -0.901523 -4.581009
v -2.041690 0.901536 -2.069724
v -2.041690 0.787899 4.013656
v -2.041690 0.000007 5.383240
v -2.041690 -1.417797 -2.069724
v -2.041690 0.901536 -4.581009
v -2.041690 -1.781165 5.374088
v -2.041690 0.000007 -4.581009
v -2.041690 0.787899 -4.581009
v -2.041690 -0.787792 -4.581009
v -4.066866 0.901536 -2.069724
v -4.066866 0.787899 4.013656
v -4.066866 0.000007 5.383240
v -4.066866 -1.417797 -2.069724
v -4.066866 -1.781165 5.374088
v -2.209306 -1.417797 -2.069724
v -2.209306 -1.781165 5.374088
v -2.209306 0.901536 -2.069724
v -2.209306 0.787899 4.013656
v -2.209306 0.000007 5.383240
v -4.393929 0.603725 -7.777191
v -4.393929 -0.603632 -7.777191
v -1.882644 0.603725 -7.777191
v -1.882644 -0.603632 -7.777191
v -4.393929 0.000012 -8.766174
v -1.882644 0.000012 -8.766174
v -4.234882 0.603725 -7.777191
v -4.234882 0.000012 -8.766174
v -4.234882 -0.603632 -7.777191
v -2.041690 -0.603632 -7.777191
v -2.041690 0.603725 -7.777191
v -2.041690 0.000012 -8.766174
v -3.138305 -0.725121 -6.421055
v -3.138305 0.725148 -6.421055
v -3.138305 0.633746 -6.033832
v -3.138305 -0.633642 -6.033832
v -4.197960 -0.597437 -7.674021
v -4.197960 0.597462 -7.674021
v -4.197960 0.522155 -7.286798
v -4.197960 -0.522066 -7.286798
v -2.078193 0.597462 -7.674021
v -2.078193 0.522155 -7.286798
v -2.078193 -0.522066 -7.286798
v -2.078193 -0.597437 -7.674021
v -4.393929 -1.667433 7.028690
v -1.882644 -1.667433 7.028690
v -1.882644 0.000009 9.974668
v -4.393929 0.000009 9.974668
v -3.138286 -1.667433 7.028690
v -3.138286 0.000009 9.974668
v -4.234882 -1.667433 7.028690
v -4.234882 0.000009 9.974668
v -2.041690 0.000009 9.974668
v -2.041690 -1.667433 7.028690
v -4.066866 0.000009 9.974668
v -4.066866 -1.667433 7.028690
v -2.209306 -1.667433 7.028690
v -2.209306 0.000009 9.974668
vn -0.0000 1.0000 -0.0000
vn 1.0000 -0.0000 -0.0000
vn -1.0000 -0.0000 -0.0000
vn -0.0000 -0.9795 -0.2014
vn -0.0000 -0.9921 -0.1254
vn -0.0000 -0.9957 -0.0928
vn -0.0000 -0.9988 -0.0488
vn -0.0000 0.9998 0.0187
vn -0.0000 0.8668 0.4987
vn -0.0000 0.9957 -0.0928
vn -0.9997 -0.0215 -0.0105
vn -0.0000 -0.9976 0.0686
vn -0.0000 -0.8536 -0.5210
vn -0.0000 0.8535 -0.5210
vn -0.9997 0.0215 -0.0105
vn 0.9997 -0.0217 -0.0106
vn 0.9997 0.0217 -0.0106
vn -0.0000 -0.8703 0.4926
vn 0.9997 -0.0215 -0.0105
vn 0.9997 0.0215 -0.0105
vn -0.9997 -0.0217 -0.0106
vn -0.9997 0.0217 -0.0106
vn -0.0026 0.9953 -0.0970
vn -0.0000 0.9953 -0.0970
vn -0.0000 -0.9949 0.1004
vn -0.0068 -0.9949 0.1004
vn -0.0000 0.9949 0.1004
vn 0.0069 0.9949 0.1004
vn 0.3381 0.9200 -0.1982
vn 0.3379 -0.9201 -0.1981
vn -0.3381 -0.9201 -0.1981
vn -0.3382 0.9200 -0.1982
vn -0.0069 0.9949 0.1004
vn -0.0000 -0.9953 -0.0970
vn -0.0026 -0.9953 -0.0970
vn 0.0026 -0.9953 -0.0970
vn 0.0069 -0.9949 0.1004
vn 0.0026 0.9953 -0.0970
vn 0.0068 -0.9949 0.1004
vn -0.3381 0.9200 -0.1982
vn -0.3379 -0.9201 -0.1981
vn 0.3381 -0.9201 -0.1981
vn 0.3382 0.9200 -0.1982
vn -0.0069 -0.9949 0.1004
vn -0.0000 -0.0000 -1.0000
vt 0.812500 0.500000
vt 0.875000 0.500000
vt 0.875000 0.750000
vt 0.812500 0.750000
vt 0.562513 0.750000
vt 0.625000 0.750000
vt 0.562513 0.000000
vt 0.625000 0.000000
vt 0.625000 0.250000
vt 0.562513 0.250000
vt 0.312500 0.500000
vt 0.375000 0.500000
vt 0.375000 0.750000
vt 0.312500 0.750000
vt 0.562513 0.500000
vt 0.625000 0.500000
vt 0.187500 0.500000
vt 0.125000 0.500000
vt 0.437500 0.000000
vt 0.375000 0.000000
vt 0.500000 0.000000
vt 0.500000 0.812500
vt 0.500000 0.843750
vt 0.500000 0.250000
vt 0.437500 0.500000
vt 0.500000 0.500000
vt 0.500000 0.750000
vt 0.437500 0.750000
vt 0.437500 0.250000
vt 0.500000 0.937500
vt 0.562513 0.937500
vt 0.562513 1.000000
vt 0.500000 1.000000
vt 0.500000 0.312500
vt 0.437500 0.312500
vt 0.375000 0.250000
vt 0.718750 0.750000
vt 0.750000 0.750000
vt 0.218727 0.750000
vt 0.250000 0.750000
vt 0.562513 0.343727
vt 0.625000 0.343727
vt 0.218727 0.500000
vt 0.250000 0.500000
vt 0.718750 0.500000
vt 0.750000 0.500000
vt 0.687500 0.500000
vt 0.687500 0.750000
vt 0.125000 0.750000
vt 0.187500 0.750000
vt 0.562513 0.812500
vt 0.281250 0.750000
vt 0.625000 0.312500
vt 0.562513 0.312500
vt 0.562513 0.437500
vt 0.625000 0.437500
vt 0.500000 0.906273
vt 0.562513 0.906273
vt 0.781273 0.750000
vt 0.281250 0.500000
vt 0.562513 0.843750
vt 0.781273 0.500000
vt 0.437500 0.437500
vt 0.500000 0.437500
vt 0.375000 0.437500
vt 0.375000 0.312500
vt 0.375000 0.343727
vt 0.437500 0.343727
vt 0.625000 0.406250
vt 0.562513 0.406250
vt 0.437500 0.406250
vt 0.375000 0.406250
vt 0.437500 0.937500
vt 0.437500 1.000000
vt 0.437500 0.812500
vt 0.437500 0.906273
vt 0.437500 0.843750
vt 0.500000 0.875000
vt 0.562513 0.875000
vt 0.437500 0.875000
vt 0.562513 0.375000
vt 0.437500 0.375000
vt 0.375000 0.375000
vt 0.625000 0.375000
vt 0.500000 0.343727
vt 0.500000 0.375000
vt 0.500000 0.406250
s 1
usemtl Material.001
f 54/1/1 5/2/1 7/3/1 50/4/1
f 21/5/2 3/6/2 9/5/2
f 19/7/3 7/8/3 5/9/3 22/10/3
f 45/11/4 2/12/4 4/13/5 39/14/5
f 20/15/2 1/16/2 3/6/2 21/5/2
f 49/17/6 6/18/6 72/18/6 78/17/6
f 27/19/3 8/20/3 12/20/3 28/19/3
f 39/14/5 4/13/5 10/13/7 41/14/7
f 50/4/8 7/3/8 11/3/8 51/4/8
f 19/7/3 14/21/3 17/21/3 11/7/3
f 48/22/1 61/23/1 103/23/1 100/22/1
f 16/24/3 22/10/3 71/10/3 74/24/3
f 23/25/2 13/26/2 15/27/2 24/28/2
f 27/19/3 14/21/3 16/24/3 25/29/3
f 24/28/2 15/27/2 18/27/2 26/28/2
f 7/8/3 19/7/3 11/8/3
f 52/30/9 51/31/9 11/32/9 17/33/9
f 56/34/2 58/35/2 78/35/2 80/34/2
f 13/26/2 20/15/2 21/5/2 15/27/2
f 14/21/3 19/7/3 22/10/3 16/24/3
f 15/27/2 21/5/2 9/5/2 18/27/2
f 4/13/2 24/28/2 26/28/2 10/13/2
f 8/20/3 27/19/3 25/29/3 6/36/3
f 2/12/2 23/25/2 24/28/2 4/13/2
f 5/2/10 54/1/10 79/1/10 71/2/10
f 10/13/2 26/28/2 93/13/2
f 14/21/3 27/19/3 28/19/3 17/21/3
f 52/30/1 17/33/1 95/33/1 101/30/1
f 18/27/1 48/22/1 100/22/1 96/27/1
f 59/37/8 30/38/8 33/38/8 60/37/8
f 64/39/5 31/40/5 34/40/7 65/39/7
f 57/41/11 54/42/11 89/42/11 90/41/11
f 49/43/4 29/44/4 31/40/5 64/39/5
f 40/45/1 32/46/1 30/38/1 59/37/1
f 1/16/1 40/47/1 46/48/1 3/6/1
f 3/6/8 46/48/8 47/48/8 9/6/8
f 12/49/12 55/50/12 102/50/12 94/49/12
f 18/27/9 9/5/9 47/51/9 48/22/9
f 28/19/3 12/20/3 94/19/3
f 62/52/5 39/14/5 41/14/7 63/52/7
f 45/11/4 39/14/5 62/52/5
f 6/18/4 49/17/4 53/50/5 8/49/5
f 13/26/2 23/25/2 70/25/2 73/26/2
f 8/49/5 53/50/5 55/50/7 12/49/7
f 22/10/3 5/9/3 71/10/3
f 54/53/2 57/54/2 79/53/2
f 43/55/3 40/56/3 75/55/3
f 34/40/12 63/52/12 104/52/12 97/40/12
f 68/57/9 67/58/9 51/31/9 52/30/9
f 55/50/12 65/39/12 105/39/12 102/50/12
f 66/59/8 50/4/8 51/4/8 67/59/8
f 54/1/1 50/4/1 66/59/1
f 29/44/4 45/60/4 62/52/5 31/40/5
f 31/40/5 62/52/5 63/52/7 34/40/7
f 40/45/1 59/37/1 46/48/1
f 46/48/8 59/37/8 60/37/8 47/48/8
f 17/21/3 28/19/3 94/19/3 95/21/3
f 48/22/9 47/51/9 60/61/9 61/23/9
f 26/28/2 18/27/2 96/27/2 93/28/2
f 32/46/1 54/62/1 66/59/1 30/38/1
f 30/38/8 66/59/8 67/59/8 33/38/8
f 41/14/12 10/13/12 93/13/12 99/14/12
f 63/52/12 41/14/12 99/14/12 104/52/12
f 49/43/4 64/39/5 53/50/5
f 53/50/5 64/39/5 65/39/7 55/50/7
f 77/63/13 76/64/13 73/26/13 70/25/13
f 76/64/14 75/55/14 69/15/14 73/26/14
f 72/29/13 74/24/13 80/34/13 78/35/13
f 74/24/14 71/10/14 79/54/14 80/34/14
f 57/54/2 56/34/2 80/34/2 79/54/2
f 25/29/3 16/24/3 74/24/3 72/29/3
f 45/65/3 44/63/3 77/65/3
f 23/25/2 2/12/2 70/25/2
f 58/35/2 49/66/2 78/35/2
f 40/47/10 1/16/10 69/16/10 75/47/10
f 42/64/3 43/55/3 75/55/3 76/64/3
f 44/63/3 42/64/3 76/64/3 77/63/3
f 1/16/2 20/15/2 69/16/2
f 2/12/6 45/11/6 77/11/6 70/12/6
f 6/36/3 25/29/3 72/36/3
f 20/15/2 13/26/2 73/26/2 69/15/2
f 49/67/15 58/68/15 91/68/15 92/67/15
f 40/69/16 43/70/16 87/70/16 86/69/16
f 44/71/17 45/72/17 85/72/17 88/71/17
f 102/73/18 101/30/18 95/33/18 94/74/18
f 93/28/18 96/27/18 100/22/18 99/75/18
f 105/76/18 106/57/18 101/30/18 102/73/18
f 99/75/18 100/22/18 103/23/18 104/77/18
f 68/57/1 52/30/1 101/30/1 106/57/1
f 65/39/12 34/40/12 97/40/12 105/39/12
f 35/78/1 68/57/1 106/57/1 98/78/1
f 61/23/1 35/78/1 98/78/1 103/23/1
f 160/1/1 156/4/1 113/3/1 111/2/1
f 127/5/3 115/5/3 109/6/3
f 125/7/2 128/10/2 111/9/2 113/8/2
f 151/11/4 145/14/5 110/13/5 108/12/4
f 126/15/3 127/5/3 109/6/3 107/16/3
f 155/17/6 184/17/6 178/18/6 112/18/6
f 133/19/2 134/19/2 118/20/2 114/20/2
f 145/14/5 147/14/7 116/13/7 110/13/5
f 156/4/8 157/4/8 117/3/8 113/3/8
f 125/7/2 117/7/2 123/21/2 120/21/2
f 154/22/1 206/22/1 209/23/1 167/23/1
f 122/24/2 180/24/2 177/10/2 128/10/2
f 129/25/3 130/28/3 121/27/3 119/26/3
f 133/19/2 131/29/2 122/24/2 120/21/2
f 130/28/3 132/28/3 124/27/3 121/27/3
f 113/8/2 117/8/2 125/7/2
f 158/30/9 123/33/9 117/32/9 157/31/9
f 162/34/3 186/34/3 184/35/3 164/35/3
f 119/26/3 121/27/3 127/5/3 126/15/3
f 120/21/2 122/24/2 128/10/2 125/7/2
f 121/27/3 124/27/3 115/5/3 127/5/3
f 110/13/3 116/13/3 132/28/3 130/28/3
f 114/20/2 112/36/2 131/29/2 133/19/2
f 108/12/3 110/13/3 130/28/3 129/25/3
f 111/2/10 177/2/10 185/1/10 160/1/10
f 116/13/3 199/13/3 132/28/3
f 120/21/2 123/21/2 134/19/2 133/19/2
f 158/30/1 207/30/1 201/33/1 123/33/1
f 124/27/1 202/27/1 206/22/1 154/22/1
f 165/37/8 166/37/8 139/38/8 136/38/8
f 170/39/5 171/39/7 140/40/7 137/40/5
f 163/41/19 196/41/19 195/42/19 160/42/19
f 155/43/4 170/39/5 137/40/5 135/44/4
f 146/45/1 165/37/1 136/38/1 138/46/1
f 107/16/1 109/6/1 152/48/1 146/47/1
f 109/6/8 115/6/8 153/48/8 152/48/8
f 118/49/12 200/49/12 208/50/12 161/50/12
f 124/27/9 154/22/9 153/51/9 115/5/9
f 134/19/2 200/19/2 118/20/2
f 168/52/5 169/52/7 147/14/7 145/14/5
f 151/11/4 168/52/5 145/14/5
f 112/18/4 114/49/5 159/50/5 155/17/4
f 119/26/3 179/26/3 176/25/3 129/25/3
f 114/49/5 118/49/7 161/50/7 159/50/5
f 128/10/2 177/10/2 111/9/2
f 160/53/3 185/53/3 163/54/3
f 149/55/2 181/55/2 146/56/2
f 140/40/12 203/40/12 210/52/12 169/52/12
f 174/57/9 158/30/9 157/31/9 173/58/9
f 161/50/12 208/50/12 211/39/12 171/39/12
f 172/59/8 173/59/8 157/4/8 156/4/8
f 160/1/1 172/59/1 156/4/1
f 135/44/4 137/40/5 168/52/5 151/60/4
f 137/40/5 140/40/7 169/52/7 168/52/5
f 146/45/1 152/48/1 165/37/1
f 152/48/8 153/48/8 166/37/8 165/37/8
f 123/21/2 201/21/2 200/19/2 134/19/2
f 154/22/9 167/23/9 166/61/9 153/51/9
f 132/28/3 199/28/3 202/27/3 124/27/3
f 138/46/1 136/38/1 172/59/1 160/62/1
f 136/38/8 139/38/8 173/59/8 172/59/8
f 147/14/12 205/14/12 199/13/12 116/13/12
f 169/52/12 210/52/12 205/14/12 147/14/12
f 155/43/4 159/50/5 170/39/5
f 159/50/5 161/50/7 171/39/7 170/39/5
f 183/63/13 176/25/13 179/26/13 182/64/13
f 182/64/14 179/26/14 175/15/14 181/55/14
f 178/29/13 184/35/13 186/34/13 180/24/13
f 180/24/14 186/34/14 185/54/14 177/10/14
f 163/54/3 185/54/3 186/34/3 162/34/3
f 131/29/2 178/29/2 180/24/2 122/24/2
f 151/65/2 183/65/2 150/63/2
f 129/25/3 176/25/3 108/12/3
f 164/35/3 184/35/3 155/66/3
f 146/47/10 181/47/10 175/16/10 107/16/10
f 148/64/2 182/64/2 181/55/2 149/55/2
f 150/63/2 183/63/2 182/64/2 148/64/2
f 107/16/3 175/16/3 126/15/3
f 108/12/6 176/12/6 183/11/6 151/11/6
f 112/36/2 178/36/2 131/29/2
f 126/15/3 175/15/3 179/26/3 119/26/3
f 155/67/20 198/67/20 197/68/20 164/68/20
f 146/69/21 192/69/21 193/70/21 149/70/21
f 150/71/22 194/71/22 191/72/22 151/72/22
f 208/73/18 200/74/18 201/33/18 207/30/18
f 199/28/18 205/75/18 206/22/18 202/27/18
f 211/76/18 208/73/18 207/30/18 212/57/18
f 205/75/18 210/77/18 209/23/18 206/22/18
f 174/57/1 212/57/1 207/30/1 158/30/1
f 171/39/12 211/39/12 203/40/12 140/40/12
f 141/78/1 204/78/1 212/57/1 174/57/1
f 167/23/1 209/23/1 204/78/1 141/78/1
usemtl Material.006
f 61/23/9 60/61/9 33/79/9 35/78/9
f 35/78/9 33/79/9 67/58/9 68/57/9
f 104/77/18 103/23/18 98/78/18 97/80/18
f 97/80/18 98/78/18 106/57/18 105/76/18
f 167/23/9 141/78/9 139/79/9 166/61/9
f 141/78/9 174/57/9 173/58/9 139/79/9
f 210/77/18 203/80/18 204/78/18 209/23/18
f 203/80/18 211/76/18 212/57/18 204/78/18
usemtl Material.007
f 54/62/23 32/46/24 82/46/24 89/62/23
f 37/81/25 57/41/26 90/41/26 83/81/25
f 38/82/27 44/71/28 88/71/28 84/82/27
f 92/67/29 91/68/29 84/82/29 81/83/29
f 90/41/30 89/42/30 82/84/30 83/81/30
f 83/81/31 82/84/31 86/69/31 87/70/31
f 81/83/32 84/82/32 88/71/32 85/72/32
f 58/68/33 38/82/27 84/82/27 91/68/33
f 29/44/34 49/43/35 92/43/35 81/44/34
f 45/60/36 29/44/34 81/44/34 85/60/36
f 43/70/37 37/81/25 83/81/25 87/70/37
f 32/46/24 40/45/38 86/45/38 82/46/24
f 160/62/38 195/62/38 188/46/24 138/46/24
f 143/81/25 189/81/25 196/41/39 163/41/39
f 144/82/27 190/82/27 194/71/33 150/71/33
f 198/67/40 187/83/40 190/82/40 197/68/40
f 196/41/41 189/81/41 188/84/41 195/42/41
f 189/81/42 193/70/42 192/69/42 188/84/42
f 187/83/43 191/72/43 194/71/43 190/82/43
f 164/68/28 197/68/28 190/82/27 144/82/27
f 135/44/34 187/44/34 198/43/36 155/43/36
f 151/60/35 191/60/35 187/44/34 135/44/34
f 149/70/44 193/70/44 189/81/25 143/81/25
f 138/46/24 188/46/24 192/45/23 146/45/23
usemtl engine
f 56/85/45 57/41/45 37/81/45 36/86/45
f 58/68/45 56/85/45 36/86/45 38/82/45
f 38/82/45 36/86/45 42/87/45 44/71/45
f 36/86/45 37/81/45 43/70/45 42/87/45
f 162/85/45 142/86/45 143/81/45 163/41/45
f 164/68/45 144/82/45 142/86/45 162/85/45
f 144/82/45 150/71/45 148/87/45 142/86/45
f 142/86/45 148/87/45 149/70/45 143/81/45
o Cube.002
v -1.215346 0.067001 33.763130
v -1.215346 -1.017875 -4.529723
v -1.215346 0.331864 -4.529723
v 1.215346 0.067001 33.763130
v 1.215346 -1.017875 -4.529723
v 1.215346 0.331864 -4.529723
v -1.708213 -0.317049 -4.529723
v 1.708213 -0.317049 -4.529723
v 0.000000 -1.017875 -4.529723
v 0.000000 0.331864 -4.529723
v 0.000000 0.067001 35.322990
v 0.000000 -0.317051 -7.863444
v -1.215346 -0.633826 31.312731
v -1.215346 0.715912 30.597273
v 1.215346 -0.633826 31.312731
v 1.215346 0.715912 30.597273
v 1.708213 0.066999 30.597273
v -1.708213 0.066999 31.312731
v 0.000000 1.537076 28.472380
v 0.000000 -0.633826 31.312731
v -1.215346 0.715910 10.160561
v 1.215346 -0.633828 10.160561
v -1.708213 0.066997 10.160561
v -1.215346 -0.633828 10.160561
v 1.215346 0.715910 10.160561
v 1.708213 0.066997 10.160561
v 0.000000 0.715910 10.160561
v 0.000000 -0.633828 10.160561
v -1.215346 -0.633828 14.012680
v 1.215346 0.715910 14.012680
v 1.708213 0.066997 14.012680
v 0.000000 0.797457 14.012680
v 0.000000 -0.633828 14.012680
v 1.215346 -0.633828 14.012680
v -1.215346 0.715910 14.012680
v -1.708213 0.066997 14.012680
v 0.000000 0.715912 31.312731
v 0.607673 -0.317051 -7.863444
v 0.607673 -0.633826 31.312731
v 0.607673 -0.633828 10.160561
v 0.607673 -1.017875 -4.529723
v 0.607673 -0.633828 14.012680
v 0.479350 1.288471 28.564434
v 0.607673 0.715912 30.955002
v 0.607673 0.067001 34.543060
v 0.607673 0.331864 -4.529723
v 0.607673 0.756683 14.012680
v 0.607673 0.715910 10.160561
v -0.607673 -0.317051 -7.863444
v -0.607673 0.067001 34.543060
v -0.607673 -0.633826 31.312731
v -0.607673 0.715910 10.160561
v -0.607673 -0.633828 10.160561
v -0.607673 0.331864 -4.529723
v -0.607673 -0.633828 14.012680
v -0.607673 -1.017875 -4.529723
v -0.607673 0.756683 14.012680
v -0.479350 1.288471 28.564434
v -0.607673 0.715912 30.955002
v -1.215346 -0.633826 22.662704
v 1.215346 0.715912 22.304977
v 1.708213 0.066999 22.304977
v 0.000000 1.450222 26.361437
v 0.000000 -0.633826 22.662704
v -1.708213 0.066999 22.662704
v -1.215346 0.715912 22.304977
v 1.215346 -0.633826 22.662704
v 0.479350 1.249710 26.407463
v 0.607673 -0.633826 22.662704
v -0.607673 -0.633826 22.662704
v -0.479350 1.249710 26.407463
vn -0.7962 0.6048 -0.0158
vn -0.0000 0.9816 -0.1911
vn 0.1320 0.9656 0.2242
vn -0.8179 -0.5752 0.0150
vn -0.0000 -0.9786 -0.2057
vn 0.1557 0.9737 0.1663
vn -0.1211 -0.9746 0.1887
vn 0.1519 -0.9596 0.2368
vn 0.7702 0.5850 -0.2543
vn 0.7897 -0.5554 -0.2607
vn -0.1740 0.9671 0.1858
vn -0.5981 0.8014 -0.0030
vn -0.0000 -1.0000 -0.0000
vn 0.8180 -0.5753 -0.0000
vn 0.7963 0.6048 -0.0000
vn 0.7962 0.6048 -0.0158
vn 0.8179 -0.5752 0.0150
vn -0.0000 0.9997 -0.0261
vn -0.0000 -0.9997 0.0261
vn -0.8180 -0.5753 -0.0000
vn -0.7963 0.6048 -0.0000
vn 0.0335 0.9994 -0.0106
vn 0.0335 0.9993 -0.0159
vn -0.0335 0.9994 -0.0106
vn -0.0335 0.9994 -0.0053
vn -0.7065 0.6933 0.1421
vn -0.8071 -0.5676 0.1623
vn -0.1320 0.9656 0.2242
vn 0.8702 -0.4737 0.1355
vn 0.7903 0.6002 0.1230
vn 0.0335 0.9994 -0.0053
vn 0.5981 0.8014 -0.0030
vn 0.1211 -0.9746 0.1887
vn 0.1740 0.9671 0.1858
vn -0.0335 0.9993 -0.0159
vn -0.1557 0.9737 0.1663
vn -0.7702 0.5850 -0.2543
vn -0.1519 -0.9596 0.2368
vn -0.2183 0.9749 -0.0440
vn 0.3401 0.9402 -0.0203
vn 0.2183 0.9749 -0.0440
vn -0.3401 0.9402 -0.0203
vn -0.7897 -0.5554 -0.2607
vn 0.4272 0.9038 -0.0266
vn 0.2721 0.9315 0.2415
vn -0.2721 0.9315 0.2415
vn -0.4272 0.9038 -0.0266
vt 0.504808 0.137159
vt 0.625000 0.137159
vt 0.625000 0.250000
vt 0.504808 0.250000
vt 0.625000 0.437500
vt 0.504808 0.406250
vt 0.625000 0.406250
vt 0.718750 0.729804
vt 0.687500 0.725682
vt 0.718750 0.725682
vt 0.375000 0.137159
vt 0.375000 0.250000
vt 0.375000 0.343750
vt 0.504808 0.343750
vt 0.504808 0.375000
vt 0.375000 0.375000
vt 0.750000 0.731178
vt 0.750000 0.750000
vt 0.718750 0.750000
vt 0.218750 0.731178
vt 0.250000 0.731178
vt 0.250000 0.750000
vt 0.218750 0.750000
vt 0.625000 0.343750
vt 0.625000 0.375000
vt 0.375000 0.406250
vt 0.375000 0.437500
vt 0.281250 0.731178
vt 0.312500 0.731178
vt 0.312500 0.750000
vt 0.281250 0.750000
vt 0.504808 0.437500
vt 0.625000 0.312500
vt 0.781250 0.729804
vt 0.812500 0.731178
vt 0.812500 0.750000
vt 0.781250 0.750000
vt 0.781250 0.684056
vt 0.812500 0.684056
vt 0.812500 0.725682
vt 0.781250 0.725682
vt 0.281250 0.684056
vt 0.312500 0.684056
vt 0.312500 0.725682
vt 0.281250 0.725682
vt 0.218750 0.684056
vt 0.250000 0.684056
vt 0.250000 0.725682
vt 0.218750 0.725682
vt 0.375000 0.684056
vt 0.504808 0.684056
vt 0.504808 0.725682
vt 0.375000 0.725682
vt 0.625000 0.684056
vt 0.625000 0.725682
vt 0.504808 0.500000
vt 0.625000 0.500000
vt 0.625000 0.612841
vt 0.504808 0.612841
vt 0.375000 0.500000
vt 0.375000 0.612841
vt 0.718750 0.500000
vt 0.750000 0.500000
vt 0.750000 0.612841
vt 0.718750 0.612841
vt 0.218750 0.500000
vt 0.250000 0.500000
vt 0.250000 0.612841
vt 0.218750 0.612841
vt 0.281250 0.500000
vt 0.312500 0.500000
vt 0.312500 0.612841
vt 0.281250 0.612841
vt 0.781250 0.500000
vt 0.812500 0.500000
vt 0.812500 0.612841
vt 0.781250 0.612841
vt 0.375000 0.107570
vt 0.504808 0.107570
vt 0.625000 0.107570
vt 0.504808 0.065944
vt 0.625000 0.065944
vt 0.375000 0.065944
vt 0.625000 0.642430
vt 0.504808 0.642430
vt 0.375000 0.642430
vt 0.750000 0.642430
vt 0.718750 0.642430
vt 0.250000 0.642430
vt 0.218750 0.642430
vt 0.312500 0.642430
vt 0.281250 0.642430
vt 0.812500 0.642430
vt 0.781250 0.642430
vt 0.625000 0.000000
vt 0.625000 0.018822
vt 0.504808 0.018822
vt 0.504808 0.000000
vt 0.375000 0.018822
vt 0.504808 0.731178
vt 0.625000 0.731178
vt 0.687500 0.612841
vt 0.687500 0.642430
vt 0.687500 0.500000
vt 0.687500 0.684056
vt 0.718750 0.684056
vt 0.687500 0.731178
vt 0.687500 0.750000
vt 0.187500 0.612841
vt 0.187500 0.642430
vt 0.187500 0.500000
vt 0.187500 0.684056
vt 0.187500 0.725682
vt 0.504808 0.312500
vt 0.187500 0.731178
vt 0.187500 0.750000
vt 0.375000 0.312500
vt 0.750000 0.684056
vt 0.375000 0.024318
vt 0.504808 0.024318
vt 0.625000 0.024318
vt 0.750000 0.725682
s 1
usemtl Material.005
f 235/88/46 233/89/46 215/90/46 219/91/46
f 218/92/47 250/93/47 258/94/47
f 256/95/48 228/96/48 255/97/48
f 236/98/49 235/88/49 219/91/49 214/99/49
f 268/100/50 261/101/50 224/102/50 221/103/50
f 256/95/51 249/104/51 223/105/51 257/106/51
f 263/107/52 232/108/52 223/109/52 262/110/52
f 261/101/47 266/111/47 222/112/47 224/102/47
f 253/113/50 250/93/50 217/114/50
f 251/115/53 227/116/53 216/117/53 257/118/53
f 250/93/54 218/92/54 220/119/54
f 217/114/55 250/93/55 220/119/55
f 261/101/47 215/120/47 266/111/47
f 271/121/56 226/122/56 213/123/56 262/124/56
f 283/125/57 278/126/57 226/127/57 270/128/57
f 281/129/58 279/130/58 227/131/58 251/132/58
f 282/133/58 276/134/58 232/135/58 263/136/58
f 279/137/59 274/138/59 229/139/59 227/140/59
f 274/138/60 273/141/60 228/142/60 229/139/60
f 220/143/61 218/144/61 237/145/61 238/146/61
f 217/147/62 220/143/62 238/146/62 234/148/62
f 258/149/63 222/150/63 239/151/63 260/152/63
f 268/153/64 221/154/64 240/155/64 265/156/64
f 253/157/64 217/158/64 234/159/64 252/160/64
f 266/161/63 215/162/63 233/163/63 264/164/63
f 241/165/65 248/166/65 235/88/65 236/98/65
f 248/166/66 247/167/66 233/89/66 235/88/66
f 277/168/66 278/169/66 247/167/66 248/166/66
f 272/170/65 277/168/65 248/166/65 241/165/65
f 238/146/60 237/145/60 242/171/60 243/172/60
f 234/148/59 238/146/59 243/172/59 246/173/59
f 260/152/67 239/151/68 244/174/68 259/175/67
f 265/156/58 240/155/58 245/176/58 267/177/58
f 252/160/58 234/159/58 246/178/58 254/179/58
f 264/164/69 233/163/70 247/180/70 269/181/69
f 213/182/71 226/183/71 230/184/71
f 213/185/72 230/184/72 225/186/72
f 270/128/73 226/127/73 271/121/73
f 227/140/74 229/139/74 216/187/74
f 229/139/75 228/188/75 216/187/75
f 240/155/58 252/160/58 254/179/58 245/176/58
f 237/189/76 260/152/67 259/175/67 242/190/76
f 221/154/64 253/157/64 252/160/64 240/155/64
f 218/191/63 258/149/63 260/152/63 237/189/63
f 273/192/77 280/193/77 255/97/77 228/96/77
f 276/134/58 281/129/58 251/132/58 232/135/58
f 224/102/47 222/112/47 258/94/47 250/93/47
f 232/108/78 251/115/78 257/118/78 223/109/78
f 221/103/50 224/102/50 250/93/50 253/113/50
f 228/194/79 256/95/79 257/106/79 216/195/79
f 239/151/80 264/164/69 269/181/69 244/174/80
f 236/196/58 265/156/58 267/177/58 241/197/58
f 222/150/63 266/161/63 264/164/63 239/151/63
f 214/198/64 268/153/64 265/156/64 236/196/64
f 272/199/58 282/133/58 263/136/58 225/200/58
f 249/104/81 271/121/81 262/124/81 223/105/81
f 219/201/82 215/120/82 261/101/82
f 225/202/83 263/107/83 262/110/83 213/203/83
f 214/204/50 261/101/50 268/100/50
f 244/174/84 269/181/84 283/125/84 275/205/84
f 241/197/58 267/177/58 282/133/58 272/199/58
f 245/176/58 254/179/58 281/129/58 276/134/58
f 242/190/85 259/175/85 280/193/85 273/192/85
f 225/206/65 230/207/65 277/168/65 272/170/65
f 230/207/66 226/208/66 278/169/66 277/168/66
f 243/172/60 242/171/60 273/141/60 274/138/60
f 246/173/59 243/172/59 274/138/59 279/137/59
f 259/175/86 244/174/86 275/205/86 280/193/86
f 267/177/58 245/176/58 276/134/58 282/133/58
f 254/179/58 246/178/58 279/130/58 281/129/58
f 269/181/87 247/180/87 278/126/87 283/125/87
f 261/101/88 214/204/88 219/201/88
usemtl Material.009
f 280/193/89 275/205/89 231/209/89 255/97/89
f 249/104/90 256/95/90 255/97/90 231/209/90
f 231/209/91 270/128/91 271/121/91 249/104/91
f 275/205/92 283/125/92 270/128/92 231/209/92
o Cube.003
v 0.937437 -0.439845 19.650589
v 0.937437 0.287926 19.650589
v 0.937437 -0.439847 -2.030339
v 0.937437 0.063354 -2.030339
v 16.476267 -0.095833 -7.614919
v 16.476267 0.031250 -7.614919
v 16.476267 -0.095833 -9.840676
v 16.476267 0.031250 -9.840676
v 4.001924 -0.305149 -2.030339
v 4.001924 0.153226 -2.030339
v 4.001924 -0.305147 11.274709
v 4.001924 0.153228 11.274709
v 14.361777 -0.486566 -9.620293
v 14.361777 -0.713485 -4.534776
v 14.361777 -0.713487 -9.620293
v 14.361777 -0.486564 -4.534775
v 5.785887 -0.354368 -7.214910
v 5.785887 0.071427 6.479070
v 5.785887 0.071425 -7.214910
v 5.785887 -0.354366 6.479070
v 0.937437 -0.075958 24.005943
v 0.937437 -0.075962 -2.770340
v 16.476267 -0.032292 -10.882143
v 16.476267 -0.032290 -5.967427
v 4.001924 -0.075960 13.661605
v 4.001924 -0.075962 -2.770340
v 14.361777 -0.600025 -3.078597
v 14.361777 -0.600027 -10.609966
v 5.785887 -0.141471 -8.520581
v 5.785887 -0.141467 8.391703
v 18.106314 0.710131 -7.777924
v 18.106314 0.710131 -10.003681
v -0.937437 -0.439845 19.650589
v -0.937437 0.287926 19.650589
v -0.937437 -0.439847 -2.030339
v -0.937437 0.063354 -2.030339
v -16.476267 -0.095833 -7.614919
v -16.476267 0.031250 -7.614919
v -16.476267 -0.095833 -9.840676
v -16.476267 0.031250 -9.840676
v -4.001924 -0.305149 -2.030339
v -4.001924 0.153226 -2.030339
v -4.001924 -0.305147 11.274709
v -4.001924 0.153228 11.274709
v -14.361777 -0.486566 -9.620293
v -14.361777 -0.713485 -4.534776
v -14.361777 -0.713487 -9.620293
v -14.361777 -0.486564 -4.534775
v -5.785887 -0.354368 -7.214910
v -5.785887 0.071427 6.479070
v -5.785887 0.071425 -7.214910
v -5.785887 -0.354366 6.479070
v -0.937437 -0.075958 24.005943
v -0.937437 -0.075962 -2.770340
v -16.476267 -0.032292 -10.882143
v -16.476267 -0.032290 -5.967427
v -4.001924 -0.075960 13.661605
v -4.001924 -0.075962 -2.770340
v -14.361777 -0.600025 -3.078597
v -14.361777 -0.600027 -10.609966
v -5.785887 -0.141471 -8.520581
v -5.785887 -0.141467 8.391703
v -18.106314 0.710131 -7.777924
v -18.106314 0.710131 -10.003681
vn -1.0000 -0.0000 -0.0000
vn -0.2569 0.9628 -0.0839
vn -0.3812 0.9238 0.0356
vn 0.2781 0.9569 0.0842
vn 0.2804 -0.9599 -0.0000
vn -0.0015 1.0000 -0.0064
vn 0.0458 0.9990 -0.0000
vn 0.0439 -0.9990 -0.0000
vn 0.3131 0.9448 0.0971
vn -0.0142 0.9703 -0.2416
vn -0.1733 0.9833 0.0561
vn -0.2379 0.9713 -0.0000
vn -0.0418 -0.9991 -0.0000
vn 0.0218 0.9898 -0.1407
vn -0.5189 0.8355 -0.1806
vn -0.0276 -0.9996 -0.0000
vn 0.1823 0.9787 0.0948
vn 0.0649 0.9979 -0.0000
vn 0.0787 -0.9923 0.0961
vn -0.5616 -0.8087 -0.1748
vn -0.0838 -0.9866 -0.1403
vn 0.3389 -0.9393 0.0536
vn 0.0204 -0.9281 -0.3719
vn 0.2485 -0.9635 0.0991
vn 0.2781 -0.9569 0.0842
vn 0.4457 -0.8945 0.0345
vn 0.2599 -0.9620 -0.0838
vn -0.3845 0.9231 -0.0000
vn 0.4382 -0.8972 -0.0547
vn -0.3886 0.9197 -0.0561
vn 0.4432 -0.8964 -0.0000
vn 1.0000 -0.0000 -0.0000
vn 0.2569 0.9628 -0.0839
vn 0.3812 0.9238 0.0356
vn -0.2781 0.9569 0.0842
vn -0.2804 -0.9599 -0.0000
vn 0.0015 1.0000 -0.0064
vn -0.0458 0.9990 -0.0000
vn -0.0439 -0.9990 -0.0000
vn -0.3131 0.9448 0.0971
vn 0.0142 0.9703 -0.2416
vn 0.1733 0.9833 0.0561
vn 0.2379 0.9713 -0.0000
vn 0.0418 -0.9991 -0.0000
vn -0.0218 0.9898 -0.1407
vn 0.5189 0.8355 -0.1806
vn 0.0276 -0.9996 -0.0000
vn -0.1823 0.9787 0.0948
vn -0.0649 0.9979 -0.0000
vn -0.0787 -0.9923 0.0961
vn 0.5616 -0.8087 -0.1748
vn 0.0838 -0.9866 -0.1403
vn -0.3389 -0.9393 0.0536
vn -0.0204 -0.9281 -0.3719
vn -0.2485 -0.9635 0.0991
vn -0.2781 -0.9569 0.0842
vn -0.4457 -0.8945 0.0345
vn -0.2599 -0.9620 -0.0838
vn 0.3845 0.9231 -0.0000
vn -0.4382 -0.8972 -0.0547
vn 0.3886 0.9197 -0.0561
vn -0.4432 -0.8964 -0.0000
vt 0.500000 0.000000
vt 0.625000 0.000000
vt 0.625000 0.250000
vt 0.500000 0.250000
vt 0.500000 0.476855
vt 0.625000 0.476855
vt 0.625000 0.500000
vt 0.500000 0.500000
vt 0.500000 0.666196
vt 0.625000 0.750000
vt 0.500000 0.750000
vt 0.500000 0.964820
vt 0.625000 0.964820
vt 0.625000 1.000000
vt 0.500000 1.000000
vt 0.351855 0.500000
vt 0.375000 0.500000
vt 0.375000 0.750000
vt 0.351855 0.750000
vt 0.839820 0.500000
vt 0.875000 0.500000
vt 0.875000 0.750000
vt 0.839820 0.750000
vt 0.826944 0.500000
vt 0.826944 0.750000
vt 0.125000 0.500000
vt 0.160180 0.500000
vt 0.160180 0.750000
vt 0.125000 0.750000
vt 0.500000 0.951944
vt 0.625000 0.951944
vt 0.625000 0.285180
vt 0.500000 0.285180
vt 0.625000 0.773145
vt 0.500000 0.773145
vt 0.648145 0.500000
vt 0.648145 0.750000
vt 0.173056 0.500000
vt 0.173056 0.750000
vt 0.500000 0.298056
vt 0.625000 0.298056
vt 0.375000 0.773145
vt 0.375000 0.951944
vt 0.375000 0.285180
vt 0.375000 0.298056
vt 0.375000 0.476855
vt 0.375000 0.250000
vt 0.375000 0.964820
vt 0.375000 1.000000
vt 0.375000 0.000000
vt 0.500000 0.552977
s 1
usemtl Material.003
f 304/210/93 285/211/93 287/212/93 305/213/93
f 311/214/94 296/215/94 291/216/94 306/217/94
f 314/218/95 289/219/95 307/220/95
f 308/221/96 295/222/96 285/223/96 304/224/96
f 298/225/97 290/226/97 288/227/97 297/228/97
f 293/229/98 287/230/98 285/231/98 295/232/98
f 302/233/99 293/229/99 295/232/99 301/234/99
f 286/235/100 292/236/100 294/237/100 284/238/100
f 313/239/101 301/240/101 295/222/101 308/221/101
f 305/213/102 287/212/102 293/241/102 309/242/102
f 307/220/103 289/219/103 299/243/103 310/244/103
f 291/216/104 296/245/104 299/246/104 289/219/104
f 300/247/105 298/225/105 297/228/105 303/248/105
f 312/249/106 302/250/106 296/215/106 311/214/106
f 309/242/107 293/241/107 302/250/107 312/249/107
f 292/236/108 300/247/108 303/248/108 294/237/108
f 310/244/109 299/243/109 301/240/109 313/239/109
f 296/245/110 302/233/110 301/234/110 299/246/110
f 297/251/111 310/244/111 313/239/111 303/252/111
f 292/253/112 309/242/112 312/249/112 300/254/112
f 300/254/113 312/249/113 311/214/113 298/255/113
f 288/227/114 307/220/114 310/244/114 297/251/114
f 286/256/115 305/213/115 309/242/115 292/253/115
f 303/252/116 313/239/116 308/221/116 294/257/116
f 294/257/117 308/221/117 304/224/117 284/258/117
f 288/227/118 314/218/118 307/220/118
f 298/255/119 311/214/119 306/217/119 290/226/119
f 284/259/93 304/210/93 305/213/93 286/256/93
f 291/216/120 289/219/120 314/218/120 315/260/120
f 290/226/121 306/217/121 315/260/121
f 306/217/122 291/216/122 315/260/122
f 288/227/123 290/226/123 315/260/123 314/218/123
f 336/210/124 337/213/124 319/212/124 317/211/124
f 343/214/125 338/217/125 323/216/125 328/215/125
f 346/218/126 339/220/126 321/219/126
f 340/221/127 336/224/127 317/223/127 327/222/127
f 330/225/128 329/228/128 320/227/128 322/226/128
f 325/229/129 327/232/129 317/231/129 319/230/129
f 334/233/130 333/234/130 327/232/130 325/229/130
f 318/235/131 316/238/131 326/237/131 324/236/131
f 345/239/132 340/221/132 327/222/132 333/240/132
f 337/213/133 341/242/133 325/241/133 319/212/133
f 339/220/134 342/244/134 331/243/134 321/219/134
f 323/216/135 321/219/135 331/246/135 328/245/135
f 332/247/136 335/248/136 329/228/136 330/225/136
f 344/249/137 343/214/137 328/215/137 334/250/137
f 341/242/138 344/249/138 334/250/138 325/241/138
f 324/236/139 326/237/139 335/248/139 332/247/139
f 342/244/140 345/239/140 333/240/140 331/243/140
f 328/245/141 331/246/141 333/234/141 334/233/141
f 329/251/142 335/252/142 345/239/142 342/244/142
f 324/253/143 332/254/143 344/249/143 341/242/143
f 332/254/144 330/255/144 343/214/144 344/249/144
f 320/227/145 329/251/145 342/244/145 339/220/145
f 318/256/146 324/253/146 341/242/146 337/213/146
f 335/252/147 326/257/147 340/221/147 345/239/147
f 326/257/148 316/258/148 336/224/148 340/221/148
f 320/227/149 339/220/149 346/218/149
f 330/255/150 322/226/150 338/217/150 343/214/150
f 316/259/124 318/256/124 337/213/124 336/210/124
f 323/216/151 347/260/151 346/218/151 321/219/151
f 322/226/152 347/260/152 338/217/152
f 338/217/153 347/260/153 323/216/153
f 320/227/154 346/218/154 347/260/154 322/226/154
o Cube.004
v 1.341483 -0.077280 28.251951
v 1.341483 0.091982 28.251951
v 1.341483 -0.077280 25.320839
v 1.341483 0.091982 25.320839
v 4.555189 1.124288 24.597351
v 4.555189 1.202737 24.597351
v 4.555189 1.124288 23.457315
v 4.555189 1.202737 23.457315
v 1.341483 0.007351 28.964928
v 1.341483 0.007351 24.607864
v 4.555189 1.163512 23.180008
v 4.555189 1.163512 24.874659
v -1.341483 -0.077280 28.251951
v -1.341483 0.091982 28.251951
v -1.341483 -0.077280 25.320839
v -1.341483 0.091982 25.320839
v -4.555189 1.124288 24.597351
v -4.555189 1.202737 24.597351
v -4.555189 1.124288 23.457315
v -4.555189 1.202737 23.457315
v -1.341483 0.007351 28.964928
v -1.341483 0.007351 24.607864
v -4.555189 1.163512 23.180008
v -4.555189 1.163512 24.874659
vn -1.0000 -0.0000 -0.0000
vn -0.3821 0.9170 -0.1147
vn 1.0000 -0.0000 -0.0000
vn -0.1965 0.9729 0.1217
vn 0.3502 -0.9367 -0.0000
vn -0.3267 0.9451 -0.0000
vn 0.4568 -0.8827 0.1104
vn 0.2877 -0.9503 -0.1189
vn 0.3821 0.9170 -0.1147
vn 0.1965 0.9729 0.1217
vn -0.3502 -0.9367 -0.0000
vn 0.3267 0.9451 -0.0000
vn -0.4568 -0.8827 0.1104
vn -0.2877 -0.9503 -0.1189
vt 0.500000 0.000000
vt 0.625000 0.000000
vt 0.625000 0.250000
vt 0.500000 0.250000
vt 0.625000 0.500000
vt 0.500000 0.500000
vt 0.625000 0.750000
vt 0.500000 0.750000
vt 0.625000 1.000000
vt 0.500000 1.000000
vt 0.125000 0.500000
vt 0.375000 0.500000
vt 0.375000 0.750000
vt 0.125000 0.750000
vt 0.875000 0.500000
vt 0.875000 0.750000
vt 0.375000 1.000000
vt 0.375000 0.250000
vt 0.375000 0.000000
s 1
usemtl Material.004
f 356/261/155 349/262/155 351/263/155 357/264/155
f 357/264/156 351/263/156 355/265/156 358/266/156
f 358/266/157 355/265/157 353/267/157 359/268/157
f 359/268/158 353/267/158 349/269/158 356/270/158
f 350/271/159 354/272/159 352/273/159 348/274/159
f 355/265/160 351/275/160 349/276/160 353/267/160
f 352/273/161 359/268/161 356/270/161 348/277/161
f 354/272/157 358/266/157 359/268/157 352/273/157
f 350/278/162 357/264/162 358/266/162 354/272/162
f 348/279/155 356/261/155 357/264/155 350/278/155
f 368/261/157 369/264/157 363/263/157 361/262/157
f 369/264/163 370/266/163 367/265/163 363/263/163
f 370/266/155 371/268/155 365/267/155 367/265/155
f 371/268/164 368/270/164 361/269/164 365/267/164
f 362/271/165 360/274/165 364/273/165 366/272/165
f 367/265/166 365/267/166 361/276/166 363/275/166
f 364/273/167 360/277/167 368/270/167 371/268/167
f 366/272/155 364/273/155 371/268/155 370/266/155
f 362/278/168 366/272/168 370/266/168 369/264/168
f 360/279/157 362/278/157 369/264/157 368/261/157
o Cube.005
v 5.874279 -0.096205 -0.952687
v 5.630356 0.048701 -0.952687
v 5.874279 -0.096205 -5.926120
v 5.630356 0.048701 -5.926120
v 8.554906 3.152192 -6.174381
v 8.441854 3.219352 -6.174381
v 8.554906 3.152190 -8.085320
v 8.441854 3.219350 -8.085320
v 5.752317 -0.023752 0.242408
v 5.752317 -0.023754 -7.121216
v 8.498380 3.185770 -8.550144
v 8.498380 3.185771 -5.709558
v -5.874279 -0.096205 -0.952687
v -5.630356 0.048701 -0.952687
v -5.874279 -0.096205 -5.926120
v -5.630356 0.048701 -5.926120
v -8.554906 3.152192 -6.174381
v -8.441854 3.219352 -6.174381
v -8.554906 3.152190 -8.085320
v -8.441854 3.219350 -8.085320
v -5.752317 -0.023752 0.242408
v -5.752317 -0.023754 -7.121216
v -8.498380 3.185770 -8.550144
v -8.498380 3.185771 -5.709558
vn -0.5107 -0.8597 -0.0000
vn -0.7816 0.6116 -0.1231
vn 0.5107 0.8597 -0.0000
vn -0.6380 0.7610 0.1172
vn 0.7713 -0.6365 -0.0000
vn -0.7482 0.6635 -0.0000
vn 0.8549 -0.5037 0.1241
vn 0.7257 -0.6772 -0.1213
vn 0.5107 -0.8597 -0.0000
vn 0.7816 0.6116 -0.1231
vn -0.5107 0.8597 -0.0000
vn 0.6380 0.7610 0.1172
vn -0.7713 -0.6365 -0.0000
vn 0.7482 0.6635 -0.0000
vn -0.8549 -0.5037 0.1241
vn -0.7257 -0.6772 -0.1213
vt 0.500000 0.000000
vt 0.625000 0.000000
vt 0.625000 0.250000
vt 0.500000 0.250000
vt 0.625000 0.500000
vt 0.500000 0.500000
vt 0.625000 0.750000
vt 0.500000 0.750000
vt 0.625000 1.000000
vt 0.500000 1.000000
vt 0.125000 0.500000
vt 0.375000 0.500000
vt 0.375000 0.750000
vt 0.125000 0.750000
vt 0.875000 0.500000
vt 0.875000 0.750000
vt 0.375000 1.000000
vt 0.375000 0.250000
vt 0.375000 0.000000
s 1
usemtl Material.002
f 380/280/169 373/281/169 375/282/169 381/283/169
f 381/283/170 375/282/170 379/284/170 382/285/170
f 382/285/171 379/284/171 377/286/171 383/287/171
f 383/287/172 377/286/172 373/288/172 380/289/172
f 374/290/173 378/291/173 376/292/173 372/293/173
f 379/284/174 375/294/174 373/295/174 377/286/174
f 376/292/175 383/287/175 380/289/175 372/296/175
f 378/291/171 382/285/171 383/287/171 376/292/171
f 374/297/176 381/283/176 382/285/176 378/291/176
f 372/298/169 380/280/169 381/283/169 374/297/169
f 392/280/177 393/283/177 387/282/177 385/281/177
f 393/283/178 394/285/178 391/284/178 387/282/178
f 394/285/179 395/287/179 389/286/179 391/284/179
f 395/287/180 392/289/180 385/288/180 389/286/180
f 386/290/181 384/293/181 388/292/181 390/291/181
f 391/284/182 389/286/182 385/295/182 387/294/182
f 388/292/183 384/296/183 392/289/183 395/287/183
f 390/291/179 388/292/179 395/287/179 394/285/179
f 386/297/184 390/291/184 394/285/184 393/283/184
f 384/298/177 386/297/177 393/283/177 392/280/177
