# Blender 5.0.1
# www.blender.org
mtllib sf-15x.mtl
o Cube
v 1.998357 0.788522 -6.853795
v 1.998357 -0.788521 -6.853795
v 1.998357 0.788522 -4.853795
v 1.998357 -0.788521 -4.853795
v -0.001643 0.788522 -6.853795
v -0.001643 -0.788521 -6.853795
v -0.001643 0.788522 -4.853795
v -0.001643 -0.788521 -4.853795
v 1.995016 0.788522 -2.296759
v 1.995016 -0.788521 -2.296759
v -0.001643 0.788522 -2.296759
v -0.001643 -0.788521 -2.296759
v 1.998357 0.000000 -6.853795
v -0.001643 0.000000 -4.853795
v 1.998357 0.000000 -4.853795
v -0.001643 0.000000 -6.853795
v -0.001643 0.000000 -2.296759
v 1.995016 0.000000 -2.296759
v 1.993996 0.772991 -1.139795
v 1.993996 -0.772991 -1.139795
v -0.001643 -0.772991 -1.139795
v -0.001643 0.772991 -1.139795
v 0.998357 -0.788521 -6.853795
v 0.998357 0.788522 -4.853795
v 0.998357 -0.788521 -4.853795
v 0.998357 0.788522 -6.853795
v 1.143704 0.788522 -2.296759
v 1.143704 -0.788521 -2.296759
v 0.998357 0.000000 -6.853795
v 0.998357 0.689130 -6.853795
v 0.998357 -0.689046 -6.853795
v 1.871691 0.788522 -6.853795
v 1.871691 0.000000 -6.853795
v 1.871691 0.689130 -6.853795
v 1.871691 -0.689046 -6.853795
v 1.871691 -0.788521 -6.853795
v 0.125022 -0.788521 -6.853795
v 0.125022 0.788522 -6.853795
v 0.125022 0.000000 -6.853795
v 0.125022 0.689130 -6.853795
v 0.125022 -0.689046 -6.853795
v 1.871691 -0.000000 -9.399251
v 1.871691 0.290092 -9.399251
v 1.998357 -0.477655 -9.399251
v 1.998357 -0.000000 -9.399251
v 1.998357 0.477664 -9.399251
v -0.001643 -0.000000 -9.399251
v -0.001643 -0.477655 -9.399251
v 1.871691 -0.290056 -9.399251
v 0.125022 -0.000000 -9.399251
v 0.125022 -0.290056 -9.399251
v 0.125022 0.290092 -9.399250
v -0.001643 0.477664 -9.399251
v 1.993996 0.000000 -1.139795
v -0.001643 0.000000 -1.139795
v 1.998357 -0.000000 -10.363825
v -0.001643 -0.000000 -10.363543
v 1.871691 0.477664 -9.399251
v 1.871691 -0.000000 -10.363825
v 1.871691 -0.477655 -9.399251
v 0.125022 -0.477655 -9.399251
v 0.125022 0.477664 -9.399251
v 0.125022 -0.000000 -10.363825
v 0.998357 -0.605197 -8.167541
v 0.998357 0.605207 -8.167541
v 0.998357 0.528922 -8.167541
v 0.998357 -0.528849 -8.167541
v 1.737883 -0.477655 -9.317085
v 1.737883 0.477664 -9.317085
v 1.737883 0.417456 -9.317085
v 1.737883 -0.417397 -9.317085
v 0.258512 0.477664 -9.317085
v 0.258512 0.417456 -9.317085
v 0.258512 -0.417397 -9.317085
v 0.258512 -0.477655 -9.317085
v 2.010952 0.589025 7.135252
v 2.093316 0.772992 3.658018
v 2.093316 -0.772990 3.658018
v 0.359786 -0.772990 3.658018
v 0.359786 0.772992 3.658018
v 0.359786 0.589025 7.135252
v -1.998357 0.788522 -6.853795
v -1.998357 -0.788521 -6.853795
v -1.998357 0.788522 -4.853795
v -1.998357 -0.788521 -4.853795
v 0.001643 0.788522 -6.853795
v 0.001643 -0.788521 -6.853795
v 0.001643 0.788522 -4.853795
v 0.001643 -0.788521 -4.853795
v -1.995016 0.788522 -2.296759
v -1.995016 -0.788521 -2.296759
v 0.001643 0.788522 -2.296759
v 0.001643 -0.788521 -2.296759
v -1.998357 0.000000 -6.853795
v 0.001643 0.000000 -4.853795
v -1.998357 0.000000 -4.853795
v 0.001643 0.000000 -6.853795
v 0.001643 0.000000 -2.296759
v -1.995016 0.000000 -2.296759
v -1.993996 0.772991 -1.139795
v -1.993996 -0.772991 -1.139795
v 0.001643 -0.772991 -1.139795
v 0.001643 0.772991 -1.139795
v -0.998357 -0.788521 -6.853795
v -0.998357 0.788522 -4.853795
v -0.998357 -0.788521 -4.853795
v -0.998357 0.788522 -6.853795
v -1.143704 0.788522 -2.296759
v -1.143704 -0.788521 -2.296759
v -0.998357 0.000000 -6.853795
v -0.998357 0.689130 -6.853795
v -0.998357 -0.689046 -6.853795
v -1.871691 0.788522 -6.853795
v -1.871691 0.000000 -6.853795
v -1.871691 0.689130 -6.853795
v -1.871691 -0.689046 -6.853795
v -1.871691 -0.788521 -6.853795
v -0.125022 -0.788521 -6.853795
v -0.125022 0.788522 -6.853795
v -0.125022 0.000000 -6.853795
v -0.125022 0.689130 -6.853795
v -0.125022 -0.689046 -6.853795
v -1.871691 -0.000000 -9.399251
v -1.871691 0.290092 -9.399251
v -1.998357 -0.477655 -9.399251
v -1.998357 -0.000000 -9.399251
v -1.998357 0.477664 -9.399251
v 0.001643 -0.000000 -9.399251
v 0.001643 -0.477655 -9.399251
v -1.871691 -0.290056 -9.399251
v -0.125022 -0.000000 -9.399251
v -0.125022 -0.290056 -9.399251
v -0.125022 0.290092 -9.399250
v 0.001643 0.477664 -9.399251
v -1.993996 0.000000 -1.139795
v 0.001643 0.000000 -1.139795
v -1.998357 -0.000000 -10.363825
v 0.001643 -0.000000 -10.363543
v -1.871691 0.477664 -9.399251
v -1.871691 -0.000000 -10.363825
v -1.871691 -0.477655 -9.399251
v -0.125022 -0.477655 -9.399251
v -0.125022 0.477664 -9.399251
v -0.125022 -0.000000 -10.363825
v -0.998357 -0.605197 -8.167541
v -0.998357 0.605207 -8.167541
v -0.998357 0.528922 -8.167541
v -0.998357 -0.528849 -8.167541
v -1.737883 -0.477655 -9.317085
v -1.737883 0.477664 -9.317085
v -1.737883 0.417456 -9.317085
v -1.737883 -0.417397 -9.317085
v -0.258512 0.477664 -9.317085
v -0.258512 0.417456 -9.317085
v -0.258512 -0.417397 -9.317085
v -0.258512 -0.477655 -9.317085
v -2.010952 0.589025 7.135252
v -2.093316 0.772992 3.658018
v -2.093316 -0.772990 3.658018
v -0.359786 -0.772990 3.658018
v -0.359786 0.772992 3.658018
v -0.359786 0.589025 7.135252
vn -0.0000 1.0000 -0.0000
vn -0.0000 -1.0000 -0.0000
vn -0.0000 -0.9926 -0.1212
vn -1.0000 -0.0000 -0.0000
vn 1.0000 -0.0000 -0.0000
vn 1.0000 -0.0000 0.0001
vn 1.0000 -0.0000 0.0007
vn 1.0000 -0.0000 0.0011
vn 1.0000 -0.0000 0.0013
vn -0.0000 -1.0000 0.0067
vn -0.0000 -0.9999 0.0135
vn -0.0000 0.9926 -0.1212
vn -0.0000 1.0000 0.0067
vn -0.0000 0.9999 0.0135
vn -0.9985 -0.0000 -0.0541
vn 1.0000 -0.0000 0.0009
vn -0.0000 0.8961 -0.4438
vn -0.0000 -0.8961 -0.4438
vn -0.0004 0.8961 -0.4439
vn -0.0007 0.8961 -0.4438
vn -0.0010 0.8961 -0.4438
vn -0.0000 -0.8961 -0.4439
vn -0.0004 -0.8961 -0.4439
vn -0.0006 -0.8961 -0.4438
vn 0.9985 -0.0000 -0.0542
vn -0.9972 -0.0000 0.0751
vn 0.9997 -0.0000 0.0237
vn 0.9998 -0.0000 -0.0207
vn -0.0000 0.9986 0.0528
vn -0.0000 0.8961 -0.4439
vn -0.0010 -0.8961 -0.4438
vn -1.0000 -0.0000 0.0007
vn -1.0000 -0.0000 0.0011
vn -1.0000 -0.0000 0.0013
vn 0.9985 -0.0000 -0.0541
vn -1.0000 -0.0000 0.0009
vn 0.0004 0.8961 -0.4439
vn 0.0010 0.8961 -0.4438
vn 0.0007 0.8961 -0.4438
vn 0.0006 -0.8961 -0.4438
vn 0.0004 -0.8961 -0.4439
vn -0.9985 -0.0000 -0.0542
vn 0.9972 -0.0000 0.0751
vn -0.9997 -0.0000 0.0237
vn -0.9998 -0.0000 -0.0207
vn 0.0010 -0.8961 -0.4438
vn -0.0000 -0.9311 0.3647
vn 0.0217 0.9920 -0.1240
vn -0.0000 -0.9926 0.1211
vn -0.0000 0.9926 0.1210
vn 0.8409 -0.0000 -0.5412
vn -0.8410 -0.0000 -0.5410
vn -0.0190 0.9939 0.1086
vn -0.0000 -0.9904 -0.1382
vn -0.0217 -0.9920 -0.1240
vn 0.0190 -0.9939 0.1086
vn -0.0000 0.9904 -0.1382
vn -0.0190 -0.9939 0.1086
vn 0.0190 0.9939 0.1086
vn 0.0217 -0.9920 -0.1240
vn -0.0217 0.9920 -0.1240
vn -0.8409 -0.0000 -0.5412
vn 0.8410 -0.0000 -0.5410
vn -0.0000 -0.0000 -1.0000
vt 0.812500 0.500000
vt 0.875000 0.500000
vt 0.812500 0.750000
vt 0.312500 0.500000
vt 0.375000 0.500000
vt 0.312500 0.750000
vt 0.125000 0.500000
vt 0.187500 0.500000
vt 0.500000 0.000000
vt 0.562513 0.000000
vt 0.500000 0.250000
vt 0.526315 0.250000
vt 0.500000 0.500000
vt 0.437500 0.750000
vt 0.437500 0.500000
vt 0.437500 0.250000
vt 0.437500 0.000000
vt 0.500000 0.750000
vt 0.500000 0.312500
vt 0.473690 0.312500
vt 0.562513 0.500000
vt 0.562513 0.750000
vt 0.250000 0.750000
vt 0.281250 0.750000
vt 0.750000 0.750000
vt 0.781273 0.750000
vt 0.718750 0.750000
vt 0.218727 0.750000
vt 0.562513 0.343727
vt 0.625000 0.343727
vt 0.218727 0.500000
vt 0.718750 0.500000
vt 0.625000 0.500000
vt 0.687500 0.500000
vt 0.625000 0.750000
vt 0.463810 0.250000
vt 0.125000 0.750000
vt 0.473690 0.500000
vt 0.562513 0.312500
vt 0.625000 0.312500
vt 0.562513 0.437500
vt 0.625000 0.437500
vt 0.437500 0.312500
vt 0.375000 0.312500
vt 0.375000 0.437500
vt 0.437500 0.437500
vt 0.463810 0.437500
vt 0.500000 0.437500
vt 0.526315 0.437500
vt 0.281250 0.500000
vt 0.250000 0.500000
vt 0.536198 0.500000
vt 0.781273 0.500000
vt 0.750000 0.500000
vt 0.536198 0.312500
vt 0.562513 0.250000
vt 0.375000 0.250000
vt 0.437500 0.343727
vt 0.375000 0.343727
vt 0.562513 0.406250
vt 0.625000 0.406250
vt 0.437500 0.406250
vt 0.375000 0.406250
vt 0.625000 0.250000
vt 0.500000 0.375000
vt 0.562513 0.375000
vt 0.437500 0.375000
vt 0.375000 0.375000
vt 0.625000 0.375000
vt 0.500000 0.343727
vt 0.500000 0.406250
s 1
usemtl Material.001
f 38/1/1 5/2/1 7/3/1
f 36/4/2 2/5/2 4/6/2
f 6/7/3 61/8/3 37/8/3
f 14/9/4 11/10/4 7/10/4
f 16/11/4 53/12/4 47/11/4
f 13/13/5 4/14/6 2/15/5
f 14/9/4 6/16/4 8/17/4
f 15/18/7 10/14/8 4/14/6
f 39/19/5 51/20/5 50/19/5
f 1/21/5 15/18/7 13/13/5
f 7/10/4 16/11/4 14/9/4
f 3/22/9 18/18/8 15/18/7
f 28/23/10 20/24/10 21/23/11
f 38/1/12 53/2/12 5/2/12
f 8/17/4 17/9/4 14/9/4
f 27/25/13 11/26/1 22/25/14
f 17/9/4 21/17/4 55/9/4
f 3/27/1 27/25/13 9/27/13
f 25/23/2 12/28/2 8/28/2
f 40/29/15 72/30/15 73/29/15
f 37/31/2 25/23/2 8/28/2
f 32/32/1 24/25/1 3/27/1
f 1/33/1 32/34/1 3/35/1
f 47/11/4 53/12/4 57/11/4
f 48/16/4 47/36/4 57/16/4
f 6/7/2 37/8/2 8/37/2
f 13/13/5 44/38/5 45/13/5
f 40/39/5 62/40/5 38/40/5
f 34/41/4 58/42/4 43/41/4
f 51/43/5 61/44/5 63/43/5
f 62/40/5 52/39/5 63/39/5
f 50/19/5 51/20/5 63/19/5
f 60/45/4 49/46/4 59/46/4
f 49/46/4 42/47/4 59/46/4
f 42/48/4 43/49/4 59/48/4
f 36/50/2 25/23/2 23/51/2
f 4/24/2 28/23/10 25/23/2
f 43/41/4 58/42/4 59/41/4
f 46/21/5 45/52/5 56/21/5
f 45/13/5 44/38/5 56/13/5
f 17/9/4 22/10/4 11/10/4
f 18/18/8 19/22/16 54/18/16
f 38/53/1 24/25/1 26/54/1
f 24/25/1 11/26/1 27/25/13
f 18/18/8 20/14/16 10/14/8
f 12/28/2 28/23/10 21/28/11
f 52/39/5 50/55/5 63/39/5
f 58/42/17 56/21/17 59/41/17
f 59/46/18 44/5/18 60/45/18
f 57/56/19 62/40/20 63/39/21
f 48/57/22 57/16/23 61/44/24
f 39/19/5 52/39/5 40/39/5
f 16/11/4 48/16/4 6/16/4
f 35/46/4 60/45/4 36/45/4
f 27/25/13 19/27/13 9/27/13
f 41/43/5 61/44/5 51/43/5
f 1/33/12 58/34/12 32/34/12
f 33/48/4 43/49/4 42/48/4
f 33/48/4 49/46/4 35/46/4
f 36/4/3 44/5/3 2/5/3
f 13/13/5 46/21/5 1/21/5
f 41/58/15 75/59/15 37/59/15
f 34/60/25 69/61/25 32/61/25
f 35/62/25 68/63/25 71/62/25
f 55/9/26 80/10/26 22/10/26
f 78/18/27 77/22/27 76/22/27
f 20/24/10 79/23/2 21/23/11
f 54/18/28 77/22/28 78/18/28
f 19/27/13 80/25/1 77/27/1
f 55/9/26 21/17/26 79/9/26
f 20/14/28 54/18/28 78/14/28
f 80/25/29 76/27/29 77/27/29
f 80/10/4 79/9/4 81/10/4
f 62/40/20 57/56/19 53/64/30
f 61/44/24 57/16/23 63/43/31
f 6/7/3 48/7/3 61/8/3
f 14/9/4 17/9/4 11/10/4
f 16/11/4 5/56/4 53/12/4
f 13/13/5 15/18/7 4/14/6
f 14/9/4 16/11/4 6/16/4
f 15/18/7 18/18/8 10/14/8
f 39/19/5 41/43/5 51/20/5
f 1/21/5 3/22/9 15/18/7
f 7/10/4 5/56/4 16/11/4
f 3/22/9 9/22/8 18/18/8
f 28/23/10 10/24/10 20/24/10
f 38/1/12 62/1/12 53/2/12
f 8/17/4 12/17/4 17/9/4
f 17/9/4 12/17/4 21/17/4
f 3/27/1 24/25/1 27/25/13
f 25/23/2 28/23/10 12/28/2
f 40/29/15 38/30/15 72/30/15
f 37/31/2 23/51/2 25/23/2
f 32/32/1 26/54/1 24/25/1
f 13/13/5 2/15/5 44/38/5
f 40/39/5 52/39/5 62/40/5
f 34/41/4 32/42/4 58/42/4
f 36/50/2 4/24/2 25/23/2
f 4/24/2 10/24/10 28/23/10
f 17/9/4 55/9/4 22/10/4
f 18/18/8 9/22/8 19/22/16
f 38/53/1 7/26/1 24/25/1
f 24/25/1 7/26/1 11/26/1
f 18/18/8 54/18/16 20/14/16
f 58/42/17 46/33/17 56/21/17
f 59/46/18 56/15/18 44/5/18
f 39/19/5 50/55/5 52/39/5
f 16/11/4 47/36/4 48/16/4
f 35/46/4 49/46/4 60/45/4
f 27/25/13 22/25/14 19/27/13
f 41/43/5 37/44/5 61/44/5
f 1/33/12 46/33/12 58/34/12
f 33/48/4 34/41/4 43/49/4
f 33/48/4 42/47/4 49/46/4
f 36/4/3 60/4/3 44/5/3
f 13/13/5 45/52/5 46/21/5
f 41/58/15 74/58/15 75/59/15
f 34/60/25 70/60/25 69/61/25
f 35/62/25 36/63/25 68/63/25
f 55/9/26 79/9/26 80/10/26
f 20/24/10 78/24/2 79/23/2
f 54/18/28 19/22/28 77/22/28
f 19/27/13 22/25/14 80/25/1
f 80/25/29 81/25/29 76/27/29
f 119/1/1 88/3/1 86/2/1
f 117/4/2 85/6/2 83/5/2
f 87/7/3 118/8/3 142/8/3
f 95/9/5 88/10/5 92/10/5
f 97/11/5 128/11/5 134/12/5
f 94/13/4 83/15/4 85/14/4
f 95/9/5 89/17/5 87/16/5
f 96/18/32 85/14/4 91/14/33
f 120/19/4 131/19/4 132/20/4
f 82/21/4 94/13/4 96/18/32
f 88/10/5 95/9/5 97/11/5
f 84/22/34 96/18/32 99/18/33
f 109/23/10 102/23/11 101/24/10
f 119/1/12 86/2/12 134/2/12
f 89/17/5 95/9/5 98/9/5
f 108/25/13 103/25/14 92/26/1
f 98/9/5 136/9/5 102/17/5
f 84/27/1 90/27/13 108/25/13
f 106/23/2 89/28/2 93/28/2
f 121/29/35 154/29/35 153/30/35
f 118/31/2 89/28/2 106/23/2
f 113/32/1 84/27/1 105/25/1
f 82/33/1 84/35/1 113/34/1
f 128/11/5 138/11/5 134/12/5
f 129/16/5 138/16/5 128/36/5
f 87/7/2 89/37/2 118/8/2
f 94/13/4 126/13/4 125/38/4
f 121/39/4 119/40/4 143/40/4
f 115/41/5 124/41/5 139/42/5
f 132/43/4 144/43/4 142/44/4
f 143/40/4 144/39/4 133/39/4
f 131/19/4 144/19/4 132/20/4
f 141/45/5 140/46/5 130/46/5
f 130/46/5 140/46/5 123/47/5
f 123/48/5 140/48/5 124/49/5
f 117/50/2 104/51/2 106/23/2
f 85/24/2 106/23/2 109/23/10
f 124/41/5 140/41/5 139/42/5
f 127/21/4 137/21/4 126/52/4
f 126/13/4 137/13/4 125/38/4
f 98/9/5 92/10/5 103/10/5
f 99/18/33 135/18/36 100/22/36
f 119/53/1 107/54/1 105/25/1
f 105/25/1 108/25/13 92/26/1
f 99/18/33 91/14/33 101/14/36
f 93/28/2 102/28/11 109/23/10
f 133/39/4 144/39/4 131/55/4
f 139/42/17 140/41/17 137/21/17
f 140/46/18 141/45/18 125/5/18
f 138/56/37 144/39/38 143/40/39
f 129/57/22 142/44/40 138/16/41
f 120/19/4 121/39/4 133/39/4
f 97/11/5 87/16/5 129/16/5
f 116/46/5 117/45/5 141/45/5
f 108/25/13 90/27/13 100/27/13
f 122/43/4 132/43/4 142/44/4
f 82/33/12 113/34/12 139/34/12
f 114/48/5 123/48/5 124/49/5
f 114/48/5 116/46/5 130/46/5
f 117/4/3 83/5/3 125/5/3
f 94/13/4 82/21/4 127/21/4
f 122/58/35 118/59/35 156/59/35
f 115/60/42 113/61/42 150/61/42
f 116/62/42 152/62/42 149/63/42
f 136/9/43 103/10/43 161/10/43
f 159/18/44 157/22/44 158/22/44
f 101/24/10 102/23/11 160/23/2
f 135/18/45 159/18/45 158/22/45
f 100/27/13 158/27/1 161/25/1
f 136/9/43 160/9/43 102/17/43
f 101/14/45 159/14/45 135/18/45
f 161/25/29 158/27/29 157/27/29
f 161/10/5 162/10/5 160/9/5
f 143/40/39 134/64/30 138/56/37
f 142/44/40 144/43/46 138/16/41
f 87/7/3 142/8/3 129/7/3
f 95/9/5 92/10/5 98/9/5
f 97/11/5 134/12/5 86/56/5
f 94/13/4 85/14/4 96/18/32
f 95/9/5 87/16/5 97/11/5
f 96/18/32 91/14/33 99/18/33
f 120/19/4 132/20/4 122/43/4
f 82/21/4 96/18/32 84/22/34
f 88/10/5 97/11/5 86/56/5
f 84/22/34 99/18/33 90/22/33
f 109/23/10 101/24/10 91/24/10
f 119/1/12 134/2/12 143/1/12
f 89/17/5 98/9/5 93/17/5
f 98/9/5 102/17/5 93/17/5
f 84/27/1 108/25/13 105/25/1
f 106/23/2 93/28/2 109/23/10
f 121/29/35 153/30/35 119/30/35
f 118/31/2 106/23/2 104/51/2
f 113/32/1 105/25/1 107/54/1
f 94/13/4 125/38/4 83/15/4
f 121/39/4 143/40/4 133/39/4
f 115/41/5 139/42/5 113/42/5
f 117/50/2 106/23/2 85/24/2
f 85/24/2 109/23/10 91/24/10
f 98/9/5 103/10/5 136/9/5
f 99/18/33 100/22/36 90/22/33
f 119/53/1 105/25/1 88/26/1
f 105/25/1 92/26/1 88/26/1
f 99/18/33 101/14/36 135/18/36
f 139/42/17 137/21/17 127/33/17
f 140/46/18 125/5/18 137/15/18
f 120/19/4 133/39/4 131/55/4
f 97/11/5 129/16/5 128/36/5
f 116/46/5 141/45/5 130/46/5
f 108/25/13 100/27/13 103/25/14
f 122/43/4 142/44/4 118/44/4
f 82/33/12 139/34/12 127/33/12
f 114/48/5 124/49/5 115/41/5
f 114/48/5 130/46/5 123/47/5
f 117/4/3 125/5/3 141/4/3
f 94/13/4 127/21/4 126/52/4
f 122/58/35 156/59/35 155/58/35
f 115/60/42 150/61/42 151/60/42
f 116/62/42 149/63/42 117/63/42
f 136/9/43 161/10/43 160/9/43
f 101/24/10 160/23/2 159/24/2
f 135/18/45 158/22/45 100/22/45
f 100/27/13 161/25/1 103/25/14
f 161/25/29 157/27/29 162/25/29
usemtl Material.06
f 79/65/47 76/27/47 81/25/47
f 79/65/47 78/18/47 76/27/47
f 160/65/47 162/25/47 157/27/47
f 160/65/47 157/27/47 159/18/47
usemtl Material.07
f 38/53/48 65/54/48 72/53/48
f 40/29/49 66/66/49 30/66/49
f 35/62/50 67/67/50 31/67/50
f 75/59/51 67/67/51 64/68/51
f 72/30/51 66/66/51 73/29/51
f 66/66/52 69/61/52 70/60/52
f 67/67/52 68/63/52 64/68/52
f 41/58/53 67/67/53 74/58/53
f 37/31/54 64/51/54 23/51/54
f 36/50/55 64/51/55 68/50/55
f 34/60/56 66/66/56 70/60/56
f 32/32/57 65/54/57 26/54/57
f 38/53/57 26/54/57 65/54/57
f 40/29/58 73/29/58 66/66/58
f 35/62/59 71/62/59 67/67/59
f 75/59/51 74/58/51 67/67/51
f 72/30/51 65/69/51 66/66/51
f 66/66/52 65/69/52 69/61/52
f 67/67/52 71/62/52 68/63/52
f 41/58/50 31/67/50 67/67/50
f 37/31/60 75/31/60 64/51/60
f 36/50/54 23/51/54 64/51/54
f 34/60/49 30/66/49 66/66/49
f 32/32/61 69/32/61 65/54/61
f 119/53/61 153/53/61 146/54/61
f 121/29/49 111/66/49 147/66/49
f 116/62/50 112/67/50 148/67/50
f 156/59/62 145/68/62 148/67/62
f 153/30/62 154/29/62 147/66/62
f 147/66/63 151/60/63 150/61/63
f 148/67/63 145/68/63 149/63/63
f 122/58/59 155/58/59 148/67/59
f 118/31/54 104/51/54 145/51/54
f 117/50/60 149/50/60 145/51/60
f 115/60/58 151/60/58 147/66/58
f 113/32/57 107/54/57 146/54/57
f 119/53/57 146/54/57 107/54/57
f 121/29/56 147/66/56 154/29/56
f 116/62/53 148/67/53 152/62/53
f 156/59/62 148/67/62 155/58/62
f 153/30/62 147/66/62 146/69/62
f 147/66/63 150/61/63 146/69/63
f 148/67/63 149/63/63 152/62/63
f 122/58/50 148/67/50 112/67/50
f 118/31/55 145/51/55 156/31/55
f 117/50/54 145/51/54 104/51/54
f 115/60/49 147/66/49 111/66/49
f 113/32/48 146/54/48 150/32/48
usemtl Material.08
f 40/29/64 29/65/64 39/70/64
f 39/70/64 31/67/64 41/58/64
f 29/65/64 35/62/64 31/67/64
f 30/66/64 33/71/64 29/65/64
f 40/29/64 30/66/64 29/65/64
f 39/70/64 29/65/64 31/67/64
f 29/65/64 33/71/64 35/62/64
f 30/66/64 34/60/64 33/71/64
f 121/29/64 120/70/64 110/65/64
f 120/70/64 122/58/64 112/67/64
f 110/65/64 112/67/64 116/62/64
f 111/66/64 110/65/64 114/71/64
f 121/29/64 110/65/64 111/66/64
f 120/70/64 112/67/64 110/65/64
f 110/65/64 116/62/64 114/71/64
f 111/66/64 114/71/64 115/60/64
o Cube.001
v 1.986050 0.462174 -7.680197
v 1.906486 0.566541 -7.683137
v 1.988368 0.459768 -3.045842
v 1.906893 0.567064 -3.048782
v 3.752066 3.546844 -8.594894
v 3.751370 3.546844 -8.141637
v 1.937000 0.526402 -8.246107
v 1.937308 0.528859 -2.658193
v 3.080017 2.426137 -9.163570
v 3.046539 2.448026 -8.599977
v 3.109493 2.403573 -8.598212
v -1.986050 0.462174 -7.680197
v -1.906486 0.566541 -7.683137
v -1.988368 0.459768 -3.045842
v -1.906893 0.567064 -3.048782
v -3.752066 3.546844 -8.594894
v -3.751370 3.546844 -8.141637
v -1.937000 0.526402 -8.246107
v -1.937308 0.528859 -2.658193
v -3.080017 2.426137 -9.163570
v -3.046539 2.448026 -8.599977
v -3.109493 2.403573 -8.598212
vn -0.8057 -0.5923 -0.0004
vn -0.7716 -0.6361 -0.0007
vn -0.7713 -0.6364 -0.0005
vn -0.8392 0.5392 -0.0708
vn 0.8706 -0.4920 0.0035
vn 0.8654 -0.5011 -0.0007
vn 0.8668 -0.4986 0.0003
vn -0.8425 0.5387 0.0040
vn -0.8498 0.5271 0.0031
vn -0.8544 0.5196 0.0023
vn 0.8700 -0.4888 -0.0649
vn -0.8156 -0.5786 0.0001
vn -0.7807 -0.6249 0.0025
vn -0.8158 -0.5783 -0.0001
vn -0.8552 0.5182 -0.0000
vn -0.8704 0.4879 -0.0666
vn -0.8687 0.4877 -0.0861
vn -0.8670 0.4888 -0.0972
vn -0.7366 0.6652 0.1224
vn 0.9503 -0.2597 0.1715
vn 0.8389 -0.5381 -0.0817
vn 0.8313 -0.5433 -0.1174
vn 0.8402 -0.5362 -0.0810
vn 0.8715 -0.4904 0.0028
vn -0.8099 -0.5866 -0.0000
vn -0.8408 0.5414 -0.0035
vn -0.7752 -0.6317 0.0023
vn -0.8719 0.4866 -0.0555
vn 0.8300 -0.5451 -0.1180
vn 0.8717 -0.4900 0.0013
vn 0.8057 -0.5923 -0.0004
vn 0.7713 -0.6364 -0.0005
vn 0.7716 -0.6361 -0.0007
vn 0.8392 0.5392 -0.0708
vn -0.8706 -0.4920 0.0035
vn -0.8668 -0.4986 0.0002
vn -0.8654 -0.5011 -0.0007
vn 0.8425 0.5387 0.0040
vn 0.8544 0.5196 0.0023
vn 0.8498 0.5271 0.0031
vn -0.8700 -0.4888 -0.0649
vn 0.8156 -0.5786 0.0001
vn 0.8158 -0.5783 -0.0001
vn 0.7807 -0.6249 0.0025
vn 0.8552 0.5182 -0.0000
vn 0.8704 0.4879 -0.0666
vn 0.8670 0.4888 -0.0972
vn 0.8687 0.4877 -0.0861
vn 0.7366 0.6652 0.1224
vn -0.9503 -0.2597 0.1715
vn -0.8389 -0.5381 -0.0817
vn -0.8402 -0.5362 -0.0810
vn -0.8313 -0.5433 -0.1174
vn -0.8715 -0.4904 0.0028
vn 0.8099 -0.5866 -0.0000
vn 0.8407 0.5414 -0.0036
vn 0.7752 -0.6317 0.0023
vn 0.8719 0.4866 -0.0555
vn -0.8300 -0.5451 -0.1180
vn -0.8717 -0.4900 0.0013
vt 0.500000 0.250000
vt 0.625000 0.000000
vt 0.500000 0.000000
vt 0.625000 0.750000
vt 0.500000 0.875000
vt 0.625000 0.875000
vt 0.250832 0.500000
vt 0.125000 0.750000
vt 0.250832 0.750000
vt 0.625000 0.500000
vt 0.750000 0.750000
vt 0.750000 0.500000
vt 0.500000 0.750000
vt 0.375000 0.874168
vt 0.375000 0.000000
vt 0.875000 0.750000
vt 0.875000 0.500000
vt 0.500000 1.000000
vt 0.500000 0.375000
vt 0.500000 0.500000
vt 0.625000 0.375000
vt 0.375000 0.375832
vt 0.375000 0.500000
vt 0.625000 0.250000
vt 0.375000 0.250000
vt 0.625000 1.000000
vt 0.375000 1.000000
vt 0.375000 0.750000
s 1
usemtl Material.03
f 170/72/65 164/73/66 169/74/67
f 167/75/68 171/76/68 172/77/68
f 165/78/69 163/79/70 173/80/71
f 168/81/72 172/82/73 166/83/74
f 167/84/75 173/85/75 171/76/75
f 163/86/76 170/72/77 169/74/78
f 172/82/73 164/87/79 166/88/74
f 169/89/80 172/77/81 171/76/82
f 170/90/83 168/91/83 166/92/83
f 165/93/84 168/94/84 170/90/84
f 173/85/85 169/89/86 171/76/87
f 173/80/71 168/94/88 165/78/69
f 170/72/65 166/95/89 164/73/66
f 168/81/72 167/75/90 172/82/73
f 163/86/76 165/96/91 170/72/77
f 169/89/80 164/97/92 172/77/81
f 173/85/85 163/98/93 169/89/86
f 173/80/71 167/99/94 168/94/88
f 181/72/95 180/74/96 175/73/97
f 178/75/98 183/77/98 182/76/98
f 176/78/99 184/80/100 174/79/101
f 179/81/102 177/83/103 183/82/104
f 178/84/105 182/76/105 184/85/105
f 174/86/106 180/74/107 181/72/108
f 183/82/104 177/88/103 175/87/109
f 180/89/110 182/76/111 183/77/112
f 181/90/113 177/92/113 179/91/113
f 176/93/114 181/90/114 179/94/114
f 184/85/115 182/76/116 180/89/117
f 184/80/100 176/78/99 179/94/118
f 181/72/95 175/73/97 177/95/119
f 179/81/102 183/82/104 178/75/120
f 174/86/106 181/72/108 176/96/121
f 180/89/110 183/77/112 175/97/122
f 184/85/115 180/89/117 174/98/123
f 184/80/100 179/94/118 178/99/124
o Cube.004
v 1.902098 0.295464 -4.301411
v 1.935779 0.547025 -4.301411
v 1.907859 0.295473 2.601134
v 1.941540 0.547034 2.601134
v 7.965854 -0.366662 -5.054140
v 7.965854 -0.366661 -2.341235
v 1.918939 0.421244 -5.422212
v 1.924700 0.421253 3.373803
v 4.125953 0.147472 -7.437535
v 4.136104 0.223300 -6.316732
v 4.114927 0.071761 -6.316732
v -1.902098 0.295464 -4.301411
v -1.935779 0.547025 -4.301411
v -1.907859 0.295473 2.601134
v -1.941540 0.547034 2.601134
v -7.965854 -0.366662 -5.054140
v -7.965854 -0.366661 -2.341235
v -1.918939 0.421244 -5.422212
v -1.924700 0.421253 3.373803
v -4.125953 0.147472 -7.437535
v -4.136104 0.223300 -6.316732
v -4.114927 0.071761 -6.316732
vn -0.9912 0.1327 0.0008
vn -0.9919 0.1271 0.0007
vn -0.9912 0.1327 0.0006
vn 0.1738 0.9824 -0.0680
vn -0.1063 -0.9943 -0.0012
vn -0.1005 -0.9949 0.0001
vn -0.1065 -0.9943 -0.0008
vn 0.1514 0.9885 0.0008
vn 0.1517 0.9884 0.0009
vn 0.1512 0.9885 0.0014
vn -0.0908 -0.9935 -0.0680
vn -0.9904 0.1383 0.0006
vn 0.1454 0.9894 -0.0001
vn 0.0527 0.9945 -0.0901
vn 0.0522 0.9946 -0.0900
vn 0.0523 0.9945 -0.0903
vn 0.2753 0.9479 0.1603
vn 0.0228 -0.9868 0.1601
vn -0.1925 -0.9772 -0.0901
vn -0.1920 -0.9772 -0.0904
vn -0.1923 -0.9772 -0.0904
vn -0.1115 -0.9938 -0.0016
vn -0.9905 0.1377 0.0008
vn 0.1529 0.9882 -0.0007
vn -0.9918 0.1277 0.0008
vn 0.0526 0.9946 -0.0899
vn -0.1922 -0.9772 -0.0901
vn -0.1131 -0.9936 -0.0000
vn 0.9912 0.1327 0.0008
vn 0.9912 0.1327 0.0006
vn 0.9919 0.1271 0.0007
vn -0.1738 0.9824 -0.0680
vn 0.1063 -0.9943 -0.0012
vn 0.1066 -0.9943 -0.0009
vn 0.1005 -0.9949 0.0001
vn -0.1514 0.9885 0.0008
vn -0.1512 0.9885 0.0014
vn -0.1518 0.9884 0.0009
vn 0.0908 -0.9935 -0.0680
vn 0.9904 0.1383 0.0006
vn -0.1454 0.9894 -0.0001
vn -0.0527 0.9945 -0.0901
vn -0.0523 0.9945 -0.0903
vn -0.0522 0.9946 -0.0900
vn -0.2753 0.9479 0.1603
vn -0.0228 -0.9868 0.1601
vn 0.1925 -0.9772 -0.0901
vn 0.1923 -0.9772 -0.0904
vn 0.1920 -0.9772 -0.0904
vn 0.1115 -0.9938 -0.0016
vn 0.9905 0.1377 0.0008
vn -0.1529 0.9882 -0.0007
vn 0.9918 0.1277 0.0008
vn -0.0526 0.9946 -0.0899
vn 0.1922 -0.9772 -0.0901
vn 0.1131 -0.9936 -0.0000
vt 0.500000 0.250000
vt 0.625000 0.000000
vt 0.500000 0.000000
vt 0.625000 0.750000
vt 0.500000 0.875000
vt 0.625000 0.875000
vt 0.250832 0.500000
vt 0.125000 0.750000
vt 0.250832 0.750000
vt 0.625000 0.500000
vt 0.750000 0.750000
vt 0.750000 0.500000
vt 0.500000 0.750000
vt 0.375000 0.874168
vt 0.375000 0.000000
vt 0.875000 0.750000
vt 0.875000 0.500000
vt 0.500000 1.000000
vt 0.500000 0.375000
vt 0.500000 0.500000
vt 0.625000 0.375000
vt 0.375000 0.375832
vt 0.375000 0.500000
vt 0.625000 0.250000
vt 0.375000 0.250000
vt 0.625000 1.000000
vt 0.375000 1.000000
vt 0.375000 0.750000
s 1
usemtl Material.02
f 192/100/125 186/101/126 191/102/127
f 189/103/128 193/104/128 194/105/128
f 187/106/129 185/107/130 195/108/131
f 190/109/132 194/110/133 188/111/134
f 189/112/135 195/113/135 193/104/135
f 185/114/136 192/100/125 191/102/127
f 194/110/133 186/115/137 188/116/134
f 191/117/138 194/105/139 193/104/140
f 192/118/141 190/119/141 188/120/141
f 187/121/142 190/122/142 192/118/142
f 195/113/143 191/117/144 193/104/145
f 195/108/131 190/122/146 187/106/129
f 192/100/125 188/123/147 186/101/126
f 190/109/132 189/103/148 194/110/133
f 185/114/136 187/124/149 192/100/125
f 191/117/138 186/125/150 194/105/139
f 195/113/143 185/126/151 191/117/144
f 195/108/131 189/127/152 190/122/146
f 203/100/153 202/102/154 197/101/155
f 200/103/156 205/105/156 204/104/156
f 198/106/157 206/108/158 196/107/159
f 201/109/160 199/111/161 205/110/162
f 200/112/163 204/104/163 206/113/163
f 196/114/164 202/102/154 203/100/153
f 205/110/162 199/116/161 197/115/165
f 202/117/166 204/104/167 205/105/168
f 203/118/169 199/120/169 201/119/169
f 198/121/170 203/118/170 201/122/170
f 206/113/171 204/104/172 202/117/173
f 206/108/158 198/106/157 201/122/174
f 203/100/153 197/101/155 199/123/175
f 201/109/160 205/110/162 200/103/176
f 196/114/164 203/100/153 198/124/177
f 202/117/166 205/105/168 197/125/178
f 206/113/171 202/117/173 196/126/179
f 206/108/158 201/122/174 200/127/180
o Cube.005
v -0.590655 -0.881799 7.499640
v -0.590655 0.988260 7.499640
v -0.414869 -0.663792 -5.360762
v -0.414869 0.555712 -5.360762
v 0.590655 -0.881799 7.499640
v 0.590655 0.988260 7.499640
v 0.414869 -0.663792 -5.360762
v 0.414869 0.555712 -5.360762
v 0.000000 -0.663792 -5.360762
v 0.000000 0.555712 -5.360762
v 0.000000 -0.881799 7.499640
v 0.000000 1.357554 7.214827
v -0.829739 0.035036 7.499640
v -0.710067 0.060622 -5.360762
v 0.710067 0.060622 -5.360762
v 0.829739 0.035036 7.499640
v -0.437033 0.603914 11.880247
v 0.000000 0.060622 -5.360762
v -0.414869 -0.881799 7.499640
v -0.414869 0.060622 -5.360762
v 0.437033 -0.768225 11.890854
v 0.414869 -0.881799 7.499640
v 0.000000 -0.768225 11.890854
v 0.414869 0.060622 -5.360762
v -0.829739 0.607163 7.499640
v 0.000000 1.386090 8.629528
v -0.590655 0.988260 8.914341
v 0.829739 0.607163 7.499640
v -0.437033 -0.768225 11.890854
v 0.829739 0.035038 8.914341
v -0.829739 0.035038 8.914341
v 0.000000 -0.203220 15.440481
v -0.613935 -0.089836 11.890854
v -0.590655 -0.881799 8.914341
v 0.000000 -0.881799 8.914341
v 0.829739 -0.746310 7.499640
v 0.613935 -0.089836 11.890854
v 0.590655 -0.881799 8.914341
v -0.829739 -0.746310 7.499640
v -0.306967 0.663387 12.226170
v 0.590655 0.988260 8.914341
v 0.000000 0.615465 12.463646
v -0.414869 -0.881799 8.914341
v 0.414869 -0.881799 8.914341
v -0.829739 0.607163 8.914341
v 0.829739 0.607163 8.914341
v 0.829739 -0.746310 8.914341
v -0.829739 -0.746310 8.914341
v 0.437033 0.603914 11.880247
v -0.306967 -0.768225 11.890854
v 0.306967 -0.768225 11.890854
v 0.306967 0.663387 12.226170
v -0.613935 0.333482 11.890854
v 0.613935 0.333482 11.890854
v 0.613935 -0.667975 11.890854
v -0.613935 -0.667975 11.890854
v -0.281572 0.270146 14.005222
v 0.281572 -0.621334 14.005222
v 0.000000 -0.621334 14.005222
v -0.281572 -0.621334 14.005222
v -0.395547 -0.184266 14.005222
v 0.395547 -0.184266 14.005222
v 0.000000 0.270146 14.005222
v 0.281572 0.270146 14.005222
v -0.197774 -0.621334 14.005222
v 0.197774 -0.621334 14.005222
v -0.395547 0.088472 14.005222
v 0.395547 0.088472 14.005222
v 0.395547 -0.556747 14.005222
v -0.395547 -0.556747 14.005222
v -0.721837 -0.027411 10.479570
v 0.721837 -0.027411 10.479570
v 0.721837 0.470313 10.479570
v 0.513844 0.801850 10.479570
v -0.513844 0.801850 10.479570
v -0.721837 0.470313 10.479570
v 0.360919 -0.825019 10.479570
v 0.000000 1.256754 9.893192
v -0.360919 -0.825019 10.479570
v 0.000000 -0.825019 10.479570
v 0.513844 -0.825019 10.479570
v 0.721837 -0.707151 10.479570
v -0.721837 -0.707151 10.479570
v -0.513844 -0.825019 10.479570
v -0.207434 0.555712 -5.360762
v -0.207434 -0.881799 7.499640
v -0.207434 1.331715 8.629528
v -0.207434 0.060622 -5.360762
v -0.207434 -0.663792 -5.360762
v -0.207434 1.303179 7.214827
v -0.207434 -0.881799 8.914341
v -0.153484 -0.768225 11.890854
v -0.098887 -0.621334 14.005222
v -0.180459 -0.825019 10.479570
v -0.180459 1.202379 9.893192
v 0.207434 -0.663792 -5.360762
v 0.207434 1.303179 7.214827
v 0.207434 1.331715 8.629528
v 0.207434 0.555712 -5.360762
v 0.207434 -0.881799 7.499640
v 0.207434 0.060622 -5.360762
v 0.207434 -0.881799 8.914341
v 0.153484 -0.768225 11.890854
v 0.098887 -0.621334 14.005222
v 0.180459 1.202379 9.893192
v 0.180459 -0.825019 10.479570
v -0.414869 1.096824 3.145880
v 0.414869 1.096824 3.145880
v 0.000000 1.096824 3.145880
v 0.142680 1.267886 5.815451
v -0.134626 1.272947 5.894440
vn -0.8525 0.5226 0.0105
vn 0.0777 0.9953 -0.0582
vn -0.7670 0.6408 -0.0328
vn -0.0777 0.9953 -0.0578
vn 0.8525 0.5226 0.0105
vn 0.7670 0.6408 -0.0326
vn -0.4844 -0.8748 -0.0061
vn -0.4930 -0.8700 -0.0000
vn -0.4930 -0.8700 -0.0050
vn 0.2456 -0.9693 -0.0136
vn 0.0116 -0.9999 0.0028
vn -0.0000 -1.0000 -0.0023
vn -0.0000 -0.9999 -0.0169
vn -0.0000 -1.0000 -0.0085
vn -0.0000 -1.0000 -0.0000
vn -0.0000 -0.9993 0.0382
vn -0.0000 -0.9992 0.0402
vn -0.0000 -0.0000 -1.0000
vn -1.0000 -0.0000 -0.0041
vn -1.0000 -0.0000 -0.0000
vn -1.0000 0.0002 -0.0044
vn 0.8666 -0.4319 -0.2500
vn 1.0000 0.0004 -0.0046
vn 0.9998 0.0185 -0.0084
vn -0.7962 0.4435 -0.4114
vn -1.0000 -0.0004 -0.0046
vn 0.9971 -0.0000 0.0762
vn 1.0000 -0.0002 -0.0044
vn 1.0000 -0.0000 -0.0000
vn 0.8291 0.5469 0.1164
vn -0.9329 -0.3591 -0.0264
vn 0.4930 -0.8700 -0.0051
vn 0.4930 -0.8700 -0.0000
vn -0.8471 0.5314 -0.0000
vn -0.8470 0.5314 0.0118
vn 0.8095 -0.3837 -0.4444
vn 1.0000 -0.0000 -0.0040
vn -0.9971 -0.0000 0.0762
vn -0.9974 -0.0000 0.0725
vn -0.9976 -0.0001 0.0687
vn -0.2819 -0.9594 -0.0131
vn 0.9974 -0.0000 0.0725
vn 0.8470 0.5314 0.0118
vn 0.8471 0.5314 -0.0000
vn -0.6915 0.7090 0.1381
vn -0.0000 -0.9993 0.0362
vn -0.8409 0.5276 0.1207
vn -0.0000 -0.9992 0.0403
vn 0.4921 -0.8683 0.0621
vn 0.4921 -0.8684 0.0617
vn -0.4921 -0.8683 0.0621
vn -0.4921 -0.8684 0.0617
vn -0.4923 -0.8686 0.0556
vn -0.8252 0.5456 0.1461
vn -0.0000 -0.9976 0.0693
vn 0.4907 -0.8660 0.0962
vn -0.4907 -0.8660 0.0962
vn 0.7265 0.6687 0.1582
vn -0.0000 0.9741 0.2260
vn 0.0104 0.9762 0.2167
vn 0.0147 0.9763 0.2160
vn 0.9947 -0.0000 0.1027
vn -0.7265 0.6687 0.1582
vn 0.8378 0.5256 0.1474
vn -0.9947 -0.0000 0.1027
vn -0.4923 -0.8687 0.0557
vn 0.4923 -0.8687 0.0557
vn 0.4923 -0.8686 0.0554
vn -0.0000 -0.9993 0.0363
vn -0.8425 0.5285 0.1043
vn 0.9976 -0.0000 0.0688
vn 0.9977 -0.0001 0.0685
vn -0.9976 -0.0000 0.0688
vn 0.8425 0.5285 0.1043
vn -0.0104 0.9762 0.2167
vn -0.0000 0.9758 0.2186
vn -0.0000 0.9980 -0.0635
vn 0.1096 0.9902 -0.0867
vn 0.8409 0.5276 0.1207
vn -0.9997 -0.0234 -0.0088
vn -0.8291 0.5469 0.1164
vn -0.8378 0.5256 0.1474
vn 0.8252 0.5456 0.1461
vn -0.0147 0.9763 0.2160
vn 0.6915 0.7090 0.1381
vn -0.6540 0.7441 0.1365
vn -0.2089 0.9741 -0.0866
vn -0.3830 0.9227 -0.0437
vn -0.6381 0.7699 -0.0075
vn -0.6417 0.7668 -0.0155
vn -0.6410 0.7674 -0.0144
vn 0.2535 0.9671 -0.0195
vn 0.2826 0.9379 0.2014
vn 0.2869 0.9523 0.1036
vn -0.6255 0.7747 0.0926
vn -0.2523 0.9626 0.0985
vn -0.2535 0.9671 -0.0195
vn -0.0358 0.9696 0.2419
vn 0.6694 0.7331 0.1202
vn 0.6540 0.7441 0.1365
vn 0.6674 0.7447 -0.0000
vn 0.6381 0.7699 -0.0075
vn 0.6378 0.7702 -0.0065
vn 0.6410 0.7674 -0.0144
vn -0.6378 0.7702 -0.0065
vn -0.4128 0.9098 -0.0429
vn -0.6674 0.7447 -0.0000
vn 0.0358 0.9696 0.2419
vn 0.2523 0.9626 0.0985
vn -0.6694 0.7331 0.1202
vn -0.2869 0.9523 0.1036
vn 0.2024 0.9743 -0.0987
vn 0.1682 0.9852 -0.0325
vn -0.2826 0.9379 0.2014
vn 0.6255 0.7747 0.0926
vn 0.6417 0.7668 -0.0155
vn 0.3830 0.9227 -0.0438
vn 0.9641 -0.0000 0.2657
vn -0.0000 0.9497 0.3132
vn 0.8017 0.5029 0.3231
vn -0.0000 -0.9601 0.2797
vn -0.9641 -0.0000 0.2657
vn -0.8017 0.5029 0.3231
vn 0.4653 -0.8211 0.3305
vn -0.4653 -0.8211 0.3305
vt 0.562500 0.000000
vt 0.613393 0.046428
vt 0.562500 0.250000
vt 0.625000 0.703572
vt 0.562500 0.750000
vt 0.625000 0.500000
vt 0.375000 0.000000
vt 0.437500 0.000000
vt 0.312500 0.500000
vt 0.375000 0.750000
vt 0.312500 0.750000
vt 0.250000 0.500000
vt 0.218750 0.750000
vt 0.218750 0.500000
vt 0.250000 0.750000
vt 0.281250 0.750000
vt 0.500000 0.343750
vt 0.437500 0.375000
vt 0.437500 0.343750
vt 0.187500 0.750000
vt 0.125000 0.750000
vt 0.500000 0.000000
vt 0.500000 0.500000
vt 0.437500 0.750000
vt 0.437500 0.500000
vt 0.437500 0.250000
vt 0.500000 0.750000
vt 0.500000 0.406250
vt 0.437500 0.437500
vt 0.437500 0.406250
vt 0.281250 0.500000
vt 0.625000 0.750000
vt 0.562500 0.406250
vt 0.500000 0.437500
vt 0.500000 0.312500
vt 0.500000 0.250000
vt 0.562500 0.343750
vt 0.500000 0.375000
vt 0.625000 0.000000
vt 0.562500 0.500000
vt 0.562500 0.437500
vt 0.375000 0.250000
vt 0.875000 0.750000
vt 0.812500 0.750000
vt 0.687500 0.750000
vt 0.750000 0.750000
vt 0.718750 0.750000
vt 0.781250 0.750000
vt 0.562500 0.312500
vt 0.437500 0.312500
vt 0.187500 0.500000
vt 0.562500 0.375000
vt 0.687500 0.500000
vt 0.718750 0.500000
vt 0.687500 0.703572
vt 0.781250 0.500000
vt 0.750000 0.703572
vt 0.750000 0.500000
vt 0.812500 0.500000
vt 0.781250 0.703572
vt 0.718750 0.703572
vt 0.760141 0.734934
vt 0.739253 0.734033
s 1
usemtl Material.01
f 231/128/181 313/129/182 210/130/183
f 314/131/184 234/132/185 214/133/186
f 207/134/187 254/135/188 245/135/189
f 213/136/190 211/137/191 228/138/192
f 215/139/193 292/140/194 295/141/193
f 217/142/194 297/140/195 292/140/194
f 312/143/196 257/138/197 309/143/197
f 294/144/198 215/145/198 295/146/198
f 225/147/194 240/148/195 207/148/187
f 245/135/199 237/149/200 219/149/201
f 221/150/202 242/151/203 213/152/204
f 219/149/201 209/153/205 245/135/199
f 219/149/201 251/128/200 231/128/206
f 288/151/207 243/154/207 261/151/207
f 222/154/208 253/151/209 242/151/203
f 307/155/198 213/156/198 302/157/198
f 213/136/190 306/143/194 302/158/193
f 279/132/210 255/159/210 260/132/210
f 305/160/198 230/161/198 307/155/198
f 211/137/191 250/138/195 228/138/192
f 210/130/198 226/162/198 220/163/211
f 291/164/198 224/165/198 294/144/198
f 242/151/212 244/137/213 211/137/191
f 231/128/181 233/166/214 208/166/215
f 214/167/216 222/154/208 221/150/202
f 214/168/216 221/150/202 230/161/198
f 231/128/206 220/163/211 219/149/201
f 234/132/217 236/154/209 222/154/208
f 289/135/218 239/149/218 277/149/219
f 277/149/219 259/128/218 282/128/220
f 228/138/192 308/143/195 306/143/194
f 207/134/187 245/135/189 209/169/221
f 278/154/222 260/132/207 243/154/207
f 213/152/190 242/151/212 211/137/191
f 212/159/223 252/132/224 234/132/185
f 281/170/225 223/170/225 246/171/225
f 285/147/196 235/148/197 290/148/226
f 282/128/227 223/166/227 281/166/227
f 283/138/196 227/137/197 257/138/197
f 286/142/228 298/140/197 300/140/196
f 287/137/229 261/151/230 227/137/230
f 290/134/231 262/135/232 289/135/233
f 259/128/234 263/166/234 223/166/234
f 256/147/235 266/148/235 235/148/235
f 227/137/236 275/151/236 264/137/236
f 235/134/237 276/135/237 262/135/237
f 229/142/235 299/140/235 298/140/235
f 255/159/238 258/172/238 270/159/238
f 248/173/239 270/174/240 258/174/241
f 243/154/242 275/151/242 261/151/242
f 246/171/243 223/170/243 263/171/243
f 260/132/244 270/159/244 274/132/244
f 257/138/235 264/137/235 272/138/235
f 239/149/245 273/128/245 259/128/245
f 239/149/245 276/135/245 267/149/245
f 243/154/242 274/132/242 268/154/242
f 309/143/235 272/138/235 310/143/235
f 240/134/246 289/135/233 254/135/246
f 244/137/247 288/151/248 287/137/229
f 241/142/249 300/140/196 297/140/249
f 250/138/249 287/137/226 283/138/196
f 251/128/250 281/166/250 233/166/250
f 249/147/249 290/148/226 240/148/249
f 236/154/251 279/132/252 278/154/222
f 237/149/253 282/128/220 251/128/253
f 254/135/253 277/149/219 237/149/253
f 252/132/254 280/159/254 279/132/254
f 253/151/251 278/154/222 288/151/207
f 308/143/249 283/138/196 312/143/196
f 297/140/249 285/147/196 249/147/249
f 248/173/239 263/175/255 269/173/256
f 298/140/235 271/147/235 256/147/235
f 300/140/196 256/147/197 285/147/196
f 210/176/198 294/144/198 226/162/198
f 226/162/198 295/146/198 209/177/205
f 292/140/194 249/147/195 225/147/194
f 295/141/193 225/147/194 209/178/221
f 241/142/249 312/143/196 286/142/228
f 229/142/235 310/143/235 265/142/235
f 306/143/194 241/142/195 217/142/194
f 216/179/198 307/155/198 224/165/198
f 302/158/193 217/142/194 215/139/193
f 224/165/198 302/157/198 215/145/198
f 286/142/228 309/143/197 229/142/197
f 214/180/186 305/181/257 314/182/184
f 291/183/257 315/184/258 216/185/257
f 291/183/257 210/186/183 313/187/182
f 305/181/257 315/184/258 314/188/184
f 231/128/181 208/166/215 313/129/182
f 314/131/184 212/159/223 234/132/185
f 207/134/187 240/134/188 254/135/188
f 215/139/193 217/142/194 292/140/194
f 217/142/194 241/142/195 297/140/195
f 312/143/196 283/138/196 257/138/197
f 294/144/198 224/165/198 215/145/198
f 225/147/194 249/147/195 240/148/195
f 245/135/199 254/135/200 237/149/200
f 221/150/202 222/154/208 242/151/203
f 230/161/198 221/150/202 213/152/198
f 219/149/201 220/163/211 209/153/205
f 219/149/201 237/149/200 251/128/200
f 220/163/211 226/162/198 209/177/205
f 288/151/207 278/154/222 243/154/207
f 209/178/221 225/147/194 207/148/187
f 222/154/208 236/154/209 253/151/209
f 307/155/198 230/161/198 213/156/198
f 213/136/190 228/138/192 306/143/194
f 279/132/259 280/159/259 255/159/259
f 305/160/198 214/168/216 230/161/198
f 211/137/191 244/137/195 250/138/195
f 291/164/198 216/179/198 224/165/198
f 242/151/212 253/151/213 244/137/213
f 231/128/181 251/128/214 233/166/214
f 214/167/216 234/132/217 222/154/208
f 231/128/206 210/130/260 220/163/211
f 234/132/217 252/132/209 236/154/209
f 289/135/218 262/135/218 239/149/218
f 277/149/219 239/149/218 259/128/218
f 228/138/192 250/138/195 308/143/195
f 278/154/222 279/132/252 260/132/207
f 212/159/223 247/159/224 252/132/224
f 285/147/196 256/147/197 235/148/197
f 282/128/261 259/128/261 223/166/261
f 283/138/196 287/137/226 227/137/197
f 286/142/228 229/142/197 298/140/197
f 287/137/229 288/151/248 261/151/230
f 290/134/231 235/134/232 262/135/232
f 259/128/262 273/128/262 263/166/262
f 256/147/235 271/147/235 266/148/235
f 227/137/236 261/151/236 275/151/236
f 235/134/237 266/134/237 276/135/237
f 229/142/235 265/142/235 299/140/235
f 248/173/239 269/173/256 270/174/240
f 243/154/242 268/154/242 275/151/242
f 260/132/263 255/159/263 270/159/263
f 257/138/235 227/137/235 264/137/235
f 239/149/245 267/149/245 273/128/245
f 239/149/245 262/135/245 276/135/245
f 243/154/242 260/132/242 274/132/242
f 309/143/235 257/138/235 272/138/235
f 240/134/246 290/134/231 289/135/233
f 244/137/247 253/151/247 288/151/248
f 241/142/249 286/142/228 300/140/196
f 250/138/249 244/137/249 287/137/226
f 251/128/250 282/128/250 281/166/250
f 249/147/249 285/147/196 290/148/226
f 236/154/251 252/132/251 279/132/252
f 237/149/253 277/149/219 282/128/220
f 254/135/253 289/135/218 277/149/219
f 252/132/254 247/159/254 280/159/254
f 253/151/251 236/154/251 278/154/222
f 308/143/249 250/138/249 283/138/196
f 297/140/249 300/140/196 285/147/196
f 248/173/239 246/175/264 263/175/255
f 298/140/235 299/140/235 271/147/235
f 300/140/196 298/140/197 256/147/197
f 210/176/198 291/164/198 294/144/198
f 226/162/198 294/144/198 295/146/198
f 292/140/194 297/140/195 249/147/195
f 295/141/193 292/140/194 225/147/194
f 241/142/249 308/143/249 312/143/196
f 229/142/235 309/143/235 310/143/235
f 306/143/194 308/143/195 241/142/195
f 216/179/198 305/160/198 307/155/198
f 302/158/193 306/143/194 217/142/194
f 224/165/198 307/155/198 302/157/198
f 286/142/228 312/143/196 309/143/197
f 291/183/257 313/187/182 315/184/258
f 305/181/257 216/185/257 315/184/258
usemtl Material.05
f 280/172/265 258/172/265 255/159/265
f 301/175/266 281/171/266 246/175/266
f 315/184/258 317/189/267 218/173/268
f 208/171/269 293/175/270 296/175/271
f 218/173/272 304/174/272 303/174/272
f 284/173/273 258/174/273 311/174/273
f 304/174/274 284/173/274 311/174/274
f 233/171/275 301/175/275 293/175/275
f 293/175/276 284/173/276 232/173/276
f 218/173/277 293/175/277 232/173/277
f 284/173/278 246/175/278 248/173/278
f 247/172/279 311/174/279 280/172/279
f 280/172/280 311/174/280 258/174/280
f 212/172/281 304/174/281 247/172/281
f 212/172/282 314/188/283 303/174/284
f 208/171/269 296/175/271 313/187/285
f 218/173/268 317/189/267 296/175/286
f 208/171/287 233/171/287 293/175/287
f 218/173/272 232/173/272 304/174/272
f 284/173/288 248/173/288 258/174/288
f 304/174/289 232/173/289 284/173/289
f 233/171/290 281/171/290 301/175/290
f 293/175/291 301/175/291 284/173/291
f 218/173/277 296/175/277 293/175/277
f 314/188/184 316/190/292 303/174/293
f 284/173/294 301/175/294 246/175/294
f 247/172/295 304/174/295 311/174/295
f 212/172/282 303/174/284 304/174/296
f 315/184/258 218/173/297 316/190/292
f 296/175/286 317/189/267 313/187/182
f 316/190/292 314/188/184 315/184/258
f 317/189/267 315/184/258 313/187/182
f 303/174/293 316/190/292 218/173/297
usemtl Material.09
f 275/151/298 268/154/298 238/151/298
f 270/174/299 269/173/299 238/172/299
f 274/132/300 270/159/300 238/132/300
f 272/138/301 264/137/301 238/138/301
f 273/128/302 267/149/302 238/128/302
f 268/154/298 274/132/298 238/154/298
f 310/143/301 238/142/301 265/142/301
f 263/166/303 273/128/303 238/166/303
f 267/149/302 276/135/302 238/149/302
f 266/148/301 271/147/301 238/148/301
f 264/137/304 275/151/304 238/137/304
f 269/173/299 263/171/299 238/173/299
f 276/135/305 266/134/305 238/135/305
f 299/140/301 238/147/301 271/147/301
f 310/143/301 272/138/301 238/142/301
f 299/140/301 265/142/301 238/147/301
o Cube.006
v 1.966191 -0.058778 -9.712996
v 2.010463 0.061181 -9.712996
v 1.953853 -0.035961 -6.147407
v 1.998126 0.083998 -6.147407
v 4.846187 -0.930048 -9.982718
v 4.846187 -0.930049 -9.011987
v 1.988328 0.001200 -10.277657
v 1.975990 0.024018 -5.758134
v 3.069740 -0.324705 -11.378197
v 3.081759 -0.290311 -10.813535
v 3.054653 -0.362475 -10.813535
v -1.966191 -0.058778 -9.712996
v -2.010463 0.061181 -9.712996
v -1.953853 -0.035961 -6.147407
v -1.998126 0.083998 -6.147407
v -4.846187 -0.930048 -9.982718
v -4.846187 -0.930049 -9.011987
v -1.988328 0.001200 -10.277657
v -1.975990 0.024018 -5.758134
v -3.069740 -0.324705 -11.378197
v -3.081759 -0.290311 -10.813535
v -3.054653 -0.362475 -10.813535
vn -0.9345 0.3559 -0.0048
vn -0.9371 0.3489 -0.0050
vn 0.3668 0.9281 -0.0643
vn -0.2638 -0.9646 0.0053
vn 0.3391 0.9408 0.0020
vn 0.3239 0.9461 -0.0005
vn 0.3228 0.9465 -0.0008
vn -0.2710 -0.9599 -0.0714
vn -0.9393 0.3430 -0.0049
vn -0.9417 0.3363 -0.0046
vn 0.3071 0.9517 -0.0050
vn 0.2083 0.9738 -0.0908
vn 0.2235 0.9710 -0.0848
vn 0.2222 0.9708 -0.0901
vn 0.4704 0.8678 0.1605
vn -0.1447 -0.9767 0.1587
vn -0.3567 -0.9303 -0.0859
vn -0.3690 -0.9242 -0.0986
vn -0.3565 -0.9302 -0.0872
vn -0.2995 -0.9541 -0.0028
vn -0.2998 -0.9540 -0.0024
vn -0.2987 -0.9544 -0.0037
vn -0.9339 0.3576 -0.0047
vn 0.3425 0.9395 -0.0018
vn -0.9424 0.3343 -0.0045
vn 0.2095 0.9741 -0.0853
vn -0.3691 -0.9243 -0.0970
vn -0.3020 -0.9533 -0.0000
vn 0.9345 0.3559 -0.0048
vn 0.9371 0.3489 -0.0050
vn -0.3668 0.9281 -0.0643
vn 0.2638 -0.9646 0.0053
vn -0.3391 0.9408 0.0020
vn -0.3228 0.9465 -0.0008
vn -0.3239 0.9461 -0.0005
vn 0.2710 -0.9599 -0.0714
vn 0.9393 0.3430 -0.0049
vn 0.9417 0.3363 -0.0046
vn -0.3071 0.9517 -0.0050
vn -0.2083 0.9738 -0.0908
vn -0.2222 0.9708 -0.0901
vn -0.2235 0.9710 -0.0848
vn -0.4704 0.8678 0.1605
vn 0.1447 -0.9767 0.1587
vn 0.3567 -0.9303 -0.0859
vn 0.3565 -0.9302 -0.0872
vn 0.3689 -0.9242 -0.0986
vn 0.2995 -0.9541 -0.0028
vn 0.2987 -0.9544 -0.0037
vn 0.2998 -0.9540 -0.0024
vn 0.9339 0.3576 -0.0047
vn -0.3425 0.9395 -0.0018
vn 0.9424 0.3343 -0.0045
vn -0.2095 0.9741 -0.0853
vn 0.3691 -0.9243 -0.0970
vn 0.3020 -0.9533 -0.0000
vt 0.500000 0.250000
vt 0.625000 0.000000
vt 0.500000 0.000000
vt 0.625000 0.750000
vt 0.500000 0.875000
vt 0.625000 0.875000
vt 0.250832 0.500000
vt 0.125000 0.750000
vt 0.250832 0.750000
vt 0.625000 0.500000
vt 0.750000 0.750000
vt 0.750000 0.500000
vt 0.500000 0.750000
vt 0.375000 0.874168
vt 0.375000 0.000000
vt 0.875000 0.750000
vt 0.875000 0.500000
vt 0.500000 1.000000
vt 0.500000 0.375000
vt 0.500000 0.500000
vt 0.625000 0.375000
vt 0.375000 0.375832
vt 0.375000 0.500000
vt 0.625000 0.250000
vt 0.375000 0.250000
vt 0.625000 1.000000
vt 0.375000 1.000000
vt 0.375000 0.750000
s 1
usemtl Material.04
f 325/191/306 319/192/307 324/193/307
f 322/194/308 326/195/308 327/196/308
f 320/197/309 318/198/309 328/199/309
f 323/200/310 327/201/311 321/202/312
f 322/203/313 328/204/313 326/195/313
f 318/205/314 325/191/315 324/193/314
f 327/201/311 319/206/316 321/207/312
f 324/208/317 327/196/318 326/195/319
f 325/209/320 323/210/320 321/211/320
f 320/212/321 323/213/321 325/209/321
f 328/204/322 324/208/323 326/195/324
f 328/199/325 323/213/326 320/197/327
f 325/191/306 321/214/328 319/192/307
f 323/200/310 322/194/329 327/201/311
f 318/205/314 320/215/330 325/191/315
f 324/208/317 319/216/331 327/196/318
f 328/204/322 318/217/332 324/208/323
f 328/199/325 322/218/333 323/213/326
f 336/191/334 335/193/335 330/192/335
f 333/194/336 338/196/336 337/195/336
f 331/197/337 339/199/337 329/198/337
f 334/200/338 332/202/339 338/201/340
f 333/203/341 337/195/341 339/204/341
f 329/205/342 335/193/342 336/191/343
f 338/201/340 332/207/339 330/206/344
f 335/208/345 337/195/346 338/196/347
f 336/209/348 332/211/348 334/210/348
f 331/212/349 336/209/349 334/213/349
f 339/204/350 337/195/351 335/208/352
f 339/199/353 331/197/354 334/213/355
f 336/191/334 330/192/335 332/214/356
f 334/200/338 338/201/340 333/194/357
f 329/205/342 336/191/343 331/215/358
f 335/208/345 338/196/347 330/216/359
f 339/204/350 335/208/352 329/217/360
f 339/199/353 334/213/355 333/218/361
