# Blender 5.0.0
# www.blender.org
mtllib sf15b.mtl
o Cube
v 1.226015 0.401506 -4.087200
v 1.226015 -0.401507 -4.087200
v 1.393730 0.423786 4.482550
v 1.393730 -0.420472 2.516860
v 0.458156 -0.420472 2.516860
v 0.031337 0.401506 -4.087200
v 0.031337 -0.401507 -4.087200
v 0.458156 0.423786 4.482550
v 1.051167 0.279769 -5.381607
v 1.051167 -0.279770 -5.381607
v 0.161705 0.279769 -5.381607
v 0.161705 -0.279770 -5.381607
v 0.071990 0.365892 -4.518601
v 0.071990 -0.365893 -4.518601
v 1.190121 -0.365893 -4.518601
v 1.190121 0.365892 -4.518601
v 0.631056 -0.274419 -4.518601
v 0.631056 0.274418 -4.518601
v 1.190121 0.274418 -4.518601
v 0.606436 -0.321898 -4.890765
v 0.606436 0.321897 -4.890765
v 0.071990 -0.274419 -4.518601
v 0.631056 -0.365893 -4.518601
v 0.631056 0.365892 -4.518601
v 0.925943 0.423786 4.482550
v 0.628676 -0.401507 -4.087200
v 1.190121 -0.274419 -4.518601
v 0.628676 0.401506 -4.087200
v 0.925943 -0.420472 2.516860
v 0.071990 0.274418 -4.518601
v 1.371593 0.505757 0.355134
v 1.371593 -0.506202 -0.627710
v 0.117744 0.505757 0.355134
v 0.117744 -0.506202 -0.627710
v 0.744668 0.505757 0.355134
v 0.744668 -0.506202 -0.627710
v -1.226015 0.401506 -4.087200
v -1.226015 -0.401507 -4.087200
v -1.393730 0.423786 4.482550
v -1.393730 -0.420472 2.516860
v -0.458156 -0.420472 2.516860
v -0.031337 0.401506 -4.087200
v -0.031337 -0.401507 -4.087200
v -0.458156 0.423786 4.482550
v -1.051167 0.279769 -5.381607
v -1.051167 -0.279770 -5.381607
v -0.161705 0.279769 -5.381607
v -0.161705 -0.279770 -5.381607
v -0.071990 0.365892 -4.518601
v -0.071990 -0.365893 -4.518601
v -1.190121 -0.365893 -4.518601
v -1.190121 0.365892 -4.518601
v -0.631056 -0.274419 -4.518601
v -0.631056 0.274418 -4.518601
v -1.190121 0.274418 -4.518601
v -0.606436 -0.321898 -4.890765
v -0.606436 0.321897 -4.890765
v -0.071990 -0.274419 -4.518601
v -0.631056 -0.365893 -4.518601
v -0.631056 0.365892 -4.518601
v -0.925943 0.423786 4.482550
v -0.628676 -0.401507 -4.087200
v -1.190121 -0.274419 -4.518601
v -0.628676 0.401506 -4.087200
v -0.925943 -0.420472 2.516860
v -0.071990 0.274418 -4.518601
v -1.371593 0.505757 0.355134
v -1.371593 -0.506202 -0.627710
v -0.117744 0.505757 0.355134
v -0.117744 -0.506202 -0.627710
v -0.744668 0.505757 0.355134
v -0.744668 -0.506202 -0.627710
vn -0.0000 -0.9996 0.0273
vn 0.9999 0.0099 -0.0060
vn 0.9999 0.0091 -0.0062
vn 0.9999 0.0070 -0.0072
vn -0.0000 0.9998 0.0199
vn -0.0000 -0.9995 -0.0302
vn -0.0000 0.9997 -0.0235
vn 0.9991 -0.0000 -0.0420
vn 0.9999 0.0119 -0.0051
vn 0.9989 0.0325 -0.0335
vn -0.9999 0.0099 -0.0060
vn -0.9999 0.0070 -0.0072
vn -0.9999 0.0091 -0.0062
vn -0.9991 -0.0000 -0.0420
vn -0.9999 0.0119 -0.0051
vn -0.9989 0.0325 -0.0335
vn 0.9873 -0.0000 -0.1590
vn 0.9966 -0.0000 -0.0829
vn -0.9956 -0.0000 -0.0938
vn -0.9953 -0.0000 -0.0970
vn -0.9946 -0.0000 -0.1034
vn -0.9947 -0.0000 -0.1031
vn -0.9957 -0.0001 -0.0930
vn -0.9873 -0.0000 -0.1590
vn -0.9966 -0.0000 -0.0829
vn 0.9956 -0.0000 -0.0938
vn 0.9953 -0.0000 -0.0970
vn 0.9946 -0.0000 -0.1034
vn 0.9955 0.0001 -0.0943
vn 0.9947 -0.0000 -0.1031
vn -0.0000 -0.9931 -0.1174
vn -0.0000 0.9931 -0.1174
vn -0.0000 0.9966 -0.0823
vn -0.0000 -0.9966 -0.0823
vn 0.0907 -0.9959 0.0033
vn -0.0000 0.9920 -0.1265
vn -0.0859 0.9963 0.0077
vn -0.0859 -0.9963 0.0077
vn 0.0138 0.9951 -0.0979
vn -0.0130 -0.9952 -0.0972
vn 0.0138 -0.9951 -0.0979
vn -0.0130 0.9952 -0.0972
vn -0.0000 -0.9920 -0.1265
vn 0.0907 0.9959 0.0033
vn -0.0907 -0.9959 0.0033
vn 0.0859 0.9963 0.0077
vn 0.0859 -0.9963 0.0077
vn -0.0138 0.9951 -0.0979
vn 0.0130 -0.9952 -0.0972
vn -0.0138 -0.9951 -0.0979
vn 0.0130 0.9952 -0.0972
vn -0.0907 0.9959 0.0033
vn -0.0000 -0.9188 0.3946
vn -0.0000 -0.0000 -1.0000
vt 0.375000 0.625000
vt 0.343750 0.750000
vt 0.343750 0.625000
vt 0.625000 0.625000
vt 0.375000 0.750000
vt 0.656250 0.625000
vt 0.687500 0.750000
vt 0.656250 0.750000
vt 0.625000 0.750000
vt 0.312500 0.750000
vt 0.312500 0.625000
vt 0.343750 0.500000
vt 0.312500 0.500000
vt 0.625000 0.500000
vt 0.656250 0.500000
vt 0.687500 0.625000
vt 0.375000 0.500000
vt 0.687500 0.500000
vt 0.593750 0.500000
vt 0.406250 0.500000
vt 0.000000 0.000000
vt 0.593750 0.437500
vt 0.593750 0.468750
vt 0.406250 0.468750
vt 0.203125 0.250000
vt 0.296875 0.250000
vt 0.406250 0.437500
vt 0.625000 0.781250
vt 0.375000 0.812500
vt 0.375000 0.781250
vt 0.625000 0.812500
s 1
usemtl Material.013
f 32/1/1 29/2/1 36/3/1
f 31/4/2 4/5/3 32/1/4
f 35/6/5 8/7/5 25/8/5
f 31/4/5 25/8/5 3/9/5
f 36/3/1 5/10/1 34/11/1
f 26/12/6 34/11/6 7/13/6
f 1/14/7 35/6/7 31/4/7
f 28/15/7 33/16/7 35/6/7
f 1/14/8 32/1/8 2/17/8
f 2/17/6 36/3/6 26/12/6
f 32/1/1 4/5/1 29/2/1
f 31/4/2 3/9/9 4/5/3
f 35/6/5 33/16/5 8/7/5
f 31/4/5 35/6/5 25/8/5
f 36/3/1 29/2/1 5/10/1
f 26/12/6 36/3/6 34/11/6
f 1/14/7 28/15/7 35/6/7
f 28/15/7 6/18/7 33/16/7
f 1/14/10 31/4/10 32/1/10
f 2/17/6 32/1/6 36/3/6
f 68/1/1 72/3/1 65/2/1
f 67/4/11 68/1/12 40/5/13
f 71/6/5 61/8/5 44/7/5
f 67/4/5 39/9/5 61/8/5
f 72/3/1 70/11/1 41/10/1
f 62/12/6 43/13/6 70/11/6
f 37/14/7 67/4/7 71/6/7
f 64/15/7 71/6/7 69/16/7
f 37/14/14 38/17/14 68/1/14
f 38/17/6 62/12/6 72/3/6
f 68/1/1 65/2/1 40/5/1
f 67/4/11 40/5/13 39/9/15
f 71/6/5 44/7/5 69/16/5
f 67/4/5 61/8/5 71/6/5
f 72/3/1 41/10/1 65/2/1
f 62/12/6 70/11/6 72/3/6
f 37/14/7 71/6/7 64/15/7
f 64/15/7 69/16/7 42/18/7
f 37/14/16 68/1/16 67/4/16
f 38/17/6 72/3/6 68/1/6
f 16/14/17 19/19/17 9/14/17
f 2/17/18 27/20/18 19/19/18
f 6/21/19 30/21/20 22/21/19
f 10/20/17 27/20/17 15/17/17
f 12/13/21 14/13/22 22/21/23
f 11/22/21 30/21/20 13/21/22
f 16/14/18 1/14/18 19/19/18
f 1/14/18 2/17/18 19/19/18
f 2/17/18 15/17/18 27/20/18
f 14/21/22 7/21/19 22/21/23
f 7/21/19 6/21/19 22/21/23
f 6/21/19 13/21/22 30/21/20
f 52/14/24 45/14/24 55/19/24
f 38/17/25 55/19/25 63/20/25
f 42/21/26 58/21/26 66/21/27
f 46/20/24 51/17/24 63/20/24
f 48/13/28 58/21/29 50/13/30
f 47/22/28 49/21/30 66/21/27
f 52/14/25 55/19/25 37/14/25
f 37/14/25 55/19/25 38/17/25
f 38/17/25 63/20/25 51/17/25
f 50/21/30 58/21/29 43/21/26
f 43/21/26 58/21/26 42/21/26
f 42/21/26 66/21/27 49/21/30
f 14/13/31 20/12/31 23/12/31
f 16/14/32 21/15/32 24/15/32
f 28/15/33 16/14/33 24/15/33
f 26/12/34 14/13/34 23/12/34
f 21/23/35 30/21/35 11/22/35
f 20/24/36 22/21/36 17/25/36
f 20/24/37 27/20/37 10/20/37
f 19/19/38 21/23/38 9/19/38
f 26/12/34 15/17/34 2/17/34
f 28/15/33 13/18/33 6/18/33
f 13/18/39 21/15/39 11/18/39
f 15/17/40 20/12/40 10/17/40
f 14/13/41 12/13/41 20/12/41
f 16/14/42 9/14/42 21/15/42
f 28/15/33 1/14/33 16/14/33
f 26/12/34 7/13/34 14/13/34
f 21/23/43 18/26/43 30/21/43
f 20/24/44 12/27/44 22/21/44
f 20/24/36 17/25/36 27/20/36
f 19/19/43 18/26/43 21/23/43
f 26/12/34 23/12/34 15/17/34
f 28/15/33 24/15/33 13/18/33
f 13/18/32 24/15/32 21/15/32
f 15/17/31 23/12/31 20/12/31
f 50/13/31 59/12/31 56/12/31
f 52/14/32 60/15/32 57/15/32
f 64/15/33 60/15/33 52/14/33
f 62/12/34 59/12/34 50/13/34
f 57/23/45 47/22/45 66/21/45
f 56/24/36 53/25/36 58/21/36
f 56/24/46 46/20/46 63/20/46
f 55/19/47 45/19/47 57/23/47
f 62/12/34 38/17/34 51/17/34
f 64/15/33 42/18/33 49/18/33
f 49/18/48 47/18/48 57/15/48
f 51/17/49 46/17/49 56/12/49
f 50/13/50 56/12/50 48/13/50
f 52/14/51 57/15/51 45/14/51
f 64/15/33 52/14/33 37/14/33
f 62/12/34 50/13/34 43/13/34
f 57/23/43 66/21/43 54/26/43
f 56/24/52 58/21/52 48/27/52
f 56/24/36 63/20/36 53/25/36
f 55/19/43 57/23/43 54/26/43
f 62/12/34 51/17/34 59/12/34
f 64/15/33 49/18/33 60/15/33
f 49/18/32 57/15/32 60/15/32
f 51/17/31 56/12/31 59/12/31
f 25/28/53 5/29/53 29/30/53
f 3/9/53 29/30/53 4/5/53
f 25/28/53 8/31/53 5/29/53
f 3/9/53 25/28/53 29/30/53
f 61/28/53 65/30/53 41/29/53
f 39/9/53 40/5/53 65/30/53
f 61/28/53 41/29/53 44/31/53
f 39/9/53 65/30/53 61/28/53
f 22/21/54 18/26/54 17/25/54
f 17/25/54 19/19/54 27/20/54
f 22/21/54 30/21/54 18/26/54
f 17/25/54 18/26/54 19/19/54
f 58/21/54 53/25/54 54/26/54
f 53/25/54 63/20/54 55/19/54
f 58/21/54 54/26/54 66/21/54
f 53/25/54 55/19/54 54/26/54
o Cube.001
v -0.393982 -0.518612 4.578865
v -0.393982 0.665006 4.578865
v -0.276728 -0.380622 -3.560880
v -0.276728 0.391240 -3.560880
v 0.393982 -0.518612 4.578865
v 0.393982 0.665006 4.578865
v 0.276728 -0.380622 -3.560880
v 0.276728 0.391240 -3.560880
v 0.000000 -0.380622 -3.560880
v 0.000000 0.391240 -3.560880
v 0.000000 -0.518612 4.578865
v 0.000000 0.898744 4.398597
v -0.553457 0.061681 4.578865
v -0.473633 0.077882 -3.560880
v 0.473633 0.077882 -3.560880
v 0.553457 0.061681 4.578865
v -0.291512 0.421743 7.351486
v 0.000000 0.077882 -3.560880
v -0.276728 -0.518612 4.578865
v -0.276728 0.077882 -3.560880
v 0.291512 -0.446726 7.358200
v 0.276728 -0.518612 4.578865
v 0.000000 -0.446726 7.358200
v 0.276728 0.077882 -3.560880
v -0.553457 0.423798 4.578865
v 0.000000 0.916805 5.294006
v -0.393982 0.665006 5.474273
v 0.553457 0.423798 4.578865
v -0.291512 -0.446726 7.358200
v 0.553457 0.061682 5.474273
v -0.553457 0.061682 5.474273
v 0.000000 -0.089123 9.604868
v -0.409510 -0.017358 7.358200
v -0.393982 -0.518612 5.474273
v 0.000000 -0.518612 5.474273
v 0.553457 -0.432857 4.578865
v 0.409510 -0.017358 7.358200
v 0.393982 -0.518612 5.474273
v -0.553457 -0.432857 4.578865
v -0.204755 0.459380 7.570432
v 0.393982 0.665006 5.474273
v 0.000000 0.429049 7.720737
v -0.276728 -0.518612 5.474273
v 0.276728 -0.518612 5.474273
v -0.553457 0.423798 5.474273
v 0.553457 0.423798 5.474273
v 0.553457 -0.432857 5.474273
v -0.553457 -0.432857 5.474273
v 0.291512 0.421743 7.351486
v -0.204755 -0.446726 7.358200
v 0.204755 -0.446726 7.358200
v 0.204755 0.459380 7.570432
v -0.409510 0.250576 7.358200
v 0.409510 0.250576 7.358200
v 0.409510 -0.383275 7.358200
v -0.409510 -0.383275 7.358200
v -0.187816 0.210485 8.696449
v 0.187816 -0.353760 8.696449
v 0.000000 -0.353760 8.696449
v -0.187816 -0.353760 8.696449
v -0.263840 -0.077127 8.696449
v 0.263840 -0.077127 8.696449
v 0.000000 0.210485 8.696449
v 0.187816 0.210485 8.696449
v -0.131920 -0.353760 8.696449
v 0.131920 -0.353760 8.696449
v -0.263840 0.095498 8.696449
v 0.263840 0.095498 8.696449
v 0.263840 -0.312881 8.696449
v -0.263840 -0.312881 8.696449
v -0.481484 0.022156 6.464956
v 0.481484 0.022156 6.464956
v 0.481484 0.337181 6.464956
v 0.342747 0.547021 6.464956
v -0.342747 0.547021 6.464956
v -0.481484 0.337181 6.464956
v 0.240742 -0.482675 6.464956
v 0.000000 0.834944 6.093817
v -0.240742 -0.482675 6.464956
v 0.000000 -0.482675 6.464956
v 0.342747 -0.482675 6.464956
v 0.481484 -0.408072 6.464956
v -0.481484 -0.408072 6.464956
v -0.342747 -0.482675 6.464956
v -0.138364 0.391240 -3.560880
v -0.138364 -0.518612 4.578865
v -0.138364 0.882389 5.294006
v -0.138364 0.077882 -3.560880
v -0.138364 -0.380622 -3.560880
v -0.138364 0.864328 4.398597
v -0.138364 -0.518612 5.474273
v -0.102378 -0.446726 7.358200
v -0.065960 -0.353760 8.696449
v -0.120371 -0.482675 6.464956
v -0.120371 0.800528 6.093817
v 0.138364 -0.380622 -3.560880
v 0.138364 0.864328 4.398597
v 0.138364 0.882389 5.294006
v 0.138364 0.391240 -3.560880
v 0.138364 -0.518612 4.578865
v 0.138364 0.077882 -3.560880
v 0.138364 -0.518612 5.474273
v 0.102378 -0.446726 7.358200
v 0.065960 -0.353760 8.696449
v 0.120371 0.800528 6.093817
v 0.120371 -0.482675 6.464956
v -0.276728 0.733720 1.823236
v 0.276728 0.733720 1.823236
v 0.000000 0.733720 1.823236
v 0.095171 0.841990 3.512889
v -0.089799 0.845193 3.562884
vn -0.8399 0.5427 0.0101
vn 0.0881 0.9944 -0.0592
vn -0.7669 0.6409 -0.0335
vn -0.0881 0.9944 -0.0587
vn 0.8399 0.5427 0.0101
vn 0.7669 0.6409 -0.0335
vn -0.4742 -0.8804 -0.0061
vn -0.4736 -0.8807 -0.0000
vn -0.4736 -0.8807 -0.0051
vn 0.2456 -0.9693 -0.0139
vn 0.0010 -1.0000 0.0027
vn -0.0000 -1.0000 -0.0023
vn -0.0000 -0.9999 -0.0170
vn -0.0000 -1.0000 -0.0085
vn -0.0000 -1.0000 -0.0000
vn -0.0000 -0.9993 0.0382
vn -0.0000 -0.9992 0.0402
vn -0.0000 -0.0000 -1.0000
vn -1.0000 -0.0000 -0.0049
vn -1.0000 -0.0000 -0.0000
vn 0.8644 -0.4355 -0.2514
vn 1.0000 -0.0000 -0.0049
vn 1.0000 -0.0001 -0.0098
vn -0.7985 0.4335 -0.4177
vn 0.9968 -0.0000 0.0801
vn 0.9968 -0.0000 0.0803
vn 1.0000 -0.0000 -0.0000
vn 0.8151 0.5666 0.1206
vn -0.9366 -0.3501 -0.0169
vn 0.4736 -0.8807 -0.0052
vn 0.4736 -0.8807 -0.0000
vn -0.8342 0.5515 -0.0000
vn -0.8341 0.5515 0.0114
vn 0.8115 -0.3712 -0.4513
vn -0.9968 -0.0000 0.0801
vn -0.9968 -0.0000 0.0803
vn -0.9971 -0.0000 0.0764
vn -0.9974 -0.0001 0.0726
vn -0.2819 -0.9594 -0.0134
vn 0.9971 -0.0000 0.0764
vn 0.8341 0.5515 0.0114
vn 0.8342 0.5515 -0.0000
vn 0.6724 0.7266 0.1415
vn -0.6724 0.7266 0.1415
vn -0.0000 -0.9993 0.0361
vn -0.8276 0.5472 0.1252
vn -0.0000 -0.9992 0.0403
vn 0.4727 -0.8790 0.0628
vn 0.4727 -0.8790 0.0625
vn -0.4727 -0.8790 0.0628
vn -0.4727 -0.8790 0.0625
vn -0.4729 -0.8793 0.0563
vn -0.8111 0.5651 0.1513
vn -0.0000 -0.9976 0.0693
vn 0.4713 -0.8766 0.0974
vn -0.4713 -0.8766 0.0974
vn 0.7082 0.6870 0.1625
vn -0.0000 0.9741 0.2260
vn 0.0104 0.9762 0.2167
vn 0.0139 0.9763 0.2160
vn 0.9941 -0.0000 0.1082
vn -0.7082 0.6870 0.1625
vn 0.8244 0.5450 0.1529
vn -0.9941 -0.0000 0.1082
vn -0.4728 -0.8793 0.0564
vn 0.4728 -0.8793 0.0564
vn 0.4729 -0.8793 0.0561
vn -0.0000 -0.9993 0.0363
vn -0.8293 0.5483 0.1082
vn 0.9974 -0.0000 0.0725
vn 0.9974 -0.0001 0.0723
vn -0.9974 -0.0000 0.0725
vn 0.8293 0.5483 0.1082
vn -0.0104 0.9762 0.2167
vn -0.0000 0.9758 0.2186
vn -0.0000 0.9980 -0.0635
vn 0.1096 0.9902 -0.0867
vn 0.8276 0.5472 0.1252
vn -1.0000 -0.0000 -0.0098
vn -0.8151 0.5666 0.1206
vn -0.8244 0.5450 0.1529
vn 0.8111 0.5651 0.1513
vn -0.0139 0.9763 0.2160
vn -0.6342 0.7605 0.1395
vn -0.2030 0.9754 -0.0862
vn -0.3714 0.9274 -0.0439
vn -0.6181 0.7861 -0.0077
vn -0.6217 0.7831 -0.0158
vn -0.6211 0.7836 -0.0147
vn 0.2413 0.9702 -0.0196
vn 0.2692 0.9416 0.2022
vn 0.2734 0.9563 0.1040
vn -0.6054 0.7903 0.0945
vn -0.2402 0.9657 0.0988
vn -0.2413 0.9702 -0.0196
vn -0.0339 0.9697 0.2419
vn 0.6499 0.7500 0.1229
vn 0.6342 0.7605 0.1395
vn 0.6478 0.7618 -0.0000
vn 0.6181 0.7861 -0.0077
vn 0.6178 0.7863 -0.0067
vn 0.6211 0.7836 -0.0147
vn -0.6178 0.7863 -0.0067
vn -0.4014 0.9149 -0.0428
vn -0.6478 0.7618 -0.0000
vn 0.0339 0.9697 0.2419
vn 0.2402 0.9657 0.0988
vn -0.6499 0.7500 0.1229
vn -0.2734 0.9563 0.1040
vn 0.1962 0.9756 -0.0989
vn 0.1557 0.9873 -0.0326
vn -0.2692 0.9416 0.2022
vn 0.6054 0.7903 0.0945
vn 0.6217 0.7831 -0.0158
vn 0.3714 0.9274 -0.0440
vn 0.9603 -0.0000 0.2789
vn -0.0000 0.9497 0.3132
vn 0.7863 0.5198 0.3340
vn -0.0000 -0.9601 0.2797
vn -0.9603 -0.0000 0.2789
vn -0.7863 0.5198 0.3340
vn 0.4464 -0.8301 0.3341
vn -0.4464 -0.8301 0.3341
vt 0.562500 0.000000
vt 0.613393 0.046428
vt 0.562500 0.250000
vt 0.625000 0.703572
vt 0.562500 0.750000
vt 0.625000 0.500000
vt 0.375000 0.000000
vt 0.437500 0.000000
vt 0.312500 0.500000
vt 0.375000 0.750000
vt 0.312500 0.750000
vt 0.250000 0.500000
vt 0.218750 0.750000
vt 0.218750 0.500000
vt 0.250000 0.750000
vt 0.281250 0.750000
vt 0.500000 0.343750
vt 0.437500 0.375000
vt 0.437500 0.343750
vt 0.187500 0.750000
vt 0.125000 0.750000
vt 0.500000 0.000000
vt 0.500000 0.500000
vt 0.437500 0.750000
vt 0.437500 0.500000
vt 0.437500 0.250000
vt 0.500000 0.750000
vt 0.500000 0.406250
vt 0.437500 0.437500
vt 0.437500 0.406250
vt 0.281250 0.500000
vt 0.625000 0.750000
vt 0.562500 0.406250
vt 0.500000 0.437500
vt 0.500000 0.312500
vt 0.500000 0.250000
vt 0.562500 0.343750
vt 0.500000 0.375000
vt 0.625000 0.000000
vt 0.562500 0.500000
vt 0.562500 0.437500
vt 0.375000 0.250000
vt 0.687500 0.750000
vt 0.875000 0.750000
vt 0.812500 0.750000
vt 0.750000 0.750000
vt 0.718750 0.750000
vt 0.781250 0.750000
vt 0.562500 0.312500
vt 0.437500 0.312500
vt 0.187500 0.500000
vt 0.562500 0.375000
vt 0.687500 0.500000
vt 0.718750 0.500000
vt 0.687500 0.703572
vt 0.781250 0.500000
vt 0.750000 0.703572
vt 0.750000 0.500000
vt 0.812500 0.500000
vt 0.781250 0.703572
vt 0.718750 0.703572
vt 0.760141 0.734934
vt 0.739253 0.734033
s 1
usemtl Material.001
f 97/32/55 179/33/56 76/34/57
f 180/35/58 100/36/59 80/37/60
f 73/38/61 120/39/62 111/39/63
f 79/40/64 77/41/65 94/42/66
f 81/43/67 158/44/68 161/45/67
f 83/46/68 163/44/69 158/44/68
f 178/47/70 123/42/71 175/47/71
f 160/48/72 81/49/72 161/50/72
f 91/51/68 106/52/69 73/52/61
f 111/39/73 103/53/74 85/53/73
f 87/54/75 108/55/76 79/56/77
f 85/53/73 75/57/78 111/39/73
f 85/53/73 117/32/74 97/32/73
f 154/55/79 109/58/80 127/55/80
f 88/58/76 119/55/81 108/55/76
f 173/59/72 79/60/72 168/61/72
f 79/40/64 172/47/68 168/62/67
f 145/36/82 121/63/82 126/36/82
f 171/64/72 96/65/72 173/59/72
f 77/41/65 116/42/69 94/42/66
f 76/34/72 92/66/72 86/67/83
f 157/68/72 90/69/72 160/48/72
f 108/55/84 110/41/85 77/41/65
f 97/32/55 99/70/86 74/70/87
f 80/71/88 88/58/76 87/54/75
f 80/72/88 87/54/75 96/65/72
f 97/32/73 86/67/83 85/53/73
f 100/36/76 102/58/81 88/58/76
f 155/39/89 105/53/90 143/53/91
f 143/53/91 125/32/90 148/32/92
f 94/42/66 174/47/69 172/47/68
f 73/38/61 111/39/63 75/73/93
f 144/58/94 126/36/80 109/58/80
f 79/56/64 108/55/84 77/41/65
f 78/63/95 118/36/96 100/36/59
f 146/74/97 124/74/97 121/63/97
f 147/75/98 89/75/98 112/76/98
f 151/51/70 101/52/71 156/52/99
f 148/32/100 89/70/100 147/70/100
f 149/42/70 93/41/71 123/42/71
f 152/46/101 164/44/71 166/44/70
f 153/41/102 127/55/103 93/41/103
f 156/38/104 128/39/105 155/39/106
f 125/32/107 129/70/107 89/70/107
f 122/51/108 132/52/108 101/52/108
f 93/41/109 141/55/109 130/41/109
f 101/38/110 142/39/110 128/39/110
f 95/46/108 165/44/108 164/44/108
f 121/63/111 124/74/111 136/63/111
f 114/77/112 136/78/113 124/78/114
f 109/58/115 141/55/115 127/55/115
f 112/76/116 89/75/116 129/76/116
f 126/36/117 136/63/117 140/36/117
f 123/42/108 130/41/108 138/42/108
f 105/53/118 139/32/118 125/32/118
f 105/53/118 142/39/118 133/53/118
f 109/58/115 140/36/115 134/58/115
f 175/47/108 138/42/108 176/47/108
f 106/38/119 155/39/106 120/39/119
f 110/41/120 154/55/121 153/41/102
f 107/46/122 166/44/70 163/44/122
f 116/42/122 153/41/99 149/42/70
f 117/32/123 147/70/123 99/70/123
f 115/51/122 156/52/99 106/52/122
f 102/58/124 145/36/125 144/58/94
f 103/53/126 148/32/92 117/32/126
f 120/39/126 143/53/91 103/53/126
f 118/36/127 146/63/127 145/36/127
f 119/55/124 144/58/94 154/55/79
f 174/47/122 149/42/70 178/47/70
f 163/44/122 151/51/70 115/51/122
f 114/77/112 129/79/128 135/77/129
f 164/44/108 137/51/108 122/51/108
f 166/44/70 122/51/71 151/51/70
f 76/80/72 160/48/72 92/66/72
f 92/66/72 161/50/72 75/81/78
f 158/44/68 115/51/69 91/51/68
f 161/45/67 91/51/68 75/82/93
f 107/46/122 178/47/70 152/46/101
f 95/46/108 176/47/108 131/46/108
f 172/47/68 107/46/69 83/46/68
f 82/83/72 173/59/72 90/69/72
f 168/62/67 83/46/68 81/43/67
f 90/69/72 168/61/72 81/49/72
f 152/46/101 175/47/71 95/46/71
f 80/84/60 171/85/130 180/86/58
f 157/87/130 181/88/131 82/89/130
f 157/87/130 76/90/57 179/91/56
f 171/85/130 181/88/131 180/92/58
f 97/32/55 74/70/87 179/33/56
f 180/35/58 78/63/95 100/36/59
f 73/38/61 106/38/62 120/39/62
f 81/43/67 83/46/68 158/44/68
f 83/46/68 107/46/69 163/44/69
f 178/47/70 149/42/70 123/42/71
f 160/48/72 90/69/72 81/49/72
f 91/51/68 115/51/69 106/52/69
f 111/39/73 120/39/74 103/53/74
f 87/54/75 88/58/76 108/55/76
f 96/65/72 87/54/75 79/56/72
f 85/53/73 86/67/83 75/57/78
f 85/53/73 103/53/74 117/32/74
f 86/67/83 92/66/72 75/81/78
f 154/55/79 144/58/94 109/58/80
f 75/82/93 91/51/68 73/52/61
f 88/58/76 102/58/81 119/55/81
f 173/59/72 96/65/72 79/60/72
f 79/40/64 94/42/66 172/47/68
f 145/36/132 146/63/132 121/63/132
f 171/64/72 80/72/88 96/65/72
f 77/41/65 110/41/69 116/42/69
f 157/68/72 82/83/72 90/69/72
f 108/55/84 119/55/85 110/41/85
f 97/32/55 117/32/86 99/70/86
f 80/71/88 100/36/76 88/58/76
f 97/32/73 76/34/133 86/67/83
f 100/36/76 118/36/81 102/58/81
f 155/39/89 128/39/90 105/53/90
f 143/53/91 105/53/90 125/32/90
f 94/42/66 116/42/69 174/47/69
f 144/58/94 145/36/125 126/36/80
f 78/63/95 113/63/96 118/36/96
f 151/51/70 122/51/71 101/52/71
f 148/32/134 125/32/134 89/70/134
f 149/42/70 153/41/99 93/41/71
f 152/46/101 95/46/71 164/44/71
f 153/41/102 154/55/121 127/55/103
f 156/38/104 101/38/105 128/39/105
f 125/32/135 139/32/135 129/70/135
f 122/51/108 137/51/108 132/52/108
f 93/41/109 127/55/109 141/55/109
f 101/38/110 132/38/110 142/39/110
f 95/46/108 131/46/108 165/44/108
f 114/77/112 135/77/129 136/78/113
f 109/58/115 134/58/115 141/55/115
f 126/36/136 121/63/136 136/63/136
f 123/42/108 93/41/108 130/41/108
f 105/53/118 133/53/118 139/32/118
f 105/53/118 128/39/118 142/39/118
f 109/58/115 126/36/115 140/36/115
f 175/47/108 123/42/108 138/42/108
f 106/38/119 156/38/104 155/39/106
f 110/41/120 119/55/120 154/55/121
f 107/46/122 152/46/101 166/44/70
f 116/42/122 110/41/122 153/41/99
f 117/32/123 148/32/123 147/70/123
f 115/51/122 151/51/70 156/52/99
f 102/58/124 118/36/124 145/36/125
f 103/53/126 143/53/91 148/32/92
f 120/39/126 155/39/89 143/53/91
f 118/36/127 113/63/127 146/63/127
f 119/55/124 102/58/124 144/58/94
f 174/47/122 116/42/122 149/42/70
f 163/44/122 166/44/70 151/51/70
f 114/77/112 112/79/137 129/79/128
f 164/44/108 165/44/108 137/51/108
f 166/44/70 164/44/71 122/51/71
f 76/80/72 157/68/72 160/48/72
f 92/66/72 160/48/72 161/50/72
f 158/44/68 163/44/69 115/51/69
f 161/45/67 158/44/68 91/51/68
f 107/46/122 174/47/122 178/47/70
f 95/46/108 175/47/108 176/47/108
f 172/47/68 174/47/69 107/46/69
f 82/83/72 171/64/72 173/59/72
f 168/62/67 172/47/68 83/46/68
f 90/69/72 173/59/72 168/61/72
f 152/46/101 178/47/70 175/47/71
f 157/87/130 179/91/56 181/88/131
f 171/85/130 82/89/130 181/88/131
f 167/79/138 147/76/138 112/79/138
f 181/88/131 183/93/139 84/77/140
f 74/76/141 159/79/142 162/79/143
f 84/77/144 170/78/144 169/78/144
f 150/77/145 124/78/145 177/78/145
f 170/78/146 150/77/146 177/78/146
f 99/76/147 167/79/147 159/79/147
f 159/79/148 150/77/148 98/77/148
f 84/77/149 159/79/149 98/77/149
f 150/77/150 112/79/150 114/77/150
f 113/74/151 177/78/151 146/74/151
f 146/74/152 177/78/152 124/78/152
f 78/74/153 170/78/153 113/74/153
f 78/74/154 180/92/155 169/78/156
f 74/76/141 162/79/143 179/91/157
f 84/77/140 183/93/139 162/79/158
f 74/76/159 99/76/159 159/79/159
f 84/77/144 98/77/144 170/78/144
f 150/77/160 114/77/160 124/78/160
f 170/78/161 98/77/161 150/77/161
f 99/76/162 147/76/162 167/79/162
f 159/79/163 167/79/163 150/77/163
f 84/77/149 162/79/149 159/79/149
f 180/92/58 182/94/164 169/78/165
f 150/77/166 167/79/166 112/79/166
f 113/74/167 170/78/167 177/78/167
f 78/74/154 169/78/156 170/78/168
f 181/88/131 84/77/169 182/94/164
f 162/79/158 183/93/139 179/91/56
f 182/94/164 180/92/58 181/88/131
f 183/93/139 181/88/131 179/91/56
f 169/78/165 182/94/164 84/77/169
f 141/55/170 134/58/170 104/55/170
f 136/78/171 135/77/171 104/74/171
f 140/36/172 136/63/172 104/36/172
f 138/42/173 130/41/173 104/42/173
f 139/32/174 133/53/174 104/32/174
f 134/58/170 140/36/170 104/58/170
f 176/47/173 104/46/173 131/46/173
f 129/70/175 139/32/175 104/70/175
f 133/53/174 142/39/174 104/53/174
f 132/52/173 137/51/173 104/52/173
f 130/41/176 141/55/176 104/41/176
f 135/77/171 129/76/171 104/77/171
f 142/39/177 132/38/177 104/39/177
f 165/44/173 104/51/173 137/51/173
f 176/47/173 138/42/173 104/46/173
f 165/44/173 131/46/173 104/51/173
o Cube.002
v 1.256523 0.294601 -2.775259
v 1.330470 0.286474 2.387790
v 5.572727 -0.179753 -1.447910
v 5.572727 -0.179753 -2.593601
v 1.242373 0.165845 -2.274434
v 1.270673 0.423357 -2.274434
v 1.316320 0.157719 1.816415
v 1.344621 0.415230 1.816415
v 3.207830 0.080151 -4.073421
v 3.216719 0.161029 -3.444237
v 3.198942 -0.000726 -3.444237
v -1.256523 0.294601 -2.775259
v -1.330470 0.286474 2.387790
v -5.572727 -0.179753 -1.447910
v -5.572727 -0.179753 -2.593601
v -1.242373 0.165845 -2.274434
v -1.270673 0.423357 -2.274434
v -1.316320 0.157719 1.816415
v -1.344621 0.415230 1.816415
v -3.207830 0.080151 -4.073421
v -3.216719 0.161029 -3.444237
v -3.198942 -0.000726 -3.444237
vn 0.1870 0.9740 -0.1278
vn -0.0290 -0.9914 -0.1278
vn -0.0782 -0.9969 -0.0032
vn -0.0754 -0.9972 0.0003
vn -0.0843 -0.9964 -0.0001
vn 0.1333 0.9911 -0.0004
vn 0.0892 -0.9721 0.2168
vn 0.2982 0.9295 0.2169
vn 0.1428 0.9898 0.0005
vn 0.1430 0.9897 0.0004
vn 0.1432 0.9897 -0.0000
vn -0.0851 -0.9964 -0.0004
vn -0.2667 -0.9316 -0.2470
vn -0.0752 -0.9972 -0.0000
vn 0.1412 0.9900 0.0024
vn -0.0580 0.9673 -0.2470
vn -0.1599 -0.9788 -0.1281
vn 0.0565 0.9902 -0.1281
vn -0.1870 0.9740 -0.1278
vn 0.0290 -0.9914 -0.1278
vn 0.0756 -0.9971 0.0005
vn 0.0772 -0.9970 0.0024
vn 0.0754 -0.9972 0.0003
vn -0.1403 0.9901 -0.0032
vn -0.1341 0.9910 -0.0001
vn -0.1333 0.9911 -0.0004
vn -0.0892 -0.9721 0.2168
vn -0.2982 0.9295 0.2169
vn -0.1432 0.9897 -0.0000
vn -0.1430 0.9897 0.0004
vn 0.0851 -0.9964 -0.0004
vn 0.2667 -0.9316 -0.2470
vn 0.0752 -0.9972 -0.0000
vn 0.0580 0.9673 -0.2470
vn 0.1599 -0.9788 -0.1281
vn -0.0565 0.9902 -0.1281
vt 0.500000 0.406250
vt 0.562500 0.437500
vt 0.500000 0.500000
vt 0.375000 0.437500
vt 0.437500 0.437500
vt 0.375000 0.500000
vt 0.312500 0.500000
vt 0.375000 0.750000
vt 0.312500 0.750000
vt 0.687500 0.500000
vt 0.750000 0.500000
vt 0.687500 0.750000
vt 0.500000 0.750000
vt 0.500000 0.843750
vt 0.437500 0.812500
vt 0.625000 0.750000
vt 0.625000 0.812500
vt 0.562500 0.812500
vt 0.625000 0.500000
vt 0.250000 0.500000
vt 0.250000 0.750000
vt 0.500000 0.375000
vt 0.468750 0.406250
vt 0.375000 0.375000
vt 0.625000 0.375000
s 1
usemtl Material.004
f 192/95/178 193/96/178 187/97/178
f 194/98/179 192/99/179 187/100/179
f 194/101/180 186/102/181 190/103/182
f 193/104/183 189/105/183 191/106/183
f 186/107/184 185/108/184 190/109/184
f 186/110/185 191/111/185 185/112/185
f 193/104/186 186/110/187 187/113/188
f 188/114/189 194/101/180 190/115/182
f 184/116/190 192/117/190 188/118/190
f 194/101/180 187/100/191 186/102/181
f 193/104/186 191/106/192 186/110/187
f 184/116/193 189/119/193 192/95/193
f 188/118/194 192/117/194 194/98/194
f 192/95/195 189/119/195 193/96/195
f 203/95/196 198/97/196 204/96/196
f 205/98/197 198/100/197 203/99/197
f 205/101/198 201/103/199 197/102/200
f 204/104/201 202/106/202 200/105/203
f 197/107/204 201/109/204 196/108/204
f 197/110/205 196/112/205 202/111/205
f 204/104/201 198/113/206 197/110/207
f 199/114/208 201/115/208 205/101/208
f 195/116/209 199/118/209 203/117/209
f 205/101/198 197/102/200 198/100/210
f 204/104/201 197/110/207 202/106/202
f 195/116/211 203/95/211 200/119/211
f 199/118/212 205/98/212 203/117/212
f 203/95/213 204/96/213 200/119/213
o Cube.003
v 1.373796 -0.062674 -5.621686
v 1.232781 -0.024670 -2.903016
v 3.508376 -0.685654 -5.066143
v 3.510043 -0.685922 -5.863584
v 1.354473 -0.130017 -5.351145
v 1.391660 0.004905 -5.351104
v 1.215019 -0.092266 -3.211710
v 1.252206 0.042657 -3.211669
v 2.398067 -0.344760 -6.491183
v 2.408831 -0.302237 -6.151265
v 2.385472 -0.386989 -6.151291
v 1.201550 -0.015201 -4.370317
v 1.182227 -0.082544 -4.099777
v 1.219414 0.052378 -4.099735
v -1.373796 -0.062674 -5.621686
v -1.232781 -0.024670 -2.903016
v -3.508376 -0.685654 -5.066143
v -3.510043 -0.685922 -5.863584
v -1.354473 -0.130017 -5.351145
v -1.391660 0.004905 -5.351104
v -1.215019 -0.092266 -3.211710
v -1.252206 0.042657 -3.211669
v -2.398067 -0.344760 -6.491183
v -2.408831 -0.302237 -6.151265
v -2.385472 -0.386989 -6.151291
v -1.201550 -0.015201 -4.370317
v -1.182227 -0.082544 -4.099777
v -1.219414 0.052378 -4.099735
vn -0.3325 -0.9343 -0.1284
vn 0.1932 0.9728 -0.1278
vn -0.2563 -0.9666 -0.0009
vn -0.2535 -0.9673 -0.0039
vn 0.2905 0.9569 0.0021
vn -0.0759 -0.9731 0.2175
vn 0.4568 0.8627 0.2169
vn 0.3289 0.9444 0.0004
vn -0.2408 -0.9706 0.0014
vn -0.2240 -0.9661 -0.1283
vn -0.2568 -0.9665 -0.0002
vn -0.9640 0.2657 -0.0027
vn -0.7152 0.6877 -0.1245
vn 0.2696 0.9630 0.0006
vn -0.9633 0.2655 0.0385
vn -0.9668 -0.2232 -0.1246
vn -0.2697 -0.9630 -0.0006
vn 0.3173 0.9482 0.0136
vn 0.3558 0.9259 -0.1271
vn -0.4459 -0.8606 -0.2461
vn 0.0581 0.9677 -0.2455
vn 0.3325 -0.9343 -0.1284
vn -0.1932 0.9728 -0.1278
vn 0.2563 -0.9666 -0.0009
vn 0.2535 -0.9673 -0.0039
vn -0.2905 0.9569 0.0021
vn 0.0759 -0.9731 0.2175
vn -0.4568 0.8627 0.2169
vn -0.3289 0.9444 0.0004
vn 0.2408 -0.9706 0.0014
vn 0.2240 -0.9661 -0.1283
vn 0.2568 -0.9665 -0.0002
vn 0.9640 0.2657 -0.0027
vn 0.7152 0.6877 -0.1245
vn -0.2696 0.9630 0.0006
vn 0.9633 0.2655 0.0385
vn 0.9668 -0.2232 -0.1246
vn 0.2697 -0.9630 -0.0006
vn -0.3173 0.9482 0.0136
vn -0.3558 0.9259 -0.1271
vn 0.4459 -0.8606 -0.2461
vn -0.0581 0.9677 -0.2455
vt 0.375000 0.375000
vt 0.437500 0.437500
vt 0.375000 0.437500
vt 0.562500 0.437500
vt 0.500000 0.406250
vt 0.625000 0.375000
vt 0.312500 0.500000
vt 0.375000 0.750000
vt 0.312500 0.750000
vt 0.687500 0.500000
vt 0.750000 0.500000
vt 0.687500 0.750000
vt 0.500000 0.750000
vt 0.500000 0.843750
vt 0.437500 0.812500
vt 0.625000 0.750000
vt 0.625000 0.812500
vt 0.562500 0.812500
vt 0.625000 0.500000
vt 0.250000 0.500000
vt 0.250000 0.750000
vt 0.375000 0.500000
vt 0.500000 0.375000
vt 0.500000 0.500000
s 1
f 210/120/214 214/121/214 216/122/214
f 215/123/215 214/124/215 211/125/215
f 216/126/216 208/127/216 212/128/217
f 215/129/218 211/130/218 213/131/218
f 208/132/219 207/133/219 212/134/219
f 208/135/220 213/136/220 207/137/220
f 215/129/221 208/135/221 209/138/221
f 210/139/222 216/126/222 212/140/222
f 216/122/223 214/121/223 209/141/223
f 216/126/216 209/141/224 208/127/216
f 207/133/225 213/131/225 212/134/225
f 211/125/226 217/142/226 219/125/226
f 213/131/227 211/130/227 219/130/227
f 218/139/225 219/125/225 217/142/225
f 213/131/228 218/139/228 212/134/228
f 210/120/229 217/142/229 206/142/229
f 210/139/230 212/140/230 218/139/230
f 215/129/231 213/131/231 208/135/231
f 214/124/232 215/123/232 209/143/232
f 206/142/233 214/121/233 210/120/233
f 211/125/226 206/142/226 217/142/226
f 213/131/228 219/125/228 218/139/228
f 210/120/229 218/120/229 217/142/229
f 211/125/234 214/124/234 206/142/234
f 224/120/235 230/122/235 228/121/235
f 229/123/236 225/125/236 228/124/236
f 230/126/237 226/128/238 222/127/237
f 229/129/239 227/131/239 225/130/239
f 222/132/240 226/134/240 221/133/240
f 222/135/241 221/137/241 227/136/241
f 229/129/242 223/138/242 222/135/242
f 224/139/243 226/140/243 230/126/243
f 230/122/244 223/141/244 228/121/244
f 230/126/237 222/127/237 223/141/245
f 221/133/246 226/134/246 227/131/246
f 225/125/247 233/125/247 231/142/247
f 227/131/248 233/130/248 225/130/248
f 232/139/246 231/142/246 233/125/246
f 227/131/249 226/134/249 232/139/249
f 224/120/250 220/142/250 231/142/250
f 224/139/251 232/139/251 226/140/251
f 229/129/252 222/135/252 227/131/252
f 228/124/253 223/143/253 229/123/253
f 220/142/254 224/120/254 228/121/254
f 225/125/247 231/142/247 220/142/247
f 227/131/249 232/139/249 233/125/249
f 224/120/250 231/142/250 232/120/250
f 225/125/255 220/142/255 228/124/255
o Cube.007
v 1.991556 2.483846 -4.328702
v 1.631338 1.552431 -5.066062
v 1.168047 0.354500 -4.177164
v 1.130743 0.379927 -1.319327
v 1.130743 0.379926 -4.009805
v 1.193480 0.319231 -4.009805
v 1.219791 0.319232 -1.319327
v 1.168047 0.354500 -1.073826
v -1.991556 2.483846 -4.328702
v -1.631338 1.552431 -5.066062
v -1.168047 0.354500 -4.177164
v -1.130743 0.379927 -1.319327
v -1.130743 0.379926 -4.009805
v -1.193480 0.319231 -4.009805
v -1.219791 0.319232 -1.319327
v -1.168047 0.354500 -1.073826
vn -0.9301 0.3671 -0.0094
vn 0.9392 -0.3432 -0.0099
vn 0.9360 -0.3517 -0.0130
vn 0.9362 -0.3513 -0.0136
vn -0.7923 0.5827 0.1807
vn 0.9757 -0.0517 0.2131
vn -0.9519 0.1894 -0.2409
vn 0.9398 -0.3416 -0.0092
vn 0.8371 -0.4956 -0.2317
vn -0.9197 0.3927 -0.0000
vn 0.9301 0.3671 -0.0094
vn -0.9360 -0.3517 -0.0130
vn 0.7923 0.5827 0.1807
vn -0.9757 -0.0517 0.2131
vn 0.9519 0.1894 -0.2409
vn -0.9398 -0.3416 -0.0092
vn -0.8371 -0.4956 -0.2317
vn 0.9197 0.3927 -0.0000
vt 0.563113 0.000000
vt 0.625000 0.250000
vt 0.563113 0.250000
vt 0.563113 0.500000
vt 0.625000 0.750000
vt 0.563113 0.750000
vt 0.563113 0.895270
vt 0.625000 1.000000
vt 0.563113 1.000000
vt 0.625000 0.895270
vt 0.500000 0.250000
vt 0.563113 0.354730
vt 0.500000 0.354730
vt 0.500000 0.500000
vt 0.500000 0.750000
s 1
f 237/144/256 234/145/256 235/146/256
f 235/147/257 234/148/258 240/149/259
f 241/150/260 234/151/260 237/152/260
f 240/149/261 234/153/261 241/150/261
f 238/154/262 235/155/262 236/156/262
f 239/157/263 235/147/257 240/158/259
f 236/156/264 235/147/264 239/157/264
f 237/144/265 235/146/265 238/154/265
f 245/144/266 243/146/266 242/145/266
f 243/147/267 248/149/267 242/148/267
f 249/150/268 245/152/268 242/151/268
f 248/149/269 249/150/269 242/153/269
f 246/154/270 244/156/270 243/155/270
f 247/157/271 248/158/271 243/147/271
f 244/156/272 247/157/272 243/147/272
f 245/144/273 246/154/273 243/146/273
