# Blender 5.0.1
# www.blender.org
mtllib xf-x.mtl
o Cube.009
v 2.212295 0.136683 -5.939661
v 2.212295 -0.136684 -5.939661
v 2.212295 0.136683 0.855272
v 2.212295 -0.136683 0.855272
v 0.000000 -0.374258 -6.945607
v 1.769095 -0.332665 1.580623
v 1.769095 -0.000001 -6.974865
v 1.769095 0.288577 1.580623
v 6.048149 -0.229700 -7.634335
v 6.048149 -0.349930 -7.634335
v 1.148078 -0.005174 9.042752
v 2.212295 -0.000000 1.454700
v 0.000000 0.017959 -8.975000
v 2.212295 -0.000001 -6.974865
v 6.048149 -0.289811 -8.156505
v 7.133378 -0.326982 -7.245610
v 7.133378 -0.422943 -7.245610
v 2.212295 -0.136683 2.219873
v 2.212295 0.136683 2.219873
v 0.470786 0.198926 12.145762
v 1.963315 -0.132780 5.621144
v 0.415146 0.570982 1.597721
v 0.226237 0.349988 -6.957757
v 0.438280 0.578642 8.762519
v 0.462764 -0.000001 -6.974865
v 1.963315 0.132780 5.621144
v 0.000000 -0.017763 14.137680
v 4.215785 0.432558 3.043464
v 4.215785 0.376527 3.043464
v 0.849161 0.332664 1.580623
v 0.849161 -0.332665 1.580623
v 7.133378 -0.374962 -7.314905
v 7.133378 -0.374962 -7.009865
v 2.212295 -0.000000 1.706536
v 1.963315 0.000000 6.158555
v 4.215785 0.404542 2.519582
v 4.215785 0.404542 3.591420
v 0.000000 0.428126 -6.941391
v 0.000000 0.686028 1.614087
v 0.000000 0.880444 8.494473
v 0.000000 -0.706922 1.609871
v 0.000000 -0.722181 8.490268
v 0.692288 0.018088 12.148149
v 0.000000 0.379824 12.143474
v 0.000000 -0.468731 12.144169
v 0.574034 -0.477163 8.766510
v 0.231382 -0.354019 -6.960231
v 0.424585 -0.659851 1.604187
v 0.481477 -0.287403 12.146154
v 0.544776 -0.818935 -5.312531
v 0.544776 0.285065 -5.312531
v 0.773322 -0.697072 -7.322995
v 0.773322 0.304697 -7.322995
v 2.003627 -0.818935 -5.312531
v 2.003627 0.285065 -5.312531
v 1.775081 -0.697072 -7.322995
v 1.775081 0.304697 -7.322995
v 1.274206 -0.788768 -7.322995
v 1.274206 0.396393 -7.322995
v 1.274206 -1.076015 -5.312531
v 1.274206 0.498184 -5.312531
v 0.544776 -0.026167 -5.312531
v 0.681626 -0.196187 -7.322995
v 1.866777 -0.196187 -7.322995
v 2.003627 -0.026167 -5.312531
v 0.544776 -0.897778 -3.195462
v 1.274206 -0.196187 -7.322995
v 1.274206 0.195041 -8.248709
v 1.552493 0.079761 -8.248709
v 1.667773 -0.198535 -8.248709
v 1.552493 -0.476822 -8.248709
v 1.274206 -0.592102 -8.248709
v 0.995910 -0.476822 -8.248709
v 0.880639 -0.198535 -8.248709
v 0.995910 0.079761 -8.248709
v 0.544776 0.086188 -3.195462
v 2.003627 -0.897778 -3.195462
v 2.003627 0.086188 -3.195462
v 1.274206 -1.180828 -3.195462
v 1.274206 0.267761 -3.195462
v 0.544776 -0.205323 -3.195462
v 0.739290 -1.232731 1.448224
v 0.696308 -0.217159 4.212573
v 1.809113 -1.232731 1.448224
v 1.812067 -0.219125 4.167733
v 1.274206 -1.232731 1.448224
v 1.254192 -0.218137 4.190153
v 0.000000 -0.714552 5.050074
v 2.212295 -0.136683 3.988948
v 0.491318 -0.578279 4.802269
v 1.274206 0.256521 -8.248709
v 1.595974 0.123232 -8.248709
v 1.729253 -0.198535 -8.248709
v 1.595974 -0.520293 -8.248709
v 1.274206 -0.653582 -8.248709
v 0.952439 -0.520293 -8.248709
v 0.819160 -0.198535 -8.248709
v 0.952439 0.123232 -8.248709
v 1.274206 0.149996 -8.775418
v 1.520643 0.047911 -8.775418
v 1.622727 -0.198535 -8.775418
v 1.520643 -0.444972 -8.775418
v 1.274206 -0.547056 -8.775418
v 1.027760 -0.444972 -8.775418
v 0.925676 -0.198535 -8.775418
v 1.027760 0.047911 -8.775418
v 1.274206 0.102905 -8.775418
v 1.487345 0.014613 -8.775418
v 1.575637 -0.198535 -8.775418
v 1.487345 -0.411674 -8.775418
v 1.274206 -0.499966 -8.775418
v 1.061058 -0.411674 -8.775418
v 0.972766 -0.198535 -8.775418
v 1.061058 0.014613 -8.775418
v -2.212295 0.136683 -5.939661
v -2.212295 -0.136684 -5.939661
v -2.212295 0.136683 0.855272
v -2.212295 -0.136683 0.855272
v -1.769095 -0.332665 1.580623
v -1.769095 -0.000001 -6.974865
v -1.769095 0.288577 1.580623
v -6.048149 -0.229700 -7.634335
v -6.048149 -0.349930 -7.634335
v -1.148078 -0.005174 9.042752
v -2.212295 -0.000000 1.454700
v -2.212295 -0.000001 -6.974865
v -6.048149 -0.289811 -8.156505
v -7.133378 -0.326982 -7.245610
v -7.133378 -0.422943 -7.245610
v -2.212295 -0.136683 2.219873
v -2.212295 0.136683 2.219873
v -0.470786 0.198926 12.145762
v -1.963315 -0.132780 5.621144
v -0.415146 0.570982 1.597721
v -0.226237 0.349988 -6.957757
v -0.438280 0.578642 8.762519
v -0.462764 -0.000001 -6.974865
v -1.963315 0.132780 5.621144
v -4.215785 0.432558 3.043464
v -4.215785 0.376527 3.043464
v -0.849161 0.332664 1.580623
v -0.849161 -0.332665 1.580623
v -7.133378 -0.374962 -7.314905
v -7.133378 -0.374962 -7.009865
v -2.212295 -0.000000 1.706536
v -1.963315 0.000000 6.158555
v -4.215785 0.404542 2.519582
v -4.215785 0.404542 3.591420
v -0.692288 0.018088 12.148149
v -0.574034 -0.477163 8.766510
v -0.231382 -0.354019 -6.960231
v -0.424585 -0.659851 1.604187
v -0.481477 -0.287403 12.146154
v -0.544776 -0.818935 -5.312531
v -0.544776 0.285065 -5.312531
v -0.773322 -0.697072 -7.322995
v -0.773322 0.304697 -7.322995
v -2.003627 -0.818935 -5.312531
v -2.003627 0.285065 -5.312531
v -1.775081 -0.697072 -7.322995
v -1.775081 0.304697 -7.322995
v -1.274206 -0.788768 -7.322995
v -1.274206 0.396393 -7.322995
v -1.274206 -1.076015 -5.312531
v -1.274206 0.498184 -5.312531
v -0.544776 -0.026167 -5.312531
v -0.681626 -0.196187 -7.322995
v -1.866777 -0.196187 -7.322995
v -2.003627 -0.026167 -5.312531
v -0.544776 -0.897778 -3.195462
v -1.274206 -0.196187 -7.322995
v -1.274206 0.195041 -8.248709
v -1.552493 0.079761 -8.248709
v -1.667773 -0.198535 -8.248709
v -1.552493 -0.476822 -8.248709
v -1.274206 -0.592102 -8.248709
v -0.995910 -0.476822 -8.248709
v -0.880639 -0.198535 -8.248709
v -0.995910 0.079761 -8.248709
v -0.544776 0.086188 -3.195462
v -2.003627 -0.897778 -3.195462
v -2.003627 0.086188 -3.195462
v -1.274206 -1.180828 -3.195462
v -1.274206 0.267761 -3.195462
v -0.544776 -0.205323 -3.195462
v -0.739290 -1.232731 1.448224
v -0.696308 -0.217159 4.212573
v -1.809113 -1.232731 1.448224
v -1.812067 -0.219125 4.167733
v -1.274206 -1.232731 1.448224
v -1.254192 -0.218137 4.190153
v -2.212295 -0.136683 3.988948
v -0.491318 -0.578279 4.802269
v -1.274206 0.256521 -8.248709
v -1.595974 0.123232 -8.248709
v -1.729253 -0.198535 -8.248709
v -1.595974 -0.520293 -8.248709
v -1.274206 -0.653582 -8.248709
v -0.952439 -0.520293 -8.248709
v -0.819160 -0.198535 -8.248709
v -0.952439 0.123232 -8.248709
v -1.274206 0.149996 -8.775418
v -1.520643 0.047911 -8.775418
v -1.622727 -0.198535 -8.775418
v -1.520643 -0.444972 -8.775418
v -1.274206 -0.547056 -8.775418
v -1.027760 -0.444972 -8.775418
v -0.925676 -0.198535 -8.775418
v -1.027760 0.047911 -8.775418
v -1.274206 0.102905 -8.775418
v -1.487345 0.014613 -8.775418
v -1.575637 -0.198535 -8.775418
v -1.487345 -0.411674 -8.775418
v -1.274206 -0.499966 -8.775418
v -1.061058 -0.411674 -8.775418
v -0.972766 -0.198535 -8.775418
v -1.061058 0.014613 -8.775418
vn 0.0202 0.9913 -0.1303
vn 0.0988 0.9921 -0.0771
vn 0.0926 0.9892 -0.1139
vn -0.1251 -0.9909 -0.0489
vn 0.1946 -0.9809 0.0045
vn -0.0278 -0.9969 -0.0732
vn 0.3234 -0.9421 0.0883
vn -0.0536 -0.9955 -0.0780
vn 0.0310 -0.9981 0.0541
vn -0.0000 -0.9939 -0.1105
vn 0.1099 -0.9939 -0.0076
vn -0.0000 -1.0000 -0.0088
vn -0.0559 0.9973 -0.0469
vn 0.1764 0.9843 0.0045
vn 0.3443 0.9352 0.0831
vn -0.0000 -1.0000 0.0027
vn -0.0000 -0.9992 -0.0389
vn 0.5951 0.7945 -0.1207
vn 0.4931 0.8698 -0.0178
vn 0.8198 0.5599 -0.1201
vn 0.2623 -0.9455 0.1927
vn 0.2945 -0.9318 0.2125
vn 0.1833 0.9815 0.0551
vn 1.0000 -0.0000 -0.0000
vn 0.0242 0.9936 0.1105
vn -0.0658 0.9960 0.0603
vn -0.1202 0.9927 -0.0119
vn 0.6443 0.7425 0.1834
vn 0.2535 0.8405 -0.4788
vn -0.0277 0.9970 -0.0723
vn 0.3185 -0.9463 -0.0547
vn 0.0909 0.9935 -0.0680
vn 0.1118 -0.9931 0.0349
vn -0.0000 -0.9990 0.0438
vn 0.2488 -0.9613 0.1183
vn 0.2350 -0.9718 0.0204
vn 0.2642 -0.9645 -0.0025
vn -0.1206 0.9896 -0.0780
vn -0.0903 0.9624 -0.2562
vn 0.2811 -0.9579 0.0583
vn 0.6000 -0.7766 0.1919
vn 0.2706 -0.9597 -0.0760
vn 0.5032 0.8508 0.1513
vn 0.6224 0.7809 0.0527
vn 0.5747 0.8164 0.0570
vn 0.0794 -0.9903 -0.1139
vn -0.0000 -0.9818 -0.1898
vn 0.0456 0.9990 0.0035
vn 0.0181 0.9990 0.0408
vn 0.1260 -0.8596 -0.4953
vn 0.1470 -0.8132 -0.5631
vn 0.3881 0.9030 0.1841
vn -0.0608 -0.9896 -0.1300
vn 0.6497 -0.7380 0.1823
vn 0.3169 0.9426 -0.1048
vn 0.3801 0.9247 -0.0227
vn 0.3624 0.9213 0.1412
vn 0.5454 0.8373 0.0371
vn 0.6051 -0.7780 0.1690
vn 0.6402 -0.7671 0.0407
vn 0.8076 -0.5585 0.1892
vn 0.8105 0.5566 -0.1825
vn 0.6266 -0.7793 0.0114
vn 0.8460 -0.5331 -0.0110
vn 0.5824 -0.8127 -0.0179
vn 0.8247 -0.5521 -0.1226
vn 0.6149 -0.7885 0.0120
vn 0.3497 -0.9274 0.1325
vn 0.5052 -0.8623 0.0345
vn 0.2789 -0.9603 0.0102
vn 0.3085 0.9325 -0.1881
vn 0.8280 -0.5464 -0.1259
vn 0.8175 -0.5423 -0.1940
vn -0.9990 0.0072 -0.0447
vn -0.9831 0.1620 -0.0851
vn -0.9951 0.0125 -0.0978
vn 0.9831 0.1620 -0.0851
vn 0.9990 0.0072 -0.0447
vn 0.9951 0.0125 -0.0978
vn 0.9998 -0.0000 0.0216
vn 0.9992 -0.0140 -0.0372
vn 0.2129 -0.9685 -0.1295
vn -0.2895 -0.9543 -0.0749
vn -0.0000 -0.9899 -0.1414
vn -0.2022 0.9784 -0.0438
vn 0.2406 0.9701 0.0320
vn -0.0000 0.9987 -0.0506
vn 0.2022 0.9784 -0.0438
vn 0.2759 0.9603 0.0422
vn -0.2129 -0.9685 -0.1295
vn -0.3317 -0.9412 -0.0641
vn -0.9992 -0.0140 -0.0372
vn -0.9999 -0.0034 0.0148
vn -0.2759 0.9603 0.0422
vn -0.0026 0.9970 0.0770
vn -0.2802 0.9589 0.0459
vn 0.2410 0.9681 0.0686
vn 0.9763 -0.1787 -0.1218
vn -0.9763 -0.1787 -0.1218
vn -0.0000 -0.0000 1.0000
vn -0.3580 -0.9325 -0.0477
vn 0.9983 -0.0000 -0.0585
vn 0.9998 -0.0048 0.0187
vn -1.0000 -0.0000 0.0098
vn -0.9983 -0.0000 -0.0585
vn 0.3354 -0.9400 -0.0631
vn 0.3580 -0.9325 -0.0477
vn -0.0000 -0.9987 -0.0509
vn 0.9979 -0.0604 0.0247
vn -0.2351 0.9690 0.0764
vn -0.0040 0.9986 0.0537
vn 0.0191 0.9977 0.0646
vn -0.0185 -0.9858 0.1669
vn 0.0194 -0.9857 0.1674
vn 0.0004 -0.9852 0.1713
vn -0.9960 -0.0875 0.0202
vn -0.9955 -0.0919 0.0214
vn 0.0194 -0.9987 0.0465
vn 0.3835 -0.9233 0.0220
vn 0.0985 0.9661 0.2387
vn 0.2675 0.7922 -0.5485
vn 0.2869 -0.9257 -0.2465
vn 0.6244 0.7667 0.1493
vn -0.0000 0.9992 -0.0389
vn -0.0598 -0.9917 -0.1142
vn 0.4154 0.8869 0.2022
vn 0.2659 0.9636 -0.0281
vn 0.3317 -0.9412 -0.0641
vn -0.9998 -0.0000 0.0216
vn 0.9976 -0.0653 0.0232
vn 0.0034 0.9992 0.0408
vn -0.0202 0.9913 -0.1303
vn -0.0926 0.9892 -0.1139
vn -0.0988 0.9921 -0.0771
vn 0.1251 -0.9909 -0.0489
vn 0.0278 -0.9969 -0.0732
vn -0.1946 -0.9809 0.0045
vn -0.3234 -0.9421 0.0883
vn -0.0310 -0.9981 0.0541
vn 0.0536 -0.9955 -0.0780
vn -0.1099 -0.9939 -0.0076
vn 0.0559 0.9973 -0.0469
vn -0.3443 0.9352 0.0831
vn -0.1764 0.9843 0.0045
vn -0.5951 0.7945 -0.1207
vn -0.8198 0.5599 -0.1201
vn -0.4931 0.8698 -0.0178
vn -0.2945 -0.9318 0.2125
vn -0.2623 -0.9455 0.1927
vn -0.1833 0.9815 0.0551
vn -1.0000 -0.0000 -0.0000
vn -0.0242 0.9936 0.1105
vn 0.1202 0.9927 -0.0119
vn 0.0658 0.9960 0.0603
vn -0.6443 0.7425 0.1834
vn -0.2535 0.8405 -0.4788
vn 0.0277 0.9970 -0.0723
vn -0.3185 -0.9463 -0.0547
vn -0.0909 0.9935 -0.0680
vn -0.1118 -0.9931 0.0349
vn -0.2488 -0.9613 0.1183
vn -0.2642 -0.9645 -0.0025
vn -0.2350 -0.9718 0.0204
vn 0.0903 0.9624 -0.2562
vn 0.1206 0.9896 -0.0780
vn -0.6000 -0.7766 0.1919
vn -0.2811 -0.9579 0.0583
vn -0.2706 -0.9597 -0.0760
vn -0.5032 0.8508 0.1513
vn -0.5747 0.8164 0.0570
vn -0.6224 0.7809 0.0527
vn -0.0794 -0.9903 -0.1139
vn -0.0181 0.9990 0.0408
vn -0.0456 0.9990 0.0035
vn -0.1470 -0.8132 -0.5631
vn -0.1260 -0.8596 -0.4953
vn -0.3881 0.9030 0.1841
vn 0.0608 -0.9896 -0.1300
vn -0.6497 -0.7380 0.1823
vn -0.3169 0.9426 -0.1048
vn -0.3801 0.9247 -0.0227
vn -0.3624 0.9213 0.1412
vn -0.5454 0.8373 0.0371
vn -0.6051 -0.7780 0.1690
vn -0.8076 -0.5585 0.1892
vn -0.6402 -0.7671 0.0407
vn -0.8105 0.5566 -0.1825
vn -0.6266 -0.7793 0.0114
vn -0.5824 -0.8127 -0.0179
vn -0.8460 -0.5331 -0.0110
vn -0.8247 -0.5521 -0.1226
vn -0.6149 -0.7885 0.0120
vn -0.3497 -0.9274 0.1325
vn -0.5052 -0.8623 0.0345
vn -0.2789 -0.9603 0.0102
vn -0.3085 0.9325 -0.1881
vn -0.8280 -0.5464 -0.1259
vn -0.8175 -0.5423 -0.1940
vn 0.9999 -0.0034 0.0148
vn 0.0026 0.9970 0.0770
vn -0.2410 0.9681 0.0686
vn -0.9998 -0.0048 0.0187
vn 1.0000 -0.0000 0.0098
vn -0.9979 -0.0604 0.0247
vn 0.2351 0.9690 0.0764
vn 0.0040 0.9986 0.0537
vn -0.0191 0.9977 0.0646
vn 0.0185 -0.9858 0.1669
vn -0.0004 -0.9852 0.1713
vn -0.0194 -0.9857 0.1674
vn 0.9960 -0.0875 0.0202
vn 0.9955 -0.0919 0.0214
vn -0.0194 -0.9987 0.0465
vn -0.3835 -0.9233 0.0220
vn -0.0985 0.9661 0.2387
vn -0.2675 0.7922 -0.5485
vn -0.2869 -0.9257 -0.2465
vn -0.6244 0.7667 0.1493
vn 0.0598 -0.9917 -0.1142
vn -0.4154 0.8869 0.2022
vn -0.2659 0.9636 -0.0281
vn -0.9976 -0.0653 0.0232
vn -0.0034 0.9992 0.0408
vn 0.3440 -0.9158 0.2072
vn 0.4499 0.8702 0.2010
vn 0.7926 -0.5487 0.2659
vn -0.3440 -0.9158 0.2072
vn -0.4499 0.8702 0.2010
vn -0.7926 -0.5487 0.2659
vn 0.0109 -0.9377 0.3473
vn 0.0115 -0.9381 0.3461
vn 0.0122 -0.9385 0.3450
vn -0.0109 -0.9377 0.3473
vn -0.0115 -0.9381 0.3461
vn -0.0122 -0.9385 0.3450
vn 0.2223 0.9534 -0.2041
vn 0.3457 0.9221 -0.1739
vn 0.3778 0.9120 -0.1600
vn 0.9222 0.3457 -0.1730
vn 0.9538 0.2224 -0.2023
vn 0.9121 0.3778 -0.1594
vn 0.9540 -0.2225 -0.2012
vn 0.9224 -0.3458 -0.1722
vn 0.9122 -0.3779 -0.1584
vn 0.3458 -0.9225 -0.1714
vn 0.2226 -0.9543 -0.1994
vn 0.3779 -0.9123 -0.1577
vn -0.2225 -0.9543 -0.1994
vn -0.3458 -0.9225 -0.1714
vn -0.3779 -0.9123 -0.1577
vn -0.9224 -0.3458 -0.1722
vn -0.9539 -0.2225 -0.2012
vn -0.9122 -0.3779 -0.1584
vn -0.9538 0.2223 -0.2023
vn -0.9222 0.3457 -0.1730
vn -0.9121 0.3778 -0.1594
vn -0.3457 0.9221 -0.1739
vn -0.2223 0.9534 -0.2041
vn -0.3778 0.9120 -0.1600
vn -0.9082 -0.3762 -0.1837
vn -0.9120 -0.3778 0.1595
vn -0.3762 -0.9082 -0.1837
vn -0.3778 -0.9120 0.1595
vn 0.3778 -0.9120 0.1595
vn 0.3762 -0.9082 -0.1837
vn 0.9120 -0.3778 0.1595
vn -0.3762 0.9082 -0.1837
vn -0.0000 -0.0000 -1.0000
vn -0.9120 0.3778 0.1595
vn 0.3762 0.9082 -0.1837
vn -0.3778 0.9120 0.1595
vn 0.9082 0.3762 -0.1837
vn -0.9082 0.3762 -0.1837
vn 0.3778 0.9120 0.1595
vn 0.9120 0.3778 0.1595
vn 0.9082 -0.3762 -0.1837
vn 0.1756 0.9591 -0.2220
vn 0.9223 0.3457 -0.1730
vn 0.9595 0.1757 -0.2201
vn 0.9538 0.2223 -0.2023
vn 0.9597 -0.1757 -0.2192
vn 0.1758 -0.9601 -0.2174
vn 0.2225 -0.9543 -0.1994
vn -0.1758 -0.9601 -0.2174
vn -0.9224 -0.3457 -0.1722
vn -0.9597 -0.1757 -0.2192
vn -0.9540 -0.2225 -0.2012
vn -0.9595 0.1757 -0.2201
vn -0.1756 0.9591 -0.2220
vn 0.9121 -0.3778 0.1595
vn -0.9121 -0.3778 0.1595
vt 0.500000 0.500000
vt 0.625000 0.500000
vt 0.375000 0.500000
vt 0.312500 0.750000
vt 0.312500 0.500000
vt 0.375000 0.750000
vt 0.250000 0.500000
vt 0.265625 0.750000
vt 0.250000 0.750000
vt 0.687500 0.750000
vt 0.625000 0.750000
vt 0.281250 0.750000
vt 0.281250 0.500000
vt 0.734722 0.500000
vt 0.718750 0.750000
vt 0.718750 0.500000
vt 0.500000 0.750000
vt 0.500000 0.437500
vt 0.301666 0.750000
vt 0.291458 0.750000
vt 0.734722 0.750000
vt 0.265625 0.500000
vt 0.687500 0.500000
vt 0.750000 0.500000
vt 0.750000 0.750000
vt 0.500000 0.000000
vt 0.625000 0.250000
vt 0.500000 0.250000
vt 0.875000 0.500000
vt 0.125000 0.500000
vt 0.125000 0.750000
vt 0.375000 0.000000
vt 0.875000 0.750000
vt 0.375000 0.250000
vt 0.250000 0.250000
vt 0.010000 0.250000
vt 0.080294 0.080294
vt 0.250000 0.010000
vt 0.419706 0.080294
vt 0.080294 0.419706
vt 0.419706 0.419706
vt 0.250000 0.490000
vt 0.490000 0.250000
vt 0.625000 0.000000
vt 0.375000 0.875000
vt 0.500000 0.875000
vt 0.375000 1.000000
vt 0.500000 1.000000
vt 1.000000 1.000000
vt 1.000000 0.500000
vt 0.750000 1.000000
vt 0.250000 1.000000
vt 0.000000 1.000000
vt 0.000000 0.500000
vt 0.957575 0.250000
vt 0.896777 0.396778
vt 0.750000 0.457575
vt 0.603222 0.396778
vt 0.542425 0.250000
vt 0.919706 0.419706
vt 0.990000 0.250000
vt 0.896778 0.103222
vt 0.919706 0.080294
vt 0.750000 0.010000
vt 0.750000 0.042425
vt 0.603222 0.103222
vt 0.580294 0.080294
vt 0.510000 0.250000
vt 0.580294 0.419706
vt 0.750000 0.490000
vt 0.875000 1.000000
vt 0.625000 1.000000
vt 0.125000 1.000000
s 1
usemtl body0
f 14/1/1 9/2/2 15/1/3
f 2/3/4 6/4/5 7/5/6
f 4/6/7 10/3/8 17/6/9
f 5/7/10 48/8/11 41/9/12
f 1/2/13 8/10/14 3/11/15
f 7/5/6 31/12/16 25/13/17
f 23/14/18 30/15/19 25/16/20
f 4/6/7 33/17/21 12/17/22
f 9/2/2 3/11/15 16/11/23
f 4/6/7 2/3/4 10/3/8
f 1/2/13 3/11/15 9/2/2
f 29/6/24 36/17/24 37/17/24
f 26/11/25 37/17/26 28/11/27
f 35/17/28 26/11/28 11/6/28
f 32/1/24 16/11/24 33/17/24
f 9/2/2 32/1/29 15/1/3
f 14/1/1 7/18/30 1/2/13
f 12/17/24 19/11/24 34/17/24
f 6/4/5 4/6/7 18/6/31
f 3/11/15 8/10/14 19/11/32
f 6/4/5 85/19/33 87/20/34
f 18/6/31 85/4/33 6/4/5
f 8/10/14 26/11/25 19/11/32
f 36/17/24 28/11/24 37/17/24
f 21/6/35 89/6/36 29/6/37
f 19/11/32 36/17/38 34/17/39
f 21/6/35 37/17/40 35/17/41
f 19/11/32 26/11/25 28/11/27
f 18/6/31 36/17/42 29/6/37
f 20/21/43 11/15/44 24/21/45
f 47/22/46 5/7/10 13/13/47
f 8/10/14 30/15/48 11/10/49
f 7/23/30 30/15/48 8/10/14
f 12/17/24 18/6/24 4/6/24
f 10/3/8 32/1/50 17/3/51
f 17/3/24 32/1/24 33/17/24
f 3/11/15 33/17/52 16/11/23
f 7/18/6 14/1/53 2/3/4
f 14/1/53 10/3/8 2/3/4
f 21/6/35 35/17/41 11/6/54
f 38/24/55 22/21/56 23/14/18
f 44/25/57 24/21/45 40/25/58
f 22/21/56 40/25/58 24/21/45
f 49/8/59 11/12/60 43/12/61
f 23/14/18 25/16/20 13/24/62
f 48/8/63 83/12/64 90/8/65
f 30/15/19 24/21/45 11/15/44
f 47/22/66 31/12/67 48/8/63
f 45/9/68 46/8/69 49/8/59
f 41/9/12 90/8/65 88/9/70
f 38/24/55 23/14/18 13/24/71
f 25/13/72 47/22/66 13/13/73
f 62/26/74 53/27/75 63/28/76
f 57/2/77 65/17/78 64/1/79
f 65/17/78 77/6/80 54/6/81
f 56/3/82 60/9/83 58/7/84
f 53/29/85 61/25/86 59/24/87
f 57/2/88 61/25/86 55/11/89
f 52/30/90 60/9/83 50/31/91
f 50/32/92 81/26/93 62/26/74
f 51/33/94 80/25/95 61/25/96
f 55/11/89 80/25/95 78/11/97
f 64/1/79 54/6/81 56/3/98
f 50/32/92 63/28/76 52/34/99
f 67/35/100 63/36/100 52/37/100
f 67/35/100 58/38/100 56/39/100
f 53/40/100 63/36/100 67/35/100
f 57/41/100 59/42/100 67/35/100
f 58/38/100 67/35/100 52/37/100
f 64/43/100 57/41/100 67/35/100
f 59/42/100 53/40/100 67/35/100
f 64/43/100 67/35/100 56/39/100
f 60/9/83 66/31/101 50/31/91
f 65/17/78 55/11/102 78/17/103
f 62/26/74 76/44/104 51/44/105
f 60/9/106 77/6/107 79/9/108
f 78/17/103 84/6/109 77/6/80
f 76/33/110 87/25/111 80/25/95
f 80/25/95 85/11/112 78/11/97
f 79/9/108 82/31/113 66/31/101
f 79/9/108 84/6/114 86/9/115
f 76/44/104 81/26/93 83/44/116
f 81/26/93 82/32/117 83/26/116
f 29/6/37 89/6/36 18/6/31
f 87/20/34 11/12/118 83/12/34
f 85/4/33 21/6/35 11/4/118
f 90/8/65 11/12/60 46/8/69
f 88/9/70 46/8/69 42/9/119
f 14/1/1 1/2/13 9/2/2
f 2/3/4 4/6/7 6/4/5
f 5/7/10 47/22/46 48/8/11
f 1/2/13 7/23/30 8/10/14
f 7/5/6 6/4/5 31/12/16
f 23/14/18 22/21/56 30/15/19
f 4/6/7 17/6/9 33/17/21
f 26/11/25 35/17/120 37/17/26
f 9/2/2 16/2/121 32/1/29
f 12/17/24 3/11/24 19/11/24
f 83/12/34 31/12/16 87/20/34
f 31/12/16 6/4/5 87/20/34
f 18/6/31 89/6/36 85/4/33
f 8/10/14 11/10/49 26/11/25
f 19/11/32 28/11/27 36/17/38
f 21/6/35 29/6/37 37/17/40
f 18/6/31 34/17/122 36/17/42
f 20/21/43 43/15/123 11/15/44
f 7/23/30 25/16/124 30/15/48
f 12/17/24 34/17/24 18/6/24
f 10/3/8 15/1/125 32/1/50
f 3/11/15 12/17/126 33/17/52
f 14/1/53 15/1/125 10/3/8
f 38/24/55 39/25/127 22/21/56
f 44/25/57 20/21/43 24/21/45
f 22/21/56 39/25/127 40/25/58
f 49/8/59 46/8/69 11/12/60
f 48/8/63 31/12/67 83/12/64
f 30/15/19 22/21/56 24/21/45
f 47/22/66 25/13/72 31/12/67
f 45/9/68 42/9/119 46/8/69
f 41/9/12 48/8/11 90/8/65
f 62/26/74 51/44/105 53/27/75
f 57/2/77 55/11/102 65/17/78
f 65/17/78 78/17/103 77/6/80
f 56/3/82 54/6/128 60/9/106
f 53/29/85 51/33/94 61/25/96
f 57/2/88 59/24/87 61/25/86
f 52/30/90 58/7/84 60/9/83
f 50/32/92 66/32/129 81/26/93
f 51/33/94 76/33/110 80/25/95
f 55/11/89 61/25/86 80/25/95
f 64/1/79 65/17/78 54/6/81
f 50/32/92 62/26/74 63/28/76
f 60/9/83 79/9/108 66/31/101
f 62/26/74 81/26/93 76/44/104
f 60/9/106 54/6/128 77/6/107
f 78/17/103 85/17/130 84/6/109
f 76/33/110 83/33/131 87/25/111
f 80/25/95 87/25/111 85/11/112
f 79/9/108 86/9/115 82/31/113
f 79/9/108 77/6/107 84/6/114
f 81/26/93 66/32/129 82/32/117
f 87/20/34 85/19/33 11/12/118
f 85/4/33 89/6/36 21/6/35
f 90/8/65 83/12/64 11/12/60
f 88/9/70 90/8/65 46/8/69
f 126/1/132 127/1/133 122/2/134
f 116/3/135 120/5/136 119/4/137
f 118/6/138 129/6/139 123/3/140
f 5/7/10 41/9/12 152/8/141
f 115/2/142 117/11/143 121/10/144
f 120/5/136 137/13/17 142/12/16
f 135/14/145 137/16/146 141/15/147
f 118/6/138 125/17/148 144/17/149
f 122/2/134 128/11/150 117/11/143
f 118/6/138 123/3/140 116/3/135
f 115/2/142 122/2/134 117/11/143
f 140/6/151 148/17/151 147/17/151
f 138/11/152 139/11/153 148/17/154
f 146/17/155 124/6/155 138/11/155
f 143/1/151 144/17/151 128/11/151
f 122/2/134 127/1/133 143/1/156
f 126/1/132 115/2/142 120/18/157
f 125/17/151 145/17/151 131/11/151
f 119/4/137 130/6/158 118/6/138
f 117/11/143 131/11/159 121/10/144
f 119/4/137 191/20/34 189/19/160
f 130/6/158 119/4/137 189/4/160
f 121/10/144 131/11/159 138/11/152
f 147/17/151 148/17/151 139/11/151
f 133/6/161 140/6/162 192/6/163
f 131/11/159 145/17/164 147/17/165
f 133/6/161 146/17/166 148/17/167
f 131/11/159 139/11/153 138/11/152
f 130/6/158 140/6/162 147/17/168
f 132/21/169 136/21/170 124/15/171
f 151/22/172 13/13/47 5/7/10
f 121/10/144 124/10/173 141/15/174
f 120/23/157 121/10/144 141/15/174
f 125/17/151 118/6/151 130/6/151
f 123/3/140 129/3/175 143/1/176
f 129/3/151 144/17/151 143/1/151
f 117/11/143 128/11/150 144/17/177
f 120/18/136 116/3/135 126/1/178
f 126/1/178 116/3/135 123/3/140
f 133/6/161 124/6/179 146/17/166
f 38/24/180 135/14/145 134/21/181
f 44/25/182 40/25/183 136/21/170
f 134/21/181 136/21/170 40/25/183
f 153/8/184 149/12/185 124/12/186
f 135/14/145 13/24/187 137/16/146
f 152/8/188 193/8/189 187/12/190
f 141/15/147 124/15/171 136/21/170
f 151/22/191 152/8/188 142/12/192
f 45/9/193 153/8/184 150/8/194
f 41/9/12 88/9/195 193/8/189
f 38/24/180 13/24/196 135/14/145
f 137/13/197 13/13/198 151/22/191
f 166/26/78 167/28/79 157/27/77
f 161/2/75 168/1/76 169/17/74
f 169/17/74 158/6/92 181/6/129
f 160/3/90 162/7/84 164/9/83
f 157/29/88 163/24/87 165/25/86
f 161/2/85 159/11/94 165/25/96
f 156/30/82 154/31/128 164/9/106
f 154/32/81 166/26/78 185/26/199
f 155/33/89 165/25/86 184/25/200
f 159/11/94 182/11/201 184/25/200
f 168/1/76 160/3/99 158/6/92
f 154/32/81 156/34/98 167/28/79
f 171/35/100 156/37/100 167/36/100
f 171/35/100 160/39/100 162/38/100
f 157/40/100 171/35/100 167/36/100
f 161/41/100 171/35/100 163/42/100
f 162/38/100 156/37/100 171/35/100
f 168/43/100 171/35/100 161/41/100
f 163/42/100 171/35/100 157/40/100
f 168/43/100 160/39/100 171/35/100
f 164/9/106 154/31/128 170/31/107
f 169/17/74 182/17/202 159/11/105
f 166/26/78 155/44/102 180/44/203
f 164/9/83 183/9/108 181/6/101
f 182/17/202 181/6/129 188/6/204
f 180/33/205 184/25/200 191/25/206
f 184/25/200 182/11/201 189/11/207
f 183/9/108 170/31/107 186/31/208
f 183/9/108 190/9/209 188/6/210
f 180/44/203 187/44/211 185/26/199
f 185/26/199 187/26/211 186/32/212
f 140/6/162 130/6/158 192/6/163
f 191/20/34 187/12/34 124/12/213
f 189/4/160 124/4/213 133/6/161
f 193/8/189 150/8/194 124/12/186
f 88/9/195 42/9/214 150/8/194
f 126/1/132 122/2/134 115/2/142
f 116/3/135 119/4/137 118/6/138
f 5/7/10 152/8/141 151/22/172
f 115/2/142 121/10/144 120/23/157
f 120/5/136 142/12/16 119/4/137
f 135/14/145 141/15/147 134/21/181
f 118/6/138 144/17/149 129/6/139
f 138/11/152 148/17/154 146/17/215
f 122/2/134 143/1/156 128/2/216
f 125/17/151 131/11/151 117/11/151
f 187/12/34 191/20/34 142/12/16
f 142/12/16 191/20/34 119/4/137
f 130/6/158 189/4/160 192/6/163
f 121/10/144 138/11/152 124/10/173
f 131/11/159 147/17/165 139/11/153
f 133/6/161 148/17/167 140/6/162
f 130/6/158 147/17/168 145/17/217
f 132/21/169 124/15/171 149/15/218
f 120/23/157 141/15/174 137/16/124
f 125/17/151 130/6/151 145/17/151
f 123/3/140 143/1/176 127/1/219
f 117/11/143 144/17/177 125/17/220
f 126/1/178 123/3/140 127/1/219
f 38/24/180 134/21/181 39/25/221
f 44/25/182 136/21/170 132/21/169
f 134/21/181 40/25/183 39/25/221
f 153/8/184 124/12/186 150/8/194
f 152/8/188 187/12/190 142/12/192
f 141/15/147 136/21/170 134/21/181
f 151/22/191 142/12/192 137/13/197
f 45/9/193 150/8/194 42/9/214
f 41/9/12 193/8/189 152/8/141
f 166/26/78 157/27/77 155/44/102
f 161/2/75 169/17/74 159/11/105
f 169/17/74 181/6/129 182/17/202
f 160/3/90 164/9/83 158/6/91
f 157/29/88 165/25/86 155/33/89
f 161/2/85 165/25/86 163/24/87
f 156/30/82 164/9/83 162/7/84
f 154/32/81 185/26/199 170/32/80
f 155/33/89 184/25/200 180/33/205
f 159/11/94 184/25/200 165/25/96
f 168/1/76 158/6/92 169/17/74
f 154/32/81 167/28/79 166/26/78
f 164/9/106 170/31/107 183/9/108
f 166/26/78 180/44/203 185/26/199
f 164/9/83 181/6/101 158/6/91
f 182/17/202 188/6/204 189/17/222
f 180/33/205 191/25/206 187/33/223
f 184/25/200 189/11/207 191/25/206
f 183/9/108 186/31/208 190/9/209
f 183/9/108 188/6/210 181/6/101
f 185/26/199 186/32/212 170/32/80
f 191/20/34 124/12/213 189/19/160
f 189/4/160 133/6/161 192/6/163
f 193/8/189 124/12/186 187/12/190
f 88/9/195 150/8/194 193/8/189
usemtl body1
f 27/9/224 45/9/68 49/8/59
f 20/21/43 44/25/57 27/25/225
f 43/12/61 27/9/226 49/8/59
f 43/15/123 20/21/43 27/25/225
f 27/9/227 153/8/184 45/9/193
f 132/21/169 27/25/228 44/25/182
f 149/12/185 153/8/184 27/9/229
f 149/15/218 27/25/228 132/21/169
usemtl intake
f 85/17/230 86/45/115 84/6/114
f 87/46/231 82/47/113 86/45/115
f 85/17/230 87/46/231 86/45/115
f 87/46/231 83/48/232 82/47/113
f 189/17/233 188/6/210 190/45/209
f 191/46/234 190/45/209 186/47/208
f 189/17/233 190/45/209 191/46/234
f 191/46/234 186/47/208 187/48/235
usemtl body2
f 59/49/236 92/29/237 91/50/238
f 92/29/239 64/51/240 93/24/241
f 64/51/242 94/2/243 93/24/244
f 94/2/245 58/48/246 95/1/247
f 58/48/248 96/3/249 95/1/250
f 96/3/251 63/52/252 97/7/253
f 63/52/254 98/30/255 97/7/256
f 98/30/257 59/53/258 91/54/259
f 97/7/253 104/3/260 96/3/251
f 70/55/261 108/56/261 109/55/261
f 96/3/249 103/1/262 95/1/250
f 68/57/263 108/56/263 69/56/263
f 75/58/264 107/57/264 68/57/264
f 94/2/245 103/1/265 102/2/265
f 75/58/266 113/59/266 114/58/266
f 91/54/259 106/30/267 98/30/257
f 107/57/268 100/60/268 108/56/268
f 108/56/268 101/61/268 109/55/268
f 110/62/268 101/61/268 102/63/268
f 110/62/268 103/64/268 111/65/268
f 112/66/268 103/64/268 104/67/268
f 113/59/268 104/67/268 105/68/268
f 114/58/268 105/68/268 106/69/268
f 107/57/268 106/69/268 99/70/268
f 70/55/269 110/62/269 71/62/269
f 91/50/238 100/29/270 99/50/270
f 72/65/271 110/62/271 111/65/271
f 93/24/241 100/29/272 92/29/239
f 97/7/256 106/30/273 105/7/273
f 72/65/274 112/66/274 73/66/274
f 73/66/275 113/59/275 74/59/275
f 93/24/244 102/2/276 101/24/276
f 59/49/236 57/71/277 92/29/237
f 92/29/278 57/71/279 64/51/280
f 64/51/242 56/72/281 94/2/243
f 94/2/245 56/72/282 58/48/283
f 58/48/248 52/47/284 96/3/249
f 96/3/285 52/47/286 63/52/287
f 63/52/254 53/73/288 98/30/255
f 98/30/257 53/73/289 59/53/258
f 97/7/253 105/7/260 104/3/260
f 70/55/261 69/56/261 108/56/261
f 96/3/249 104/3/262 103/1/262
f 68/57/263 107/57/263 108/56/263
f 75/58/264 114/58/264 107/57/264
f 94/2/245 95/1/247 103/1/265
f 75/58/266 74/59/290 113/59/266
f 91/54/259 99/54/267 106/30/267
f 107/57/268 99/70/268 100/60/268
f 108/56/268 100/60/268 101/61/268
f 110/62/268 109/55/268 101/61/268
f 110/62/268 102/63/268 103/64/268
f 112/66/268 111/65/268 103/64/268
f 113/59/268 112/66/268 104/67/268
f 114/58/268 113/59/268 105/68/268
f 107/57/268 114/58/268 106/69/268
f 70/55/269 109/55/269 110/62/269
f 91/50/238 92/29/237 100/29/270
f 72/65/271 71/62/271 110/62/271
f 93/24/241 101/24/272 100/29/272
f 97/7/256 98/30/255 106/30/273
f 72/65/274 111/65/274 112/66/274
f 73/66/275 112/66/275 113/59/275
f 93/24/244 94/2/243 102/2/276
f 163/49/258 194/50/259 195/29/257
f 195/29/255 196/24/256 168/51/254
f 168/51/252 196/24/253 197/2/251
f 197/2/249 198/1/250 162/48/248
f 162/48/246 198/1/247 199/3/245
f 199/3/243 200/7/244 167/52/242
f 167/52/240 200/7/241 201/30/239
f 201/30/237 194/54/238 163/53/236
f 200/7/244 199/3/243 207/3/276
f 174/55/266 212/55/266 211/56/266
f 199/3/245 198/1/247 206/1/265
f 172/57/264 173/56/264 211/56/264
f 179/58/263 172/57/263 210/57/263
f 197/2/249 205/2/262 206/1/262
f 179/58/261 217/58/261 216/59/261
f 194/54/238 201/30/237 209/30/270
f 210/57/268 211/56/268 203/60/268
f 211/56/268 212/55/268 204/61/268
f 213/62/268 205/63/268 204/61/268
f 213/62/268 214/65/268 206/64/268
f 215/66/268 207/67/268 206/64/268
f 216/59/268 208/68/268 207/67/268
f 217/58/268 209/69/268 208/68/268
f 210/57/268 202/70/268 209/69/268
f 174/55/275 175/62/275 213/62/275
f 194/50/259 202/50/267 203/29/267
f 176/65/274 214/65/274 213/62/274
f 196/24/256 195/29/255 203/29/273
f 200/7/241 208/7/272 209/30/272
f 176/65/271 177/66/271 215/66/271
f 177/66/269 178/59/269 216/59/269
f 196/24/253 204/24/260 205/2/260
f 163/49/258 195/29/257 161/71/289
f 195/29/255 168/51/254 161/71/288
f 168/51/287 197/2/285 160/72/286
f 197/2/249 162/48/248 160/72/284
f 162/48/283 199/3/245 156/47/282
f 199/3/243 167/52/242 156/47/281
f 167/52/280 201/30/278 157/73/279
f 201/30/237 163/53/236 157/73/277
f 200/7/244 207/3/276 208/7/276
f 174/55/266 211/56/266 173/56/266
f 199/3/245 206/1/265 207/3/265
f 172/57/264 211/56/264 210/57/264
f 179/58/263 210/57/263 217/58/263
f 197/2/249 206/1/262 198/1/250
f 179/58/261 216/59/261 178/59/291
f 194/54/238 209/30/270 202/54/270
f 210/57/268 203/60/268 202/70/268
f 211/56/268 204/61/268 203/60/268
f 213/62/268 204/61/268 212/55/268
f 213/62/268 206/64/268 205/63/268
f 215/66/268 206/64/268 214/65/268
f 216/59/268 207/67/268 215/66/268
f 217/58/268 208/68/268 216/59/268
f 210/57/268 209/69/268 217/58/268
f 174/55/275 213/62/275 212/55/275
f 194/50/259 203/29/267 195/29/257
f 176/65/274 213/62/274 175/62/274
f 196/24/256 203/29/273 204/24/273
f 200/7/241 209/30/272 201/30/239
f 176/65/271 215/66/271 214/65/271
f 177/66/269 216/59/269 215/66/269
f 196/24/253 205/2/260 197/2/251
usemtl engine
f 75/58/268 69/56/268 71/62/268
f 75/58/268 68/57/268 69/56/268
f 69/56/268 70/55/268 71/62/268
f 71/62/268 72/65/268 73/66/268
f 73/66/268 74/59/268 71/62/268
f 74/59/268 75/58/268 71/62/268
f 179/58/268 175/62/268 173/56/268
f 179/58/268 173/56/268 172/57/268
f 173/56/268 175/62/268 174/55/268
f 175/62/268 177/66/268 176/65/268
f 177/66/268 175/62/268 178/59/268
f 178/59/268 175/62/268 179/58/268
